<svg width="100" height="101" viewBox="0 0 100 101" fill="none" xmlns="http://www.w3.org/2000/svg">
<path d="M50 100.606C77.6142 100.606 100 78.2207 100 50.6064C100 22.9922 77.6142 0.606445 50 0.606445C22.3858 0.606445 0 22.9922 0 50.6064C0 78.2207 22.3858 100.606 50 100.606Z" fill="#89CAC6"/>
<path d="M50.0005 92.695C73.2453 92.695 92.0889 73.8513 92.0889 50.6065C92.0889 27.3617 73.2453 8.51807 50.0005 8.51807C26.7556 8.51807 7.91199 27.3617 7.91199 50.6065C7.91199 73.8513 26.7556 92.695 50.0005 92.695Z" fill="#EAF6FA"/>
<path d="M14.5892 50.6064C14.5892 25.4702 33.1386 4.66944 57.2948 1.13784C54.9132 0.7899 52.4783 0.606445 50.0004 0.606445C22.3862 0.606445 0.000366211 22.9919 0.000366211 50.6064C0.000366211 78.2209 22.3859 100.606 50.0004 100.606C52.4783 100.606 54.9132 100.423 57.2948 100.075C33.1386 96.5434 14.5892 75.7423 14.5892 50.6064Z" fill="#55A19D"/>
<path d="M32.314 12.4197C17.9181 19.1138 7.91199 33.7125 7.91199 50.606C7.91199 67.4999 17.9185 82.0982 32.314 88.7923C21.4727 79.6214 14.5893 65.9181 14.5893 50.606C14.5893 35.2939 21.4727 21.5906 32.314 12.4197Z" fill="#D3E9F0"/>
<path d="M84.7086 44.7478C81.0986 40.5317 73.6269 41.0051 68.0201 45.8055C62.4132 50.606 60.7946 57.9154 64.4042 62.1319C68.0142 66.3481 75.4859 65.8747 81.0928 61.0742C86.6996 56.2738 88.3183 48.9644 84.7086 44.7478ZM78.8771 58.4865C76.3744 60.6293 73.2896 61.7851 70.6253 61.5786C69.5457 61.4951 68.0387 61.1388 66.9923 59.9162C65.5991 58.2888 65.8241 56.0903 66.0823 54.9243C66.5991 52.5915 68.1127 50.211 70.2361 48.3932C72.7388 46.2505 75.8233 45.0947 78.4879 45.3011C79.5675 45.3846 81.0745 45.741 82.1213 46.9635C84.4628 49.6993 82.9773 54.9761 78.8771 58.4865Z" fill="#FF9079"/>
<path d="M73.8711 61.2195C72.7649 61.5303 71.6634 61.659 70.6254 61.5788C69.5458 61.4953 68.0388 61.1389 66.9924 59.9164C65.5992 58.289 65.8242 56.0905 66.0824 54.9245C66.5992 52.5917 68.1128 50.2112 70.2363 48.3934C72.739 46.2507 75.8234 45.0949 78.4881 45.3013C79.173 45.3542 80.0294 45.5179 80.8314 45.9421C80.939 44.9639 80.9959 43.9704 80.9959 42.9634V42.3361C77.1499 41.1172 72.0938 42.3186 68.0206 45.8057C62.4137 50.6062 60.7951 57.9155 64.4047 62.1321C65.74 63.6916 67.6041 64.6074 69.7059 64.9021C71.2184 63.82 72.6139 62.5847 73.8711 61.2195Z" fill="#E36B49"/>
<path d="M49.2611 69.9213C34.3725 69.9213 22.3027 57.8515 22.3027 42.9629V41.477C22.3027 40.5977 23.0154 39.885 23.8947 39.885H74.6275C75.5068 39.885 76.2195 40.5977 76.2195 41.477V42.9629C76.2195 57.8515 64.1498 69.9213 49.2611 69.9213Z" fill="#E36B49"/>
<path d="M57.2215 68.3294H57.2204C42.3318 68.3294 30.2624 56.26 30.2624 41.3714V39.8848H23.8944C23.015 39.8848 22.3024 40.5974 22.3024 41.4768V42.9634C22.3024 57.852 34.3717 69.9214 49.2604 69.9214H49.2615C52.5046 69.9214 55.6135 69.3484 58.4933 68.2987C58.0717 68.3181 57.6482 68.3294 57.2215 68.3294Z" fill="#FF9079"/>
<path d="M62.4819 62.956C61.6507 62.956 60.856 62.48 60.4891 61.6744C59.9879 60.5744 60.4737 59.2767 61.5737 58.7759C68.3721 55.6795 69.6465 45.801 69.6585 45.7014C69.804 44.5033 70.896 43.6498 72.0908 43.7903C73.2893 43.934 74.1457 45.0179 74.0049 46.2168C73.9454 46.7219 72.4461 58.6333 63.3879 62.7583C63.0939 62.8925 62.7853 62.956 62.4819 62.956Z" fill="white"/>
<path d="M68.8484 76.6609H29.6733C26.652 76.6609 24.2025 74.2114 24.2025 71.1901V70.9297H74.3192V71.1901C74.3192 74.2114 71.8701 76.6609 68.8484 76.6609Z" fill="#E36B49"/>
<path d="M30.5705 74.7501H74.2714C74.3028 74.5959 74.3192 74.4361 74.3192 74.2724V70.929H24.2025V74.2724C24.2025 75.5912 25.2715 76.6605 26.5907 76.6605H30.5709V74.7501H30.5705Z" fill="#FF9079"/>
<path d="M76.0536 72.9992H21.8264C20.8924 72.9992 20.0171 72.544 19.4805 71.7792L17.5399 69.0131C17.2437 68.5911 17.5457 68.0105 18.0611 68.0105H80.2909C80.8365 68.0105 81.1294 68.652 80.7719 69.0645L78.2189 72.01C77.6747 72.6384 76.8848 72.9992 76.0536 72.9992Z" fill="#E36B49"/>
<path d="M59.2798 35.2484C63.0829 31.371 62.0091 24.1507 56.8814 19.1214C51.7537 14.0922 44.514 13.1585 40.711 17.0359C36.9079 20.9134 37.9817 28.1337 43.1094 33.1629C48.237 38.1922 55.4768 39.1259 59.2798 35.2484Z" fill="#A56021"/>
<path d="M45.7926 30.4503C41.2762 26.0299 39.895 19.9084 42.2139 15.8552C41.6679 16.1842 41.1617 16.581 40.7058 17.0475C36.9098 20.9321 37.9937 28.154 43.1268 33.178C48.2599 38.2021 55.4985 39.1255 59.2946 35.2409C59.7505 34.774 60.1356 34.2587 60.4522 33.7054C56.4548 36.1159 50.3089 34.8707 45.7926 30.4503Z" fill="#8C4C17"/>
<path d="M58.552 35.7907C58.5487 35.7907 58.5454 35.7907 58.5422 35.7907C51.6916 35.7393 49.2819 30.5912 48.9649 27.8762C48.5864 24.2429 47.4794 21.7143 45.673 20.3455C43.8632 18.9734 41.9196 19.2608 41.9003 19.2633C41.2051 19.3866 40.5457 18.9161 40.4261 18.2213C40.3068 17.5269 40.7733 16.8668 41.4681 16.7475C41.5906 16.7271 44.5022 16.2551 47.215 18.3107C49.6072 20.1237 51.0497 23.2476 51.5027 27.5961C51.5293 27.8029 52.2864 33.1909 58.5615 33.238C59.2665 33.2435 59.8336 33.819 59.8285 34.524C59.823 35.2254 59.2526 35.7907 58.552 35.7907Z" fill="#8C4C17"/>
<path d="M41.6844 55.2353C44.612 55.2353 46.9853 52.862 46.9853 49.9344C46.9853 47.0068 44.612 44.6335 41.6844 44.6335C38.7568 44.6335 36.3835 47.0068 36.3835 49.9344C36.3835 52.862 38.7568 55.2353 41.6844 55.2353Z" fill="white"/>
</svg>
