<svg width="100" height="101" viewBox="0 0 100 101" fill="none" xmlns="http://www.w3.org/2000/svg">
<path d="M69.2439 13.9441H13.0856V87.2687H69.2439V13.9441Z" fill="white"/>
<path d="M69.2982 24.6716L84.0154 47.4767C86.2531 50.9438 87.2418 55.0703 86.8187 59.175L84.5429 81.2548C84.2062 84.52 81.4555 87.0018 78.173 87.0018H69.2982V24.6716Z" fill="#FFD59A"/>
<path d="M69.2439 13.9441H13.0856V9.14462C13.0856 4.4292 16.9083 0.606445 21.6237 0.606445H60.7058C65.4212 0.606445 69.2439 4.4292 69.2439 9.14462V13.9441Z" fill="#89CAC6"/>
<path d="M60.7058 100.607H21.6237C16.9083 100.607 13.0856 96.7838 13.0856 92.0684V85.1328H69.2439V92.0686C69.2439 96.784 65.4212 100.607 60.7058 100.607Z" fill="#89CAC6"/>
<path d="M41.1647 98.1723C44.0933 98.1723 46.4675 95.7982 46.4675 92.8695C46.4675 89.9408 44.0933 87.5667 41.1647 87.5667C38.236 87.5667 35.8618 89.9408 35.8618 92.8695C35.8618 95.7982 38.236 98.1723 41.1647 98.1723Z" fill="#DB9C2E"/>
<path d="M21.6237 13.9441H13.0856V85.1324H21.6237V13.9441Z" fill="#EAF6FA"/>
<path d="M21.7166 92.0683V85.1326H13.0856V92.0683C13.0856 96.7838 16.9497 100.607 21.7166 100.607H30.3476C25.5808 100.607 21.7166 96.784 21.7166 92.0683Z" fill="#55A29D"/>
<path d="M30.1619 0.606445H21.6237C16.9081 0.606445 13.0856 4.4292 13.0856 9.14462V13.9441H21.6237V9.14462C21.6237 4.42899 25.4463 0.606445 30.1619 0.606445Z" fill="#55A29D"/>
<path d="M65.9062 22.377C65.199 22.377 64.6254 21.8036 64.6254 21.0962V18.1079C64.6254 17.4005 65.199 16.8271 65.9062 16.8271C66.6133 16.8271 67.1869 17.4005 67.1869 18.1079V21.0962C67.1869 21.8034 66.6133 22.377 65.9062 22.377Z" fill="#EAF6FA"/>
<path d="M65.9062 47.8156C65.199 47.8156 64.6254 47.2423 64.6254 46.5349V25.361C64.6254 24.6537 65.199 24.0803 65.9062 24.0803C66.6133 24.0803 67.1869 24.6537 67.1869 25.361V46.5349C67.1869 47.2423 66.6133 47.8156 65.9062 47.8156Z" fill="#EAF6FA"/>
<path d="M65.9075 12.5582C65.8703 12.5582 65.8332 12.5567 65.7958 12.5533C65.091 12.4924 64.5693 11.8717 64.6302 11.1671C64.7747 9.49552 64.4067 8.14926 63.5364 7.16545C61.9195 5.33721 59.0131 5.18224 58.9841 5.18118C58.2771 5.15556 57.7251 4.56173 57.7507 3.85477C57.7761 3.14802 58.3608 2.5956 59.0771 2.62122C59.24 2.62719 63.0924 2.79646 65.4554 5.46827C66.8085 6.9981 67.3895 8.98963 67.1822 11.3876C67.1246 12.0548 66.5649 12.5582 65.9075 12.5582Z" fill="#EAF6FA"/>
<path d="M60.5273 98.4432C60.3294 98.4432 60.1273 98.4347 59.9187 98.4172C59.2139 98.3576 58.6907 97.738 58.7503 97.0332C58.8096 96.3283 59.4272 95.8056 60.1341 95.8647C64.0909 96.1998 64.6098 90.9294 64.6301 90.7051C64.6941 90.0007 65.3181 89.4813 66.0214 89.5454C66.726 89.6094 67.2451 90.2323 67.1813 90.9367C66.9395 93.6027 65.232 98.4432 60.5273 98.4432Z" fill="#EAF6FA"/>
<path d="M38.8166 98.1723C41.7453 98.1723 44.1195 95.7982 44.1195 92.8695C44.1195 89.9408 41.7453 87.5667 38.8166 87.5667C35.888 87.5667 33.5138 89.9408 33.5138 92.8695C33.5138 95.7982 35.888 98.1723 38.8166 98.1723Z" fill="#3F4044"/>
<path d="M41.1647 98.1723C44.0933 98.1723 46.4675 95.7982 46.4675 92.8695C46.4675 89.9408 44.0933 87.5667 41.1647 87.5667C38.236 87.5667 35.8618 89.9408 35.8618 92.8695C35.8618 95.7982 38.236 98.1723 41.1647 98.1723Z" fill="#555555"/>
<path d="M55.7538 50.1591C54.1471 48.2824 50.8215 48.4933 48.326 50.6298C45.8305 52.7664 45.1101 56.0197 46.7168 57.8964C48.3235 59.7731 51.6491 59.5622 54.1446 57.4257C56.6401 55.2893 57.3605 52.0356 55.7538 50.1591ZM53.1584 56.2737C52.0446 57.2274 50.6717 57.7419 49.4857 57.6501C49.0052 57.6129 48.3346 57.4543 47.8686 56.9102C47.2485 56.186 47.3486 55.2073 47.4635 54.6884C47.6933 53.6501 48.3672 52.5906 49.3122 51.7816C50.426 50.8279 51.7989 50.3134 52.9849 50.4052C53.4654 50.4424 54.136 50.601 54.602 51.145C55.6445 52.3628 54.9832 54.7112 53.1584 56.2737Z" fill="#FF9079"/>
<path d="M50.9302 57.4901C50.438 57.6284 49.9475 57.6858 49.4855 57.65C49.0051 57.6128 48.3344 57.4542 47.8684 56.9101C47.2483 56.1859 47.3484 55.2072 47.4633 54.6883C47.6932 53.65 48.367 52.5905 49.312 51.7815C50.4258 50.8278 51.7987 50.3133 52.9847 50.4051C53.2895 50.4288 53.6707 50.5016 54.0276 50.6903C54.0754 50.2548 54.1009 49.8128 54.1009 49.3645V49.0853C52.3892 48.5427 50.1387 49.0774 48.3258 50.6297C45.8303 52.7664 45.1099 56.0196 46.7166 57.8963C47.3109 58.5905 48.1406 58.9982 49.0761 59.1292C49.7496 58.6474 50.3707 58.0976 50.9302 57.4901Z" fill="#E36B49"/>
<path d="M39.9768 61.363C33.3501 61.363 27.9781 55.991 27.9781 49.3643V48.7031C27.9781 48.3118 28.2953 47.9944 28.6868 47.9944H51.267C51.6583 47.9944 51.9757 48.3116 51.9757 48.7031V49.3643C51.9755 55.991 46.6035 61.363 39.9768 61.363Z" fill="#E36B49"/>
<path d="M43.5199 60.6546H43.5195C36.893 60.6546 31.521 55.2826 31.521 48.6561V47.9946H28.6865C28.2952 47.9946 27.9778 48.3118 27.9778 48.7033V49.3648C27.9778 55.9913 33.3496 61.3633 39.9763 61.3633H39.9768C41.4201 61.3633 42.804 61.1082 44.0858 60.641C43.8983 60.6495 43.7097 60.6546 43.5199 60.6546Z" fill="#FF9079"/>
<path d="M45.0072 58.1428C44.683 58.1428 44.3728 57.9571 44.2296 57.6426C44.0343 57.2136 44.2239 56.7073 44.6527 56.5118C47.7414 55.1051 48.3151 50.6426 48.3207 50.5978C48.3772 50.1301 48.8029 49.7961 49.2695 49.8518C49.737 49.9075 50.0714 50.3308 50.0164 50.7987C49.9903 51.0207 49.331 56.2573 45.3605 58.0657C45.2461 58.118 45.1257 58.1428 45.0072 58.1428Z" fill="white"/>
<path d="M48.4919 65.0122H31.2877C29.8789 65.0122 28.7367 63.8702 28.7367 62.4612H51.0427C51.0429 63.8702 49.9007 65.0122 48.4919 65.0122Z" fill="#E36B49"/>
<path d="M33.0058 63.9556H50.5562C50.8608 63.5353 51.0427 63.0202 51.0427 62.4614H28.7367C28.7367 63.8702 29.8787 65.0124 31.2877 65.0124H33.2372C33.0901 64.6899 33.0058 64.333 33.0058 63.9556Z" fill="#FF9079"/>
<path d="M51.8148 63.3825H27.6792C27.2634 63.3825 26.8739 63.1799 26.6352 62.8397L25.7716 61.6085C25.6399 61.4206 25.7742 61.1624 26.0036 61.1624H53.7008C53.9438 61.1624 54.0742 61.448 53.9149 61.6313L52.7787 62.9423C52.5362 63.222 52.1847 63.3825 51.8148 63.3825Z" fill="#E36B49"/>
<path d="M39.8899 45.4295C43.2353 45.4295 45.9473 43.3817 45.9473 40.8556C45.9473 38.3295 43.2353 36.2817 39.8899 36.2817C36.5445 36.2817 33.8325 38.3295 33.8325 40.8556C33.8325 43.3817 36.5445 45.4295 39.8899 45.4295Z" fill="#BF6C0D"/>
<path d="M36.5429 40.8556C36.5429 38.6873 38.5103 36.8726 41.1501 36.4017C40.7145 36.324 40.2613 36.2815 39.7949 36.2815C36.5019 36.2815 33.8323 38.3294 33.8323 40.8554C33.8323 43.3814 36.5017 45.4293 39.7949 45.4293C40.2613 45.4293 40.7147 45.3868 41.1501 45.3091C38.5106 44.8387 36.5429 43.0239 36.5429 40.8556Z" fill="#A56021"/>
<path d="M42.8685 42.5114C41.0415 42.5114 39.5932 41.2362 39.5307 41.1805C37.2136 38.9841 34.8144 41.0889 34.7134 41.1797C34.5053 41.3664 34.1755 41.3596 33.9766 41.1636C33.7776 40.9679 33.7851 40.658 33.9934 40.471C35.1049 39.4731 37.8454 38.1909 40.2596 40.4804C40.2605 40.4808 41.5356 41.5903 42.9886 41.5289C43.7372 41.4964 44.4256 41.1506 45.0348 40.5013C45.2254 40.2983 45.5548 40.2791 45.7704 40.458C45.9864 40.637 46.0069 40.9466 45.8167 41.1496C45.0111 42.0079 44.0732 42.4651 43.0285 42.5082C42.9752 42.5103 42.9216 42.5114 42.8685 42.5114Z" fill="#8C4C17"/>
<path d="M79.8512 64.6281L70.7322 76.5551L57.7228 66.6086C54.4292 64.0905 53.8005 59.3791 56.3189 56.0855C58.837 52.7919 63.5484 52.1633 66.842 54.6814L79.8512 64.6281Z" fill="#FFB74B"/>
<path d="M71.8054 28.5565L69.2982 24.6716V87.0018H71.8054V28.5565Z" fill="#FFB74B"/>
<path d="M81.8994 64.0674L72.7804 75.9944L56.5244 63.5654C53.2308 61.0472 52.6022 56.3359 55.1203 53.0423C57.6384 49.7487 62.3498 49.12 65.6434 51.6382L81.8994 64.0674Z" fill="#FFD59A"/>
<path d="M27.8669 10.5946C29.6352 10.5946 31.0687 9.16105 31.0687 7.39273C31.0687 5.62442 29.6352 4.19092 27.8669 4.19092C26.0985 4.19092 24.665 5.62442 24.665 7.39273C24.665 9.16105 26.0985 10.5946 27.8669 10.5946Z" fill="#3F4044"/>
<path d="M59.0306 81.7252C60.7989 81.7252 62.2324 80.2917 62.2324 78.5234C62.2324 76.755 60.7989 75.3215 59.0306 75.3215C57.2622 75.3215 55.8287 76.755 55.8287 78.5234C55.8287 80.2917 57.2622 81.7252 59.0306 81.7252Z" fill="#EAF6FA"/>
</svg>
