<svg width="74" height="101" viewBox="0 0 74 101" fill="none" xmlns="http://www.w3.org/2000/svg">
<path d="M10.8629 95.7507H47.5362V97.6758C47.5362 99.2159 46.2878 100.464 44.7478 100.464H13.6513C12.1113 100.464 10.8629 99.2159 10.8629 97.6758V95.7507Z" fill="#2F7672"/>
<path d="M64.1975 50.783C64.2318 50.9742 64.2527 51.1703 64.2527 51.3716V70.882C64.2527 72.7187 62.7637 74.2077 60.9269 74.2077H46.2603V80.8592H63.144C67.4298 80.8592 70.9038 77.3851 70.9038 73.0993V50.7832H64.1975V50.783Z" fill="#2F7672"/>
<path d="M65.4898 44.1318H48.6061V50.7833H63.2728C65.1095 50.7833 66.5985 52.2723 66.5985 54.109V73.6194C66.5985 75.4561 65.1095 76.9451 63.2728 76.9451H48.6061V83.5966H65.4898C69.7756 83.5966 73.2497 80.1225 73.2497 75.8367V51.8919C73.2497 47.6059 69.7756 44.1318 65.4898 44.1318Z" fill="#89CAC6"/>
<path d="M62.0431 44.1316H48.6061V50.783H62.0431V44.1316Z" fill="#EAF6FA"/>
<path d="M62.0431 76.9448H48.6061V83.5963H62.0431V76.9448Z" fill="#EAF6FA"/>
<path d="M38.0534 97.9796H18.8748C8.86504 97.9796 0.750244 89.865 0.750244 79.855V33.9306C0.750244 31.6207 2.62293 29.748 4.93284 29.748H51.9954C54.3053 29.748 56.178 31.6207 56.178 33.9306V79.855C56.178 89.8648 48.0635 97.9796 38.0534 97.9796Z" fill="#89CAC6"/>
<path d="M50.4715 77.7516C49.5477 77.7516 48.7985 77.0023 48.7985 76.0785V42.9794C48.7985 42.0556 49.5477 41.3064 50.4715 41.3064C51.3953 41.3064 52.1445 42.0556 52.1445 42.9794V76.0785C52.1445 77.0026 51.3953 77.7516 50.4715 77.7516Z" fill="#EAF6FA"/>
<path d="M44.7285 92.0896C44.151 92.0899 43.5446 92.0406 42.9096 91.9419C41.9967 91.7999 41.3716 90.9447 41.5135 90.0315C41.6552 89.1186 42.5106 88.4943 43.4238 88.6354C45.2327 88.9162 46.5839 88.639 47.4416 87.8117C48.9014 86.4024 48.9192 83.4844 48.8102 82.5734C48.7006 81.656 49.3556 80.8234 50.273 80.7135C51.1876 80.607 52.023 81.259 52.1328 82.1763C52.1579 82.3871 52.7156 87.3711 49.7655 90.2192C48.4761 91.4637 46.7869 92.0896 44.7285 92.0896Z" fill="#EAF6FA"/>
<path d="M70.04 72.6361C69.1162 72.6361 68.3669 71.8868 68.3669 70.963V51.9565C68.3669 51.0327 69.1162 50.2834 70.04 50.2834C70.9638 50.2834 71.713 51.0327 71.713 51.9565V70.963C71.713 71.8871 70.9641 72.6361 70.04 72.6361Z" fill="#EAF6FA"/>
<path d="M41.1807 1.44954C37.8998 -0.299617 33.1359 1.33271 29.1995 5.14891C25.2631 1.33271 20.4991 -0.299896 17.2183 1.44954C12.8966 3.75388 12.7867 11.05 16.9726 17.7458C19.4691 21.739 22.9298 24.6161 26.2335 25.8001C27.1335 26.2325 28.1363 26.4255 29.1992 26.3948C30.2624 26.4255 31.2648 26.2325 32.1649 25.8001C35.4686 24.6161 38.9293 21.7393 41.4258 17.7458C45.6125 11.05 45.5027 3.75388 41.1807 1.44954Z" fill="#FF624B"/>
<path d="M24.793 17.7459C20.8011 11.3605 20.7188 4.43298 24.4673 1.80547C21.8481 0.581085 19.2491 0.366936 17.2183 1.44967C12.8966 3.754 12.7867 11.0501 16.9726 17.7459C19.4691 21.7392 22.9298 24.6162 26.2335 25.8002C27.1335 26.2327 28.1363 26.4256 29.1992 26.395C30.2624 26.4256 31.2648 26.2327 32.1649 25.8002C32.4786 25.6878 32.7937 25.5554 33.1091 25.4129C30.1018 24.0552 27.0524 21.3602 24.793 17.7459Z" fill="#FF4B34"/>
<path d="M40.0463 14.1906C39.9091 14.1906 39.77 14.1736 39.6308 14.1381C38.7355 13.9095 38.1957 12.998 38.4246 12.1029C39.3515 8.47714 38.6513 7.34338 38.3066 7.02411C37.6134 6.38139 36.0087 6.63987 35.3398 6.86573C34.4673 7.16102 33.517 6.69675 33.2178 5.82594C32.9189 4.95512 33.3751 4.00762 34.2448 3.70425C34.6446 3.56483 38.2191 2.40234 40.5652 4.55554C42.3083 6.15525 42.6786 8.97376 41.6661 12.9322C41.4726 13.6878 40.7925 14.1906 40.0463 14.1906Z" fill="#FF9079"/>
<path d="M38.8696 73.5231C43.0929 69.2203 41.9037 61.2046 36.2135 55.6197C30.5233 50.0347 22.4868 48.9953 18.2636 53.2982C14.0403 57.601 15.2295 65.6166 20.9197 71.2016C26.6099 76.7866 34.6464 77.8259 38.8696 73.5231Z" fill="#A56021"/>
<path d="M23.8926 68.1937C18.8799 63.2864 17.3468 56.4908 19.9205 51.9915C19.3146 52.3567 18.7527 52.797 18.2466 53.3151C14.0333 57.6276 15.2365 65.6448 20.9338 71.2222C26.631 76.7995 34.6653 77.8248 38.8782 73.5123C39.3843 72.9942 39.8115 72.422 40.1631 71.8078C35.7265 74.4832 28.9053 73.1007 23.8926 68.1937Z" fill="#8C4C17"/>
<path d="M38.0542 74.0992C38.0506 74.0992 38.0473 74.0992 38.0436 74.0992C30.4559 74.0424 27.7871 68.3404 27.436 65.3331C27.018 61.3211 25.8001 58.5194 23.8136 56.9883C21.7915 55.4293 19.6475 55.7396 19.5574 55.7535C18.8026 55.8687 18.0857 55.3568 17.9622 54.6011C17.8389 53.8457 18.3419 53.133 19.0962 53.0036C19.2323 52.9799 22.4537 52.4591 25.4565 54.7344C28.1069 56.7429 29.7052 60.2058 30.2071 65.0269C30.237 65.2581 31.0788 71.2584 38.0643 71.3106C38.8344 71.3164 39.4537 71.9452 39.4482 72.7151C39.4426 73.4822 38.8194 74.0992 38.0542 74.0992Z" fill="#8C4C17"/>
<path d="M11.9041 79.855V33.9306C11.9041 31.6207 13.7765 29.748 16.0867 29.748H4.93308C2.6229 29.748 0.750488 31.6207 0.750488 33.9306V79.855C0.750488 89.8648 8.86528 97.9796 18.8751 97.9796H30.0287C20.0186 97.9796 11.9041 89.865 11.9041 79.855Z" fill="#55A19D"/>
<path d="M22.3877 90.9265C24.7491 90.9265 26.6634 89.0122 26.6634 86.6507C26.6634 84.2893 24.7491 82.375 22.3877 82.375C20.0263 82.375 18.1119 84.2893 18.1119 86.6507C18.1119 89.0122 20.0263 90.9265 22.3877 90.9265Z" fill="#EAF6FA"/>
</svg>
