<svg width="100" height="101" viewBox="0 0 100 101" fill="none" xmlns="http://www.w3.org/2000/svg">
<path d="M30.2022 42.2184H38.1057V14.0477C38.1057 11.4545 36.0037 9.35254 33.4106 9.35254H30.2022C27.6091 9.35254 25.507 11.4545 25.507 14.0477V37.5233C25.507 40.1164 27.6091 42.2184 30.2022 42.2184Z" fill="#8C4C17"/>
<path d="M69.7978 9.3645H66.5894C63.9965 9.3645 61.8943 11.4667 61.8943 14.0596V18.1477C66.9753 21.9272 70.2673 27.9771 70.2673 34.7963V42.2064C72.6398 41.971 74.4929 39.9697 74.4929 37.535V14.0594C74.4929 11.4665 72.3907 9.3645 69.7978 9.3645Z" fill="#8C4C17"/>
<path d="M70.7366 43.2853C74.4408 43.2853 77.4436 40.2825 77.4436 36.5783C77.4436 32.8742 74.4408 29.8713 70.7366 29.8713C67.0324 29.8713 64.0296 32.8742 64.0296 36.5783C64.0296 40.2825 67.0324 43.2853 70.7366 43.2853Z" fill="#FFEACF"/>
<path d="M28.4805 43.2853C32.1846 43.2853 35.1875 40.2825 35.1875 36.5783C35.1875 32.8742 32.1846 29.8713 28.4805 29.8713C24.7763 29.8713 21.7735 32.8742 21.7735 36.5783C21.7735 40.2825 24.7763 43.2853 28.4805 43.2853Z" fill="#FFD59A"/>
<path d="M86.7 100.607H13.2997V90.7857C13.2997 78.4688 23.2846 68.4839 35.6016 68.4839H64.3984C76.7154 68.4839 86.7002 78.4688 86.7002 90.7857V100.607H86.7Z" fill="#FF7E59"/>
<path d="M28.3241 95.4808C28.3241 83.1639 38.309 73.179 50.626 73.179H78.087C74.3084 70.237 69.5583 68.4839 64.3984 68.4839H35.6016C23.2846 68.4839 13.2997 78.4688 13.2997 90.7857V100.607H28.3241V95.4808Z" fill="#E36B49"/>
<path d="M49.9999 81.9823C44.3817 81.9823 39.8272 77.4278 39.8272 71.8096V47.5515H60.1728V71.8096C60.1726 77.4278 55.618 81.9823 49.9999 81.9823Z" fill="#FFEACF"/>
<path d="M66.23 91.6795C63.947 91.3138 62.3926 89.1667 62.7582 86.8837L65.957 66.9102C66.08 66.1421 66.8023 65.619 67.5704 65.7421L73.0564 66.6207C73.8246 66.7438 74.3476 67.4661 74.2246 68.2342L71.0258 88.2077C70.6601 90.491 68.513 92.0453 66.23 91.6795Z" fill="#89CAC6"/>
<path d="M33.8609 91.6795C36.1439 91.3138 37.6982 89.1667 37.3327 86.8837L34.1339 66.9102C34.0109 66.1421 33.2885 65.619 32.5204 65.7421L27.0344 66.6207C26.2663 66.7438 25.7432 67.4661 25.8663 68.2342L29.065 88.2077C29.4306 90.491 31.5779 92.0453 33.8609 91.6795Z" fill="#89CAC6"/>
<path d="M33.2906 88.2077L30.0918 68.2339C29.9688 67.4658 30.4919 66.7435 31.26 66.6205L33.8078 66.2125C33.4993 65.8561 33.0202 65.662 32.5206 65.742L27.0346 66.6207C26.2665 66.7437 25.7435 67.4661 25.8665 68.2342L29.0653 88.2079C29.4308 90.4909 31.5781 92.0453 33.8611 91.6797C34.3884 91.5952 34.8741 91.4124 35.3088 91.1584C34.267 90.5473 33.4963 89.493 33.2906 88.2077Z" fill="#EAF6FA"/>
<path d="M76.3512 100.606H23.6485V90.4336C23.6485 87.8405 25.7505 85.7385 28.3436 85.7385H71.6561C74.2492 85.7385 76.3512 87.8405 76.3512 90.4336V100.606Z" fill="#89CAC6"/>
<path d="M37.7339 85.7383H28.3436C25.7505 85.7383 23.6485 87.8403 23.6485 90.4334V100.606H33.0387V90.4334C33.0387 87.8403 35.1407 85.7383 37.7339 85.7383Z" fill="#EAF6FA"/>
<path d="M46.8699 71.8096V47.5515H39.8272V71.8096C39.8272 77.428 44.3817 81.9823 50.0001 81.9823C51.238 81.9823 52.4242 81.7606 53.5214 81.3557C49.6386 79.923 46.8699 76.1899 46.8699 71.8096Z" fill="#FFD59A"/>
<path d="M49.9999 60.4559C38.5473 60.4559 29.2632 51.1718 29.2632 39.7192V29.1622C29.2632 17.7097 38.5473 8.42554 49.9999 8.42554C61.4524 8.42554 70.7366 17.7097 70.7366 29.1622V39.7192C70.7366 51.1718 61.4524 60.4559 49.9999 60.4559Z" fill="#FFEACF"/>
<path d="M36.5406 37.1085V26.8149C36.5406 26.0297 36.5845 25.2547 36.6699 24.4925C36.8021 23.3121 37.8139 22.4266 39.0015 22.4266H69.6173C66.8206 14.2806 59.0945 8.42554 49.9999 8.42554C49.1097 8.42554 48.2331 8.48352 47.3722 8.59221C47.3734 8.59151 47.3748 8.59081 47.3762 8.5901C47.3098 8.59855 47.2448 8.61076 47.1786 8.61968C46.96 8.64926 46.7419 8.68095 46.5257 8.71757C46.4208 8.73518 46.3168 8.75537 46.2125 8.77462C46.021 8.80983 45.8301 8.84716 45.6404 8.88754C45.5303 8.91125 45.4209 8.9359 45.3118 8.96102C45.127 9.00374 44.9437 9.04905 44.7608 9.09671C44.6538 9.12464 44.5467 9.15234 44.4404 9.18192C44.2509 9.23451 44.0633 9.29085 43.8762 9.3486C43.7809 9.37794 43.6849 9.40611 43.5901 9.43687C43.3659 9.50988 43.144 9.58735 42.9231 9.6674C42.8687 9.68712 42.813 9.70496 42.7588 9.72538C42.4844 9.82774 42.2128 9.93572 41.9437 10.0493C41.8738 10.0789 41.805 10.1113 41.7353 10.1416C41.5385 10.2273 41.3425 10.3144 41.1488 10.4059C41.0519 10.4517 40.9566 10.4998 40.8603 10.5473C40.6958 10.6283 40.5319 10.7104 40.3699 10.7956C40.2671 10.8494 40.1655 10.9048 40.0638 10.9604C39.91 11.0445 39.7574 11.1306 39.6058 11.2187C39.5041 11.2776 39.403 11.3367 39.3025 11.3973C39.1506 11.4891 39.0004 11.5835 38.8508 11.679C38.7564 11.7394 38.6614 11.799 38.5679 11.8607C38.4031 11.9697 38.2414 12.0826 38.0801 12.196C38.0059 12.2483 37.9303 12.2985 37.8569 12.3516C37.6284 12.5169 37.4036 12.6864 37.1824 12.8605C37.1136 12.9148 37.0472 12.9716 36.9791 13.0268C36.8249 13.1514 36.6711 13.2768 36.5204 13.4057C36.4305 13.4827 36.3427 13.5622 36.2542 13.6406C36.1286 13.7519 36.0035 13.8637 35.8807 13.978C35.7877 14.0644 35.6964 14.1524 35.6051 14.2404C35.4898 14.3515 35.376 14.4637 35.2633 14.5776C35.1722 14.6696 35.082 14.7618 34.9926 14.8555C34.8825 14.971 34.7745 15.0882 34.6672 15.206C34.5808 15.3008 34.4942 15.395 34.4097 15.4915C34.2994 15.6173 34.1921 15.7457 34.0846 15.8741C34.008 15.9657 33.9301 16.0558 33.855 16.1485C33.6979 16.3434 33.5446 16.5415 33.3944 16.742C33.3162 16.846 33.2413 16.9523 33.1653 17.0578C33.0601 17.2038 32.9549 17.3493 32.8535 17.4979C32.7793 17.6068 32.7082 17.7181 32.6359 17.8287C32.5514 17.9578 32.4671 18.0872 32.3854 18.2184C32.3122 18.3358 32.2413 18.4548 32.1704 18.5738C32.0941 18.7018 32.0189 18.8306 31.9455 18.9602C31.8762 19.0825 31.8081 19.2053 31.7412 19.329C31.6706 19.4598 31.602 19.5917 31.5344 19.7243C31.4703 19.8492 31.4062 19.9739 31.3447 20.1004C31.2778 20.2378 31.2142 20.377 31.1504 20.5162C31.0935 20.6399 31.0351 20.7627 30.9806 20.8878C30.9071 21.0564 30.8384 21.2275 30.7693 21.3984C30.6942 21.5846 30.6217 21.7719 30.5517 21.9609C30.4944 22.1156 30.4355 22.2693 30.3818 22.4257H30.3834C29.6582 24.538 29.2622 26.8032 29.2622 29.1615V39.468C29.2622 50.8765 38.3717 60.3362 49.7794 60.4543C53.447 60.4923 56.8979 59.5777 59.9002 57.9431C58.9948 58.0574 58.0715 58.1138 57.1336 58.1074C45.6944 58.0307 36.5406 48.5486 36.5406 37.1085Z" fill="#FFD59A"/>
<path d="M69.7978 19.3745H29.2695C24.7317 19.3745 21.053 15.6959 21.053 11.158V3.18876C21.053 1.76262 22.2092 0.606445 23.6354 0.606445H59.7033C65.2783 0.606445 69.7978 5.12597 69.7978 10.701V19.3745Z" fill="#A56021"/>
<path d="M39.2288 14.6794C34.5442 14.6794 30.7468 11.0007 30.7468 6.46291V0.606445H23.7189C22.2465 0.606445 21.0533 1.76262 21.0533 3.18876V11.158C21.0533 15.6959 24.8507 19.3745 29.5353 19.3745H69.798V14.6794H39.2288Z" fill="#8C4C17"/>
<path d="M65.8842 12.7438C65.1315 12.7438 64.5073 12.1487 64.4777 11.39C64.4029 9.4678 63.7955 7.9933 62.6725 7.00732C60.6317 5.21496 57.4362 5.44948 57.405 5.45324C56.6256 5.52484 55.9448 4.95274 55.8744 4.17804C55.804 3.40311 56.3749 2.71809 57.1496 2.64743C57.3287 2.631 61.5581 2.2798 64.5308 4.89029C66.2572 6.40611 67.1864 8.55601 67.2925 11.2804C67.3228 12.0579 66.7173 12.7124 65.9398 12.7427C65.9213 12.7436 65.9025 12.7438 65.8842 12.7438Z" fill="#BF6C0D"/>
<path d="M70.7366 99.3542C69.9589 99.3542 69.3281 98.7234 69.3281 97.9457V89.964C69.3281 89.1862 69.9589 88.5554 70.7366 88.5554C71.5143 88.5554 72.1451 89.1862 72.1451 89.964V97.9457C72.1451 98.7236 71.5143 99.3542 70.7366 99.3542Z" fill="#EAF6FA"/>
<path d="M83.7283 98.4153C83.682 98.4153 83.6353 98.4132 83.5879 98.4085C82.8139 98.3319 82.2484 97.6422 82.3249 96.868C83.6003 83.9731 78.1486 81.0037 78.0934 80.9753C77.391 80.6412 77.1023 79.8057 77.4363 79.1031C77.7706 78.4009 78.6209 78.1068 79.3233 78.4411C79.6217 78.5829 86.6172 82.0913 85.1283 97.1455C85.0565 97.8725 84.4438 98.4153 83.7283 98.4153Z" fill="white"/>
<path d="M39.8272 95.3326C41.8153 95.3326 43.4269 93.7209 43.4269 91.7328C43.4269 89.7447 41.8153 88.1331 39.8272 88.1331C37.8391 88.1331 36.2274 89.7447 36.2274 91.7328C36.2274 93.7209 37.8391 95.3326 39.8272 95.3326Z" fill="#EAF6FA"/>
<path d="M37.4796 11.2273C39.4677 11.2273 41.0794 9.61567 41.0794 7.62758C41.0794 5.63949 39.4677 4.02783 37.4796 4.02783C35.4915 4.02783 33.8799 5.63949 33.8799 7.62758C33.8799 9.61567 35.4915 11.2273 37.4796 11.2273Z" fill="#8C4C17"/>
</svg>
