<svg width="32" height="45" viewBox="0 0 32 45" fill="none" xmlns="http://www.w3.org/2000/svg">
<path d="M29.9303 6.44442H2.0697L3.77451 1.60438C4.11309 0.643038 5.02147 0 6.04066 0H25.9594C26.9786 0 27.887 0.643038 28.2255 1.60438L29.9303 6.44442Z" fill="#E36B49"/>
<path d="M9.88486 0H6.04066C5.02147 0 4.11309 0.643038 3.77451 1.60438L2.0697 6.44442H5.9139L7.61871 1.60438C7.95728 0.643038 8.86557 0 9.88486 0Z" fill="#BA3E1A"/>
<path d="M23.6538 45H8.34655C6.8552 45 5.61006 43.8627 5.47523 42.3775L2.54816 10.1326H29.4521L26.525 42.3775C26.3903 43.8627 25.145 45 23.6538 45Z" fill="#EAF6FA"/>
<path d="M9.31942 42.3775L6.39236 10.1325H2.54816L5.47523 42.3775C5.61006 43.8627 6.8552 45 8.34655 45H12.1908C10.6995 45 9.45426 43.8627 9.31942 42.3775Z" fill="#89CAC6"/>
<path d="M30.3639 10.1326H1.63623C0.999343 10.1326 0.482971 9.61627 0.482971 8.97938V6.61856C0.482971 5.98167 0.999343 5.4653 1.63623 5.4653H30.3639C31.0008 5.4653 31.5172 5.98167 31.5172 6.61856V8.97938C31.5172 9.61627 31.0009 10.1326 30.3639 10.1326Z" fill="#E36B49"/>
<path d="M4.54229 34.2187H27.458C27.8466 34.2187 28.1713 33.9165 28.2075 33.5212L29.3266 21.2693C29.3678 20.8185 29.0205 20.429 28.5772 20.429H3.42315C2.97982 20.429 2.63259 20.8185 2.67372 21.2693L3.79286 33.5212C3.829 33.9164 4.15364 34.2187 4.54229 34.2187Z" fill="#E36B49"/>
<path d="M16.5432 34.0682C20.2954 34.0682 23.3372 31.0264 23.3372 27.2742C23.3372 23.522 20.2954 20.4803 16.5432 20.4803C12.791 20.4803 9.74927 23.522 9.74927 27.2742C9.74927 31.0264 12.791 34.0682 16.5432 34.0682Z" fill="#89CAC6"/>
<path d="M4.32717 8.54066C4.32717 7.90377 4.84354 7.3874 5.48043 7.3874H31.5172V6.61856C31.5172 5.98167 31.0008 5.4653 30.3639 5.4653H1.63623C0.999343 5.4653 0.482971 5.98167 0.482971 6.61856V8.97938C0.482971 9.61627 0.999343 10.1326 1.63623 10.1326H4.32717V8.54066Z" fill="#BA3E1A"/>
<path d="M26.4161 32.6712C26.3986 32.6712 26.3809 32.6704 26.363 32.6688C26.0459 32.6398 25.8123 32.3592 25.8412 32.0421L26.7248 22.3675C26.7539 22.0503 27.0334 21.8165 27.3515 21.8457C27.6687 21.8746 27.9022 22.1553 27.8734 22.4724L26.9897 32.147C26.9623 32.4462 26.7109 32.6712 26.4161 32.6712Z" fill="white"/>
<path d="M27.6697 4.72058C27.3768 4.72058 27.126 4.49829 27.0965 4.20065C27.0251 3.47929 26.7609 2.95532 26.2889 2.59887C25.2609 1.82253 23.5633 2.10181 23.5465 2.10489C23.2326 2.1613 22.9331 1.95324 22.8766 1.63984C22.82 1.32644 23.0283 1.0265 23.3417 0.969987C23.4309 0.953937 25.5408 0.588738 26.9839 1.67857C27.7168 2.23204 28.1408 3.04239 28.2441 4.08705C28.2754 4.40401 28.044 4.68627 27.7271 4.7177C27.7078 4.71971 27.6886 4.72058 27.6697 4.72058Z" fill="white"/>
<path d="M26.7225 19.0361C26.7017 19.0361 26.6809 19.035 26.6599 19.0327C26.3434 18.9986 26.1143 18.7142 26.1484 18.3976L26.8344 12.0356C26.8686 11.7188 27.1539 11.49 27.4695 11.5241C27.7861 11.5583 28.0151 11.8426 27.981 12.1593L27.2951 18.5213C27.2632 18.8168 27.0132 19.0361 26.7225 19.0361Z" fill="white"/>
<path d="M22.2632 43.0367C22.2299 43.0367 22.1967 43.0363 22.1627 43.0354C21.8443 43.0273 21.5928 42.7628 21.6008 42.4444C21.6089 42.126 21.8755 41.8743 22.1919 41.8825C22.8789 41.8999 23.3591 41.6608 23.6484 41.1511C23.8881 40.7292 23.911 40.2756 23.9113 40.2711C23.9118 40.2606 23.9126 40.2465 23.9136 40.2361L24.2678 36.6927C24.2996 36.3758 24.5815 36.1444 24.899 36.1763C25.2159 36.208 25.4471 36.4906 25.4154 36.8074L25.0629 40.333C25.0234 41.2893 24.3887 43.0367 22.2632 43.0367Z" fill="white"/>
<path d="M11.7655 39.0393C12.5617 39.0393 13.2071 38.3939 13.2071 37.5977C13.2071 36.8016 12.5617 36.1561 11.7655 36.1561C10.9694 36.1561 10.324 36.8016 10.324 37.5977C10.324 38.3939 10.9694 39.0393 11.7655 39.0393Z" fill="#89CAC6"/>
<path d="M14.8667 42.8127C15.6628 42.8127 16.3083 42.1672 16.3083 41.3711C16.3083 40.5749 15.6628 39.9295 14.8667 39.9295C14.0705 39.9295 13.4251 40.5749 13.4251 41.3711C13.4251 42.1672 14.0705 42.8127 14.8667 42.8127Z" fill="#89CAC6"/>
<path d="M9.74944 4.25102C10.5456 4.25102 11.191 3.6056 11.191 2.80944C11.191 2.01328 10.5456 1.36787 9.74944 1.36787C8.95328 1.36787 8.30786 2.01328 8.30786 2.80944C8.30786 3.6056 8.95328 4.25102 9.74944 4.25102Z" fill="white"/>
<path d="M8.59811 33.5212L7.47897 21.2693C7.43784 20.8185 7.78506 20.429 8.2284 20.429H3.42315C2.97982 20.429 2.63259 20.8185 2.67372 21.2693L3.79286 33.5212C3.8289 33.9165 4.15364 34.2187 4.54229 34.2187H9.34754C8.95889 34.2187 8.63415 33.9165 8.59811 33.5212Z" fill="#BA3E1A"/>
</svg>
