<svg width="46" height="45" viewBox="0 0 46 45" fill="none" xmlns="http://www.w3.org/2000/svg">
<path d="M23 0C10.5736 0 0.5 10.0735 0.5 22.5C0.5 34.9265 10.5736 45 23 45C35.4264 45 45.5 34.9265 45.5 22.5C45.5 10.0735 35.4264 0 23 0ZM23 31.0752C18.2716 31.0752 14.4248 27.2284 14.4248 22.5C14.4248 17.7716 18.2716 13.9248 23 13.9248C27.7284 13.9248 31.5752 17.7716 31.5752 22.5C31.5752 27.2284 27.7284 31.0752 23 31.0752Z" fill="#FFB74B"/>
<path d="M40.1751 35.7273H39.6656C38.4631 35.7273 37.4883 34.7525 37.4883 33.55V24.3304H42.3525V33.55C42.3525 34.7526 41.3776 35.7273 40.1751 35.7273Z" fill="#E58D23"/>
<path d="M5.5636 22.5C5.5636 10.9297 14.2975 1.4009 25.5318 0.142591C24.7006 0.0495221 23.8562 0 23 0C10.5736 0 0.5 10.0735 0.5 22.5C0.5 34.9265 10.5736 45 23 45C23.8562 45 24.7006 44.9505 25.5318 44.8574C14.2975 43.5991 5.5636 34.0703 5.5636 22.5Z" fill="#E58D23"/>
<path d="M25.2752 44.7599H24.7657C23.5632 44.7599 22.5884 43.785 22.5884 42.5825V33.3629H27.4526V42.5825C27.4526 43.785 26.4777 44.7599 25.2752 44.7599Z" fill="#E58D23"/>
<path d="M15.4337 41.9377H14.9242C13.7217 41.9377 12.7468 40.9629 12.7468 39.7604V32.3269H17.611V39.7604C17.611 40.9629 16.6362 41.9377 15.4337 41.9377Z" fill="#E58D23"/>
<path d="M41.6098 35.7679H41.1003C39.8978 35.7679 38.923 34.7931 38.923 33.5906V21.7411H43.7872V33.5907C43.7872 34.7931 42.8123 35.7679 41.6098 35.7679Z" fill="#89CAC6"/>
<path d="M43.6632 20.6435C42.9545 9.80961 33.9168 1.21182 22.9068 1.21182C12.175 1.21182 3.31716 9.38093 2.22008 19.827C2.14473 20.3398 2.10352 20.8636 2.10352 21.3974C2.10352 27.3154 6.90107 32.1129 12.8191 32.1129C14.6522 32.1129 18.0495 32.4392 18.3165 33.2312C19.775 37.5574 24.4645 39.8821 28.7907 38.4236C31.2172 37.6055 33.0135 35.7709 33.8664 33.5541C34.7775 33.495 35.6959 33.3183 36.6021 33.0128C41.8092 31.2572 44.7786 25.891 43.6632 20.6435ZM22.9068 30.5902C18.1708 30.5902 14.3315 26.7509 14.3315 22.0149C14.3315 17.2789 18.1708 13.4396 22.9068 13.4396C27.6428 13.4396 31.4821 17.2789 31.4821 22.0149C31.4821 26.7509 27.6428 30.5902 22.9068 30.5902Z" fill="#89CAC6"/>
<path d="M5.56366 22.5C5.56366 13.5841 10.7505 5.88157 18.2706 2.24033C9.76189 4.22648 3.24413 11.4491 2.31334 20.312C2.23799 20.8248 2.19678 21.3486 2.19678 21.8823C2.19678 25.7034 4.1972 29.0568 7.20761 30.954C6.14841 28.3438 5.56366 25.4905 5.56366 22.5Z" fill="#EAF6FA"/>
<path d="M42.1434 34.0734C41.8079 34.0734 41.5358 33.8012 41.5358 33.4657V29.2464C41.5358 28.9109 41.8079 28.6388 42.1434 28.6388C42.4789 28.6388 42.751 28.9109 42.751 29.2464V33.4657C42.751 33.8013 42.4789 34.0734 42.1434 34.0734Z" fill="#EAF6FA"/>
<path d="M41.0542 20.1567C41.0439 20.1567 41.0336 20.1565 41.0231 20.1559C40.6879 20.139 40.43 19.8536 40.4469 19.5184C40.7813 12.8928 32.955 7.08287 32.876 7.02494C32.6052 6.82675 32.5465 6.44647 32.7448 6.17567C32.9431 5.90497 33.3231 5.84603 33.5939 6.04442C33.6798 6.10721 35.7195 7.6114 37.7423 10.0145C40.4587 13.2415 41.8137 16.5491 41.6607 19.5796C41.6442 19.9044 41.3758 20.1567 41.0542 20.1567Z" fill="#EAF6FA"/>
<path d="M14.4271 17.0498C14.3487 17.0498 14.2689 17.0346 14.1919 17.0021C13.8825 16.8721 13.7372 16.5158 13.8672 16.2066C13.8904 16.1515 14.449 14.8432 15.7178 13.6068C16.9012 12.4534 18.9474 11.1453 21.974 11.4619C22.3078 11.4969 22.5501 11.7958 22.5151 12.1295C22.4802 12.4633 22.1817 12.7052 21.8475 12.6706C16.9464 12.1563 15.0065 16.6322 14.9875 16.6775C14.8899 16.9099 14.6644 17.0498 14.4271 17.0498Z" fill="#EAF6FA"/>
<path d="M7.89571 21.9923C8.70862 21.9923 9.3676 21.3333 9.3676 20.5204C9.3676 19.7075 8.70862 19.0486 7.89571 19.0486C7.08281 19.0486 6.42383 19.7075 6.42383 20.5204C6.42383 21.3333 7.08281 21.9923 7.89571 21.9923Z" fill="#EAF6FA"/>
<path d="M10.8394 27.1551C11.6523 27.1551 12.3113 26.4961 12.3113 25.6832C12.3113 24.8703 11.6523 24.2113 10.8394 24.2113C10.0265 24.2113 9.36755 24.8703 9.36755 25.6832C9.36755 26.4961 10.0265 27.1551 10.8394 27.1551Z" fill="#EAF6FA"/>
<path d="M30.8193 32.4741C31.6322 32.4741 32.2912 31.8151 32.2912 31.0022C32.2912 30.1893 31.6322 29.5303 30.8193 29.5303C30.0064 29.5303 29.3474 30.1893 29.3474 31.0022C29.3474 31.8151 30.0064 32.4741 30.8193 32.4741Z" fill="#EAF6FA"/>
<path d="M26.5918 44.8612H26.0823C24.8798 44.8612 23.9049 43.8863 23.9049 42.6838V33.1907H28.7691V42.6838C28.7691 43.8863 27.7943 44.8612 26.5918 44.8612Z" fill="#89CAC6"/>
<path d="M16.7502 41.9567H16.2407C15.0382 41.9567 14.0634 40.9818 14.0634 39.7793V32.1152H18.9275V39.7793C18.9275 40.9818 17.9527 41.9567 16.7502 41.9567Z" fill="#89CAC6"/>
<path d="M35.6386 27.4579C36.4515 27.4579 37.1105 26.7989 37.1105 25.986C37.1105 25.1731 36.4515 24.5141 35.6386 24.5141C34.8257 24.5141 34.1667 25.1731 34.1667 25.986C34.1667 26.7989 34.8257 27.4579 35.6386 27.4579Z" fill="#EAF6FA"/>
</svg>
