<svg width="29" height="45" viewBox="0 0 29 45" fill="none" xmlns="http://www.w3.org/2000/svg">
<path d="M26.7032 17.5494C26.814 16.9428 26.8726 16.32 26.8726 15.6847C26.8726 9.45875 21.3332 4.41172 14.4999 4.41172C7.66668 4.41172 2.12726 9.45885 2.12726 15.6847C2.12726 16.32 2.1858 16.9428 2.29667 17.5494H26.7032Z" fill="#EAF6FA"/>
<path d="M14.5284 40.3383H14.4717C13.7684 40.3383 13.1984 39.7682 13.1984 39.0649V1.27335C13.1984 0.570073 13.7684 0 14.4717 0H14.5284C15.2317 0 15.8017 0.570073 15.8017 1.27335V39.0649C15.8016 39.7682 15.2316 40.3383 14.5284 40.3383Z" fill="#FF9079"/>
<path d="M14.5685 39.0366V1.30173C14.5685 0.834602 14.8154 0.42602 15.1851 0.196464C14.9859 0.0727765 14.7517 9.15527e-05 14.5 9.15527e-05C13.7811 9.15527e-05 13.1984 0.582891 13.1984 1.30173V39.0366C13.1984 39.7556 13.7812 40.3383 14.5 40.3383C14.7517 40.3383 14.9859 40.2656 15.1851 40.1419C14.8154 39.9123 14.5685 39.5038 14.5685 39.0366Z" fill="#E36B49"/>
<path d="M5.98211 16.6483C5.98211 10.4224 11.5215 5.37539 18.3548 5.37539C18.797 5.37539 19.2337 5.39697 19.6638 5.43817C18.0921 4.77958 16.3432 4.41172 14.4999 4.41172C7.66668 4.41172 2.12726 9.45875 2.12726 15.6847C2.12726 16.32 2.1858 16.9428 2.29667 17.5494H6.0218C5.99587 17.2522 5.98211 16.9518 5.98211 16.6483Z" fill="#89CAC6"/>
<path d="M20.3268 45H8.67315C7.62841 45 6.73149 44.2371 6.53757 43.1836L2.12726 19.2256H26.8726L22.4623 43.1836C22.2683 44.2371 21.3714 45 20.3268 45Z" fill="#EAF6FA"/>
<path d="M10.9706 43.1835L6.56029 19.2255H2.12726L6.53757 43.1835C6.73149 44.2371 7.62841 44.9999 8.67315 44.9999H13.1062C12.0614 44.9999 11.1645 44.2371 10.9706 43.1835Z" fill="#89CAC6"/>
<path d="M8.67322 43.1091C8.5419 43.1091 8.42594 42.9964 8.39737 42.8412L4.39819 21.1165H24.602L20.6028 42.8412C20.5742 42.9964 20.4582 43.1091 20.3269 43.1091H8.67322Z" fill="#BF6C0D"/>
<path d="M27.6579 19.7982H1.34203C0.821355 19.7982 0.399292 19.3762 0.399292 18.8555V16.7347C0.399292 16.214 0.821355 15.792 1.34203 15.792H27.658C28.1787 15.792 28.6008 16.214 28.6008 16.7347V18.8555C28.6007 19.3762 28.1786 19.7982 27.6579 19.7982Z" fill="#EAF6FA"/>
<path d="M24.6018 15.9914H4.39807V21.3159H24.6018V15.9914Z" fill="#FFD59A"/>
<path d="M21.2554 13.3047C22.0496 11.3229 21.0477 9.3789 20.3132 8.3253C19.9975 7.87241 19.2574 7.72063 18.6984 7.99657C18.3914 8.14816 18.2016 8.40506 18.1714 8.68712C17.9025 11.2006 10.9533 11.1226 10.9533 11.1226C7.28019 11.1226 4.31274 13.4748 4.39995 16.3502C4.48102 19.0253 7.25248 21.2205 10.6863 21.3268C13.1193 21.402 15.2708 20.4434 16.4796 18.9705C17.3631 19.8199 18.7381 20.3466 20.2683 20.2866C22.6212 20.1943 24.518 18.692 24.599 16.8587C24.6738 15.1687 23.2341 13.7319 21.2554 13.3047Z" fill="#FFD59A"/>
<path d="M4.39807 21.1164L8.39725 42.8411C8.42582 42.9964 8.54187 43.109 8.6731 43.109H10.9569L6.90839 21.1164H4.39807Z" fill="#A56021"/>
<path d="M24.6018 15.9913H4.39807V19.7982H4.44681V18.4904C4.44681 17.9581 4.8783 17.5267 5.41048 17.5267H24.6018V15.9913H24.6018Z" fill="#FFC500"/>
<path d="M6.56033 19.2256L6.33247 17.5266H4.39807V19.2256V19.9408V21.3159H6.94516L6.56033 19.2256Z" fill="#FFC34C"/>
<path d="M20.6509 29.7873C20.617 29.7873 20.5825 29.7842 20.5479 29.7779C20.2407 29.7214 20.0374 29.4265 20.0941 29.1192L20.5365 26.7156C20.5931 26.4084 20.8879 26.2052 21.1952 26.2618C21.5024 26.3184 21.7057 26.6133 21.649 26.9205L21.2066 29.3241C21.1563 29.5966 20.9185 29.7873 20.6509 29.7873Z" fill="#E58D23"/>
<path d="M18.6758 40.5158C18.6419 40.5158 18.6074 40.5127 18.5728 40.5064C18.2656 40.4498 18.0623 40.1549 18.119 39.8477L19.736 31.0632C19.7926 30.7559 20.0877 30.5529 20.3947 30.6093C20.702 30.6659 20.9052 30.9608 20.8486 31.268L19.2315 40.0525C19.1813 40.3251 18.9435 40.5158 18.6758 40.5158Z" fill="#E58D23"/>
<path d="M11.6606 37.7822C12.459 37.7822 13.1062 37.135 13.1062 36.3366C13.1062 35.5382 12.459 34.891 11.6606 34.891C10.8622 34.891 10.215 35.5382 10.215 36.3366C10.215 37.135 10.8622 37.7822 11.6606 37.7822Z" fill="#A56021"/>
<path d="M14.2414 41.3763C15.0397 41.3763 15.687 40.7291 15.687 39.9307C15.687 39.1323 15.0397 38.4851 14.2414 38.4851C13.443 38.4851 12.7958 39.1323 12.7958 39.9307C12.7958 40.7291 13.443 41.3763 14.2414 41.3763Z" fill="#A56021"/>
<path d="M25.3575 14.6223C25.0531 14.6223 24.8017 14.3803 24.7924 14.0739C24.7054 11.2251 21.8606 9.29189 21.8318 9.27276C21.5724 9.09939 21.502 8.74841 21.6749 8.48868C21.8478 8.22896 22.198 8.15797 22.4581 8.33068C22.5953 8.42165 25.818 10.5992 25.923 14.0394C25.9326 14.3517 25.6872 14.6125 25.3749 14.622C25.3692 14.6222 25.3633 14.6223 25.3575 14.6223Z" fill="white"/>
<path d="M6.01739 17.8584C5.92953 14.9831 8.92017 12.6309 12.6217 12.6309C12.6217 12.6309 19.6249 12.7089 19.896 10.1955C19.9264 9.91344 20.1176 9.65645 20.427 9.50495C20.567 9.43632 20.7182 9.39428 20.8714 9.37665C20.6492 8.89236 20.3884 8.47002 20.1543 8.13685C19.8361 7.68396 19.0902 7.53218 18.5269 7.80812C18.2175 7.95962 18.0262 8.21661 17.9959 8.49868C17.7248 11.0121 10.7216 10.934 10.7216 10.934C7.01999 10.934 4.02944 13.2863 4.11731 16.1616C4.1668 17.7828 5.21324 19.2269 6.79958 20.1374C6.3234 19.4536 6.04247 18.6788 6.01739 17.8584Z" fill="#FFC34C"/>
<path d="M4.44684 18.4904C4.44684 17.9581 4.87833 17.5267 5.4105 17.5267H28.6007V16.7557C28.6007 16.2234 28.1692 15.7921 27.637 15.7921H1.36296C0.830688 15.7921 0.399292 16.2234 0.399292 16.7557V18.8345C0.399292 19.3667 0.830782 19.7982 1.36296 19.7982H4.44684V18.4904Z" fill="#89CAC6"/>
<path d="M25.3899 19.5829H5.28049C4.96816 19.5829 4.71484 19.3296 4.71484 19.0173C4.71484 18.7049 4.96816 18.4516 5.28049 18.4516H25.3899C25.7022 18.4516 25.9555 18.7049 25.9555 19.0173C25.9555 19.3296 25.7023 19.5829 25.3899 19.5829Z" fill="#EAF6FA"/>
</svg>
