<svg width="43" height="45" viewBox="0 0 43 45" fill="none" xmlns="http://www.w3.org/2000/svg">
<path d="M34.4842 6.01479H8.48096L10.0721 1.49742C10.3881 0.600169 11.2359 0 12.1872 0H30.778C31.7292 0 32.5771 0.600169 32.8931 1.49742L34.4842 6.01479Z" fill="#E36B49"/>
<path d="M15.7751 0H12.1872C11.2359 0 10.3881 0.600169 10.0721 1.49742L8.48096 6.01479H12.0689L13.66 1.49742C13.976 0.600169 14.8238 0 15.7751 0Z" fill="#BA3E1A"/>
<path d="M28.6261 42H14.3393C12.9474 42 11.7853 40.9385 11.6594 39.5523L8.92749 9.45712H34.0378L31.3059 39.5523C31.1801 40.9385 30.0179 42 28.6261 42Z" fill="#EAF6FA"/>
<path d="M15.2473 39.5523L12.5154 9.45703H8.92749L11.6594 39.5523C11.7853 40.9385 12.9474 42 14.3393 42H17.9272C16.5354 42 15.3732 40.9385 15.2473 39.5523Z" fill="#89CAC6"/>
<path d="M34.8889 9.45713H8.07638C7.48195 9.45713 7 8.97518 7 8.38075V6.17732C7 5.58289 7.48195 5.10094 8.07638 5.10094H34.8889C35.4833 5.10094 35.9653 5.58289 35.9653 6.17732V8.38075C35.9653 8.97518 35.4834 9.45713 34.8889 9.45713Z" fill="#E36B49"/>
<path d="M10.7887 31.9374H32.1767C32.5394 31.9374 32.8425 31.6554 32.8762 31.2865L33.9207 19.8513C33.9592 19.4306 33.6351 19.0671 33.2213 19.0671H9.74418C9.33041 19.0671 9.00633 19.4306 9.04472 19.8513L10.0892 31.2865C10.123 31.6553 10.426 31.9374 10.7887 31.9374Z" fill="#E36B49"/>
<path d="M21.9896 31.7969C25.4916 31.7969 28.3306 28.958 28.3306 25.4559C28.3306 21.9539 25.4916 19.1149 21.9896 19.1149C18.4875 19.1149 15.6486 21.9539 15.6486 25.4559C15.6486 28.958 18.4875 31.7969 21.9896 31.7969Z" fill="#89CAC6"/>
<path d="M10.5879 7.97128C10.5879 7.37685 11.0699 6.8949 11.6643 6.8949H35.9653V6.17732C35.9653 5.58289 35.4833 5.10094 34.8889 5.10094H8.07638C7.48195 5.10094 7 5.58289 7 6.17732V8.38075C7 8.97518 7.48195 9.45713 8.07638 9.45713H10.5879V7.97128Z" fill="#BA3E1A"/>
<path d="M31.2043 30.4931C31.1879 30.4931 31.1714 30.4924 31.1547 30.4908C30.8587 30.4638 30.6407 30.2019 30.6677 29.9059L31.4924 20.8763C31.5195 20.5803 31.7804 20.3621 32.0773 20.3893C32.3733 20.4163 32.5913 20.6782 32.5644 20.9743L31.7396 30.0039C31.7141 30.2831 31.4794 30.4931 31.2043 30.4931Z" fill="white"/>
<path d="M32.3743 4.40588C32.1009 4.40588 31.8668 4.1984 31.8393 3.92061C31.7727 3.24734 31.5261 2.7583 31.0855 2.42561C30.1261 1.70103 28.5416 1.9617 28.5259 1.96457C28.233 2.01722 27.9534 1.82302 27.9007 1.53052C27.8479 1.23801 28.0423 0.958066 28.3348 0.905323C28.418 0.890344 30.3873 0.549491 31.7342 1.56667C32.4182 2.08324 32.814 2.83957 32.9104 3.81459C32.9396 4.11041 32.7236 4.37385 32.4278 4.40319C32.4099 4.40507 32.3919 4.40588 32.3743 4.40588Z" fill="white"/>
<path d="M31.4902 17.767C31.4708 17.767 31.4514 17.766 31.4318 17.7639C31.1363 17.732 30.9226 17.4666 30.9544 17.1711L31.5946 11.2332C31.6265 10.9376 31.8929 10.724 32.1874 10.7559C32.4829 10.7877 32.6966 11.0531 32.6648 11.3487L32.0246 17.2865C31.9948 17.5623 31.7615 17.767 31.4902 17.767Z" fill="white"/>
<path d="M27.3282 40.1676C27.2972 40.1676 27.2661 40.1672 27.2344 40.1664C26.9372 40.1589 26.7025 39.9119 26.71 39.6147C26.7175 39.3176 26.9664 39.0827 27.2617 39.0904C27.9029 39.1066 28.351 38.8834 28.6211 38.4077C28.8448 38.0139 28.8662 37.5905 28.8664 37.5863C28.8669 37.5765 28.8677 37.5634 28.8686 37.5537L29.1992 34.2465C29.2288 33.9508 29.492 33.7348 29.7883 33.7646C30.0841 33.7942 30.2998 34.0579 30.2703 34.3536L29.9413 37.6442C29.9044 38.5367 29.3121 40.1676 27.3282 40.1676Z" fill="white"/>
<path d="M17.5304 36.4367C18.2735 36.4367 18.8759 35.8343 18.8759 35.0912C18.8759 34.3481 18.2735 33.7457 17.5304 33.7457C16.7873 33.7457 16.1849 34.3481 16.1849 35.0912C16.1849 35.8343 16.7873 36.4367 17.5304 36.4367Z" fill="#89CAC6"/>
<path d="M20.4248 39.9585C21.1679 39.9585 21.7703 39.3561 21.7703 38.613C21.7703 37.8699 21.1679 37.2675 20.4248 37.2675C19.6817 37.2675 19.0793 37.8699 19.0793 38.613C19.0793 39.3561 19.6817 39.9585 20.4248 39.9585Z" fill="#89CAC6"/>
<path d="M15.6487 3.96761C16.3918 3.96761 16.9942 3.36522 16.9942 2.62214C16.9942 1.87906 16.3918 1.27667 15.6487 1.27667C14.9056 1.27667 14.3032 1.87906 14.3032 2.62214C14.3032 3.36522 14.9056 3.96761 15.6487 3.96761Z" fill="white"/>
<path d="M14.5741 31.2865L13.5296 19.8513C13.4912 19.4306 13.8153 19.0671 14.2291 19.0671H9.74418C9.33041 19.0671 9.00633 19.4306 9.04472 19.8513L10.0892 31.2865C10.1229 31.6554 10.426 31.9374 10.7887 31.9374H15.2736C14.9109 31.9374 14.6078 31.6554 14.5741 31.2865Z" fill="#BA3E1A"/>
<path d="M42.2209 41.0419C40.4631 38.2647 38.8737 36.9312 38.2502 36.4733C38.1746 36.4142 38.0954 36.3591 38.0126 36.3082C37.9852 36.2905 37.9707 36.2818 37.9707 36.2818C35.1298 34.1217 32.253 34.0792 32.253 34.0792C30.2843 33.7649 28.3499 34.4113 27.9323 35.5231C27.9134 35.5734 27.8991 35.6238 27.887 35.6743L27.8762 35.6726L26.2848 39.9096L26.2865 39.9099C25.5688 41.9783 26.5223 43.8809 28.4557 44.1896C28.8426 44.2514 29.2399 44.2437 29.6347 44.1771L29.6344 44.1781C29.6344 44.1781 34.778 43.4574 38.4205 44.836L38.4598 44.7969C38.6421 44.8798 38.8433 44.9399 39.0617 44.9723C40.41 45.1728 41.8939 44.2622 42.3761 42.9382C42.6328 42.2334 42.554 41.5538 42.2209 41.0419Z" fill="#A56021"/>
<path d="M42.2209 41.0419C42.1753 40.9699 42.13 40.8995 42.0847 40.8295C41.4382 41.8266 40.2016 42.4513 39.0618 42.2818C38.8433 42.2493 38.6421 42.1893 38.4599 42.1064L38.4205 42.1456C37.4565 41.7807 36.3873 41.563 35.3361 41.4398C35.5108 41.1103 35.6603 40.7606 35.7775 40.3907L35.7799 40.3914L37.1299 35.702C34.5892 34.1145 32.253 34.0792 32.253 34.0792C30.2844 33.7649 28.3499 34.4113 27.9324 35.5231C27.9135 35.5734 27.8992 35.6239 27.8871 35.6743L27.8762 35.6726L26.2849 39.9095L26.2866 39.9098C26.2665 39.9676 26.2483 40.0252 26.2308 40.0827C26.2256 40.0997 26.2207 40.1168 26.2157 40.1339C26.2033 40.1767 26.1916 40.2195 26.1806 40.262C26.1763 40.2786 26.1718 40.2952 26.1677 40.3117C26.1542 40.3666 26.1417 40.4214 26.1305 40.4758C26.1272 40.4922 26.1244 40.5083 26.1213 40.5245C26.1138 40.5636 26.1067 40.6026 26.1004 40.6416C26.0966 40.6648 26.093 40.688 26.0896 40.7111C26.0849 40.744 26.0807 40.7767 26.0767 40.8094C26.0739 40.8327 26.0708 40.8561 26.0684 40.8792C26.0635 40.9265 26.0597 40.9735 26.0566 41.0203C26.0547 41.0502 26.0535 41.0798 26.0523 41.1094C26.0514 41.1311 26.0506 41.1527 26.0501 41.1743C26.0493 41.2064 26.0487 41.2384 26.0488 41.2703C26.0488 41.2849 26.0493 41.2992 26.0495 41.3138C26.0505 41.3873 26.0534 41.4601 26.0588 41.5321C26.059 41.5349 26.0592 41.5377 26.0593 41.5404C26.0623 41.5787 26.0661 41.6166 26.0703 41.6544C26.0712 41.6625 26.0722 41.6707 26.073 41.6787C26.0875 41.8003 26.1081 41.9194 26.1351 42.0355C26.1351 42.0355 26.1351 42.0355 26.1351 42.0356C26.3947 43.1528 27.2268 43.9934 28.4557 44.1896C28.6155 44.2152 28.7772 44.2282 28.9397 44.2307C28.9464 44.2308 28.9531 44.2308 28.9598 44.2309C29.0313 44.2316 29.1028 44.2307 29.1746 44.2271C29.1754 44.2271 29.1761 44.2271 29.1769 44.227C29.2465 44.2235 29.3161 44.2178 29.3857 44.2105C29.4001 44.209 29.4145 44.2074 29.429 44.2057C29.4976 44.1977 29.5662 44.1887 29.6347 44.1771L29.6343 44.1781C29.6343 44.1781 29.6357 44.1779 29.6382 44.1775H29.6384C29.719 44.1665 31.0177 43.9923 32.7441 43.9899C34.4719 43.9876 36.6278 44.1575 38.4204 44.836L38.4598 44.7968C38.642 44.8797 38.8433 44.9398 39.0617 44.9722C40.41 45.1728 41.8938 44.2621 42.3761 42.9381C42.6328 42.2334 42.554 41.5538 42.2209 41.0419Z" fill="#8C4C17"/>
<path d="M35.8337 33.9744C36.3018 32.3479 34.3838 30.3681 31.5495 29.5521C28.7152 28.7363 26.0381 29.3933 25.5699 31.0198C25.5487 31.0934 25.5341 31.1679 25.5225 31.2429L25.5069 31.2384L23.7226 37.4369L23.725 37.4376C22.9379 40.4738 24.5082 43.5417 27.2917 44.343C30.0752 45.1442 33.0363 43.3808 33.9839 40.3909L33.9863 40.3916L35.7707 34.1931L35.7552 34.1886C35.7851 34.1189 35.8124 34.048 35.8337 33.9744Z" fill="#BF6C0D"/>
<path d="M28.9122 41.9701C30.047 40.8755 30.7638 39.3889 30.8141 37.7428H30.8173V30.7706H30.7972C30.8091 30.6893 30.8173 30.6075 30.8173 30.5248C30.8173 30.0883 30.6468 29.672 30.3401 29.2905C28.5182 29.024 26.8959 29.3736 26.0716 30.1924C26.0715 30.1925 26.0713 30.1927 26.0712 30.1928C26.0454 30.2184 26.0208 30.2447 25.9966 30.2712C25.9915 30.2769 25.9861 30.2825 25.9811 30.2881C25.9594 30.3124 25.9387 30.3372 25.9183 30.3622C25.9112 30.371 25.9041 30.3797 25.8971 30.3885C25.8789 30.4118 25.8612 30.4354 25.8442 30.4592C25.8358 30.4709 25.8277 30.4825 25.8196 30.4944C25.8044 30.5165 25.7897 30.5388 25.7756 30.5614C25.7665 30.5761 25.7577 30.591 25.749 30.6059C25.7368 30.6267 25.7247 30.6475 25.7134 30.6687C25.7036 30.687 25.6946 30.7055 25.6854 30.7241C25.6762 30.7429 25.6666 30.7617 25.658 30.7809C25.6474 30.8044 25.6379 30.8284 25.6283 30.8523C25.6223 30.8675 25.6157 30.8825 25.61 30.8978C25.5953 30.9378 25.5818 30.9784 25.5699 31.0197C25.5488 31.0933 25.5341 31.1678 25.5226 31.2428L25.507 31.2383L23.7226 37.4368L23.725 37.4376C23.7024 37.5246 23.6824 37.6117 23.6636 37.6989C23.6577 37.7264 23.6526 37.7538 23.647 37.7813C23.6348 37.8416 23.6234 37.9021 23.613 37.9624C23.6077 37.9935 23.6027 38.0247 23.5978 38.0558C23.5886 38.1146 23.5805 38.1733 23.573 38.2321C23.5693 38.2613 23.5653 38.2905 23.562 38.3198C23.5539 38.3918 23.5472 38.4636 23.5417 38.5354C23.5405 38.5502 23.5388 38.5649 23.5378 38.5795C23.5317 38.6651 23.5278 38.7506 23.5252 38.8357C23.5244 38.8619 23.5245 38.888 23.5241 38.9141C23.5231 38.9739 23.5227 39.0335 23.5234 39.0929C23.5238 39.1246 23.5247 39.1563 23.5256 39.1879C23.5271 39.2428 23.5295 39.2976 23.5324 39.3522C23.5341 39.3837 23.5357 39.4151 23.538 39.4464C23.5422 39.5064 23.5477 39.566 23.5536 39.6255C23.556 39.6498 23.5579 39.6743 23.5606 39.6985C23.5697 39.7797 23.5805 39.8604 23.5928 39.9407C23.5968 39.9669 23.6017 39.9929 23.6061 40.0191C23.6155 40.0746 23.6251 40.1301 23.6359 40.1852C23.6424 40.2183 23.6495 40.2512 23.6565 40.2842C23.6668 40.3325 23.6777 40.3804 23.6892 40.4281C23.6973 40.4621 23.7055 40.4959 23.7143 40.5296C23.7268 40.5781 23.7403 40.6261 23.754 40.674C23.7629 40.7051 23.7713 40.7364 23.7807 40.7674C23.8031 40.8413 23.8268 40.9146 23.8521 40.9873C23.862 41.0157 23.873 41.0436 23.8833 41.0718C23.9006 41.1192 23.918 41.1664 23.9365 41.2132C23.9502 41.2479 23.9647 41.2823 23.9791 41.3166C23.9957 41.3564 24.0125 41.3959 24.03 41.4352C24.0458 41.4706 24.0618 41.5059 24.0783 41.5409C24.0961 41.5788 24.1146 41.6164 24.1332 41.654C24.1504 41.6884 24.1672 41.723 24.1851 41.7571C24.2065 41.7981 24.229 41.8384 24.2514 41.8788C24.2819 41.9339 24.3134 41.9883 24.3457 42.0421C24.3677 42.0788 24.3895 42.1156 24.4123 42.1517C24.4343 42.1865 24.4571 42.2206 24.4798 42.2547C24.5006 42.2859 24.5214 42.3171 24.5427 42.3478C24.5667 42.3825 24.5913 42.4168 24.6161 42.4509C24.6374 42.4801 24.659 42.5089 24.6809 42.5376C24.7067 42.5716 24.7325 42.6055 24.7592 42.6388C24.7811 42.6663 24.8038 42.6931 24.8263 42.7201C24.8777 42.7818 24.9305 42.8423 24.9845 42.9015C25.0066 42.9256 25.0282 42.9502 25.0507 42.9739C25.0811 43.0059 25.1124 43.037 25.1436 43.0683C25.1675 43.0921 25.1911 43.1161 25.2154 43.1394C25.2473 43.17 25.2796 43.2001 25.3122 43.23C25.337 43.2526 25.3621 43.275 25.3873 43.2972C25.4206 43.3265 25.454 43.3557 25.4881 43.3841C25.5134 43.4052 25.5393 43.4256 25.5651 43.4462C25.6517 43.5157 25.7401 43.5828 25.8314 43.6465C25.8343 43.6485 25.8371 43.6506 25.8398 43.6527C26.2745 43.9544 26.7608 44.1902 27.2917 44.343C30.0752 45.1443 33.0363 43.3808 33.984 40.3909L33.9864 40.3916L34.287 39.3473C33.0971 41.2237 31.0017 42.2842 28.9122 41.9701Z" fill="#A56021"/>
<path d="M0.915866 39.5776C2.98396 37.023 4.71729 35.8828 5.38968 35.5004C5.47164 35.4505 5.55665 35.405 5.64471 35.364C5.67395 35.3496 5.68946 35.3426 5.68946 35.3426C8.76164 33.5267 11.6241 33.8182 11.6241 33.8182C13.6159 33.7343 15.4623 34.6008 15.7481 35.7534C15.761 35.8056 15.7693 35.8574 15.7755 35.9089L15.7864 35.9084L16.8756 40.3014L16.8738 40.3015C17.3468 42.4393 16.179 44.2183 14.2229 44.3008C13.8314 44.3173 13.4377 44.2635 13.0532 44.1515L13.0535 44.1525C13.0535 44.1525 8.02819 42.84 4.25035 43.7868L4.21583 43.7434C4.02518 43.8046 3.81838 43.8409 3.5976 43.8478C2.23526 43.8906 0.866993 42.8139 0.541561 41.443C0.368488 40.7132 0.525689 40.0474 0.915866 39.5776Z" fill="#FFC34C"/>
<path d="M16.9132 41.6103C16.5218 41.6268 16.128 41.573 15.7437 41.4611L15.744 41.4621C15.744 41.4621 10.7186 40.1496 6.9408 41.0964L6.90628 41.053C6.71563 41.1142 6.50883 41.1505 6.28805 41.1574C4.92571 41.2002 3.55744 40.1235 3.23201 38.7526C3.05885 38.023 3.21596 37.357 3.60623 36.8872C3.69752 36.7744 3.78791 36.6654 3.87794 36.558C3.06773 37.2163 2.04175 38.187 0.915968 39.5775C0.525701 40.0473 0.36859 40.7132 0.541753 41.4428C0.867185 42.8138 2.23545 43.8904 3.5978 43.8476C3.81858 43.8407 4.02537 43.8044 4.21602 43.7433L4.25054 43.7867C8.02829 42.8399 13.0537 44.1523 13.0537 44.1523L13.0534 44.1514C13.4378 44.2634 13.8315 44.3171 14.223 44.3006C15.7619 44.2357 16.8123 43.1205 16.9603 41.607C16.9445 41.6079 16.9291 41.6097 16.9132 41.6103Z" fill="#F9BB32"/>
<path d="M7.35014 33.9744C6.88194 32.3479 8.80001 30.3681 11.6343 29.5521C14.4686 28.7363 17.1457 29.3933 17.6139 31.0198C17.6351 31.0934 17.6497 31.1679 17.6613 31.2429L17.6769 31.2384L19.4612 37.4369L19.4588 37.4376C20.2459 40.4738 18.6756 43.5417 15.8921 44.343C13.1085 45.1442 10.1475 43.3808 9.19987 40.3909L9.19745 40.3916L7.41309 34.1931L7.4286 34.1886C7.39865 34.1189 7.37139 34.048 7.35014 33.9744Z" fill="#F9BB32"/>
<path d="M14.9672 30.5248C14.9672 28.6954 17.9332 27.2123 21.592 27.2123C25.2507 27.2123 28.2167 28.6954 28.2167 30.5248C28.2167 30.6076 28.2086 30.6895 28.1967 30.7707H28.2167V37.7429H28.2136C28.1099 41.132 25.1852 43.8491 21.5919 43.8491C17.9986 43.8491 15.0738 41.1319 14.9702 37.7429H14.967V30.7707H14.9871C14.9754 30.6895 14.9672 30.6076 14.9672 30.5248Z" fill="#DB9C2E"/>
<path d="M16.7888 41.6526C14.0053 42.454 11.0443 40.6904 10.0967 37.7006L10.0942 37.7013L8.30987 31.5027L8.32539 31.4983C8.31418 31.4723 8.30395 31.446 8.29373 31.4197C7.49168 32.2298 7.11217 33.1477 7.35017 33.9744C7.37133 34.048 7.39859 34.1189 7.42863 34.1885L7.41312 34.193L9.19748 40.3915L9.1999 40.3908C10.1475 43.3807 13.1086 45.1442 15.8921 44.3429C18.0366 43.7256 19.4596 41.7624 19.6406 39.5054C18.9831 40.5244 18.0013 41.3036 16.7888 41.6526Z" fill="#DB9C2E"/>
<path d="M24.2821 41.1589C20.6889 41.1589 17.7641 38.4417 17.6604 35.0526H17.6573V28.0805H17.6774C17.6666 28.0075 17.6599 27.9339 17.6585 27.8596C16.0261 28.4629 14.967 29.4319 14.967 30.5248C14.967 30.6076 14.9752 30.6894 14.9871 30.7707H14.967V37.7429H14.9702C15.0738 41.132 17.9986 43.8492 21.5919 43.8492C24.1937 43.8492 26.4441 42.424 27.5278 40.3512C26.5684 40.8646 25.4618 41.1589 24.2821 41.1589Z" fill="#BF6C0D"/>
<path d="M26.5224 37.8656C26.5058 37.8656 26.4893 37.8648 26.4725 37.8632C26.1766 37.836 25.9587 37.574 25.986 37.2781C26.5632 31.0114 24.5636 29.6779 24.5432 29.6651L24.5544 29.6717L25.0814 28.7335C25.3513 28.885 27.6988 30.415 27.0575 37.3768C27.0319 37.656 26.7973 37.8656 26.5224 37.8656Z" fill="#F9BB32"/>
<path d="M33.8932 36.3926C33.8528 36.3926 33.8117 36.388 33.7705 36.3784C33.4811 36.3109 33.3013 36.0216 33.3689 35.7322C34.0533 32.798 32.6759 32.3772 32.6618 32.3737C32.373 32.3036 32.1957 32.0127 32.2658 31.724C32.3358 31.4352 32.6272 31.2579 32.9156 31.328C33.0154 31.3522 35.3519 31.9677 34.4167 35.9767C34.3589 36.2249 34.1377 36.3926 33.8932 36.3926Z" fill="#E58D23"/>
<path d="M21.2475 38.6726C21.9904 38.6726 22.5926 38.0704 22.5926 37.3275C22.5926 36.5846 21.9904 35.9824 21.2475 35.9824C20.5046 35.9824 19.9023 36.5846 19.9023 37.3275C19.9023 38.0704 20.5046 38.6726 21.2475 38.6726Z" fill="#BF6C0D"/>
<path d="M11.5192 33.9355C12.2621 33.9355 12.8643 33.3332 12.8643 32.5903C12.8643 31.8474 12.2621 31.2452 11.5192 31.2452C10.7763 31.2452 10.1741 31.8474 10.1741 32.5903C10.1741 33.3332 10.7763 33.9355 11.5192 33.9355Z" fill="#DB9C2E"/>
</svg>
