<svg width="27" height="45" viewBox="0 0 27 45" fill="none" xmlns="http://www.w3.org/2000/svg">
<path d="M26.1357 6.00198H0.86438V38.998H26.1357V6.00198Z" fill="white"/>
<path d="M26.1357 6.00197H0.86438V3.84218C0.86438 1.72024 2.58462 0 4.70656 0H22.2935C24.4154 0 26.1357 1.72024 26.1357 3.84218V6.00197Z" fill="#89CAC6"/>
<path d="M22.2935 45H4.70656C2.58462 45 0.86438 43.2798 0.86438 41.1578V38.0368H26.1357V41.1579C26.1357 43.2799 24.4154 45 22.2935 45Z" fill="#89CAC6"/>
<path d="M13.4999 43.9047C14.8178 43.9047 15.8862 42.8363 15.8862 41.5184C15.8862 40.2005 14.8178 39.1321 13.4999 39.1321C12.182 39.1321 11.1136 40.2005 11.1136 41.5184C11.1136 42.8363 12.182 43.9047 13.4999 43.9047Z" fill="#DB9C2E"/>
<path d="M4.70656 6.00198H0.86438V38.0367H4.70656V6.00198Z" fill="#EAF6FA"/>
<path d="M4.74834 41.1578V38.0367H0.86438V41.1578C0.86438 43.2798 2.60326 45 4.74834 45H8.63231C6.48722 45 4.74834 43.2799 4.74834 41.1578Z" fill="#55A29D"/>
<path d="M8.54874 0H4.70656C2.58452 0 0.86438 1.72024 0.86438 3.84218V6.00197H4.70656V3.84218C4.70656 1.72014 6.4267 0 8.54874 0Z" fill="#55A29D"/>
<path d="M24.6337 9.79679C24.3155 9.79679 24.0574 9.53878 24.0574 9.22046V7.8757C24.0574 7.55737 24.3155 7.29937 24.6337 7.29937C24.9519 7.29937 25.21 7.55737 25.21 7.8757V9.22046C25.21 9.53869 24.9519 9.79679 24.6337 9.79679Z" fill="#EAF6FA"/>
<path d="M24.6337 21.2442C24.3155 21.2442 24.0574 20.9862 24.0574 20.6679V11.1396C24.0574 10.8213 24.3155 10.5633 24.6337 10.5633C24.9519 10.5633 25.21 10.8213 25.21 11.1396V20.6679C25.21 20.9862 24.9519 21.2442 24.6337 21.2442Z" fill="#EAF6FA"/>
<path d="M24.6343 5.37829C24.6176 5.37829 24.6009 5.37762 24.5841 5.37608C24.2669 5.34871 24.0321 5.06938 24.0595 4.7523C24.1245 4.0001 23.9589 3.39429 23.5673 2.95157C22.8397 2.12886 21.5318 2.05913 21.5188 2.05865C21.2006 2.04712 20.9522 1.7799 20.9638 1.46176C20.9752 1.14373 21.2383 0.895139 21.5606 0.906666C21.6339 0.909355 23.3675 0.985526 24.4309 2.18784C25.0397 2.87626 25.3012 3.77245 25.2079 4.85153C25.182 5.15179 24.9301 5.37829 24.6343 5.37829Z" fill="#EAF6FA"/>
<path d="M22.2132 44.0266C22.1242 44.0266 22.0332 44.0227 21.9394 44.0149C21.6222 43.9881 21.3868 43.7092 21.4136 43.392C21.4403 43.0749 21.7182 42.8396 22.0363 42.8662C23.8169 43.017 24.0504 40.6454 24.0595 40.5444C24.0883 40.2274 24.3691 39.9937 24.6856 40.0225C25.0027 40.0514 25.2363 40.3316 25.2075 40.6486C25.0987 41.8483 24.3304 44.0266 22.2132 44.0266Z" fill="#EAF6FA"/>
<path d="M12.4434 43.9047C13.7613 43.9047 14.8297 42.8363 14.8297 41.5184C14.8297 40.2005 13.7613 39.1321 12.4434 39.1321C11.1255 39.1321 10.0571 40.2005 10.0571 41.5184C10.0571 42.8363 11.1255 43.9047 12.4434 43.9047Z" fill="#3F4044"/>
<path d="M13.4999 43.9047C14.8178 43.9047 15.8862 42.8363 15.8862 41.5184C15.8862 40.2005 14.8178 39.1321 13.4999 39.1321C12.182 39.1321 11.1136 40.2005 11.1136 41.5184C11.1136 42.8363 12.182 43.9047 13.4999 43.9047Z" fill="#555555"/>
<path d="M19.8 11.025C19.8 11.3977 19.5717 11.7 19.2901 11.7L10.8599 11.7C10.5782 11.7 10.35 11.3977 10.35 11.025C10.35 10.6523 10.5782 10.35 10.8599 10.35L19.2901 10.35C19.5717 10.35 19.8 10.6523 19.8 11.025Z" fill="#E36B49"/>
<path d="M24.3 10.8C24.3 11.7 23.7739 11.7 23.6801 11.7L21.77 11.7C21.6761 11.7 21.15 11.7 21.15 10.8C21.15 9.9 21.6761 9.9 21.77 9.9L23.6801 9.9C23.7739 9.9 24.3 9.9 24.3 10.8Z" fill="#FF9079"/>
<path d="M9.03257 9.42397C8.71788 9.0564 8.06651 9.0977 7.57774 9.51616C7.08896 9.93466 6.94786 10.5719 7.26255 10.9394C7.57723 11.307 8.2286 11.2657 8.71738 10.8472C9.20616 10.4288 9.34726 9.7915 9.03257 9.42397ZM8.52423 10.6216C8.30607 10.8084 8.03716 10.9092 7.80488 10.8912C7.71077 10.8839 7.57941 10.8528 7.48814 10.7463C7.36669 10.6044 7.3863 10.4127 7.40879 10.3111C7.45382 10.1077 7.5858 9.90021 7.77089 9.74175C7.98904 9.55496 8.25795 9.4542 8.49024 9.47218C8.58435 9.47945 8.71571 9.51051 8.80697 9.61708C9.01116 9.8556 8.88164 10.3156 8.52423 10.6216Z" fill="#FF9079"/>
<path d="M8.08784 10.8599C7.99143 10.887 7.89535 10.8982 7.80488 10.8912C7.71077 10.8839 7.57941 10.8528 7.48814 10.7463C7.36669 10.6044 7.3863 10.4127 7.40879 10.3111C7.45382 10.1077 7.5858 9.9002 7.77089 9.74175C7.98904 9.55495 8.25795 9.4542 8.49024 9.47217C8.54994 9.47681 8.62461 9.49107 8.69451 9.52803C8.70387 9.44274 8.70885 9.35616 8.70885 9.26836V9.21367C8.37359 9.1074 7.93281 9.21213 7.57774 9.51616C7.08896 9.93465 6.94786 10.5718 7.26255 10.9394C7.37894 11.0754 7.54145 11.1552 7.72469 11.1809C7.8566 11.0865 7.97826 10.9788 8.08784 10.8599Z" fill="#E36B49"/>
<path d="M5.94239 11.6184C4.64447 11.6184 3.59229 10.5663 3.59229 9.26832V9.1388C3.59229 9.06217 3.65441 9 3.73109 9H8.15374C8.23038 9 8.29255 9.06213 8.29255 9.1388V9.26832C8.2925 10.5663 7.24032 11.6184 5.94239 11.6184Z" fill="#E36B49"/>
<path d="M6.63641 11.4797H6.63632C5.33844 11.4797 4.28626 10.4275 4.28626 9.1296V9.00004H3.73109C3.65445 9.00004 3.59229 9.06216 3.59229 9.13884V9.2684C3.59229 10.5663 4.64442 11.6185 5.94235 11.6185H5.94244C6.22514 11.6185 6.49618 11.5685 6.74724 11.477C6.71053 11.4787 6.67357 11.4797 6.63641 11.4797Z" fill="#FF9079"/>
<path d="M6.92775 10.9877C6.86424 10.9877 6.80349 10.9513 6.77544 10.8898C6.73718 10.8057 6.77431 10.7066 6.8583 10.6683C7.46326 10.3927 7.57564 9.51871 7.57673 9.50993C7.58781 9.41832 7.67118 9.35289 7.76257 9.36381C7.85413 9.37472 7.91964 9.45762 7.90885 9.54927C7.90375 9.59275 7.77461 10.6184 6.99694 10.9726C6.97453 10.9829 6.95095 10.9877 6.92775 10.9877Z" fill="white"/>
<path d="M7.61029 12.3332H4.24061C3.96468 12.3332 3.74097 12.1095 3.74097 11.8335H8.1099C8.10994 12.1095 7.88623 12.3332 7.61029 12.3332Z" fill="#E36B49"/>
<path d="M4.57713 12.1262H8.01462C8.07428 12.0439 8.1099 11.943 8.1099 11.8336H3.74097C3.74097 12.1095 3.96464 12.3332 4.24061 12.3332H4.62245C4.59364 12.27 4.57713 12.2001 4.57713 12.1262Z" fill="#FF9079"/>
<path d="M8.26109 12.014H3.53382C3.45238 12.014 3.37608 11.9743 3.32934 11.9077L3.16018 11.6665C3.13439 11.6297 3.16069 11.5791 3.20563 11.5791H8.63051C8.67808 11.5791 8.70363 11.6351 8.67244 11.671L8.4499 11.9278C8.4024 11.9825 8.33354 12.014 8.26109 12.014Z" fill="#E36B49"/>
<g opacity="0.65">
<path d="M19.8 15.525C19.8 15.8977 19.5717 16.2 19.2901 16.2L10.8599 16.2C10.5782 16.2 10.35 15.8977 10.35 15.525C10.35 15.1523 10.5782 14.85 10.8599 14.85L19.2901 14.85C19.5717 14.85 19.8 15.1523 19.8 15.525Z" fill="#E36B49"/>
<path d="M24.3 15.3C24.3 16.2 23.7739 16.2 23.6801 16.2L21.77 16.2C21.6761 16.2 21.15 16.2 21.15 15.3C21.15 14.4 21.6761 14.4 21.77 14.4L23.6801 14.4C23.7739 14.4 24.3 14.4 24.3 15.3Z" fill="#FF9079"/>
<path d="M9.03257 13.924C8.71788 13.5564 8.06651 13.5977 7.57774 14.0162C7.08896 14.4347 6.94786 15.0719 7.26255 15.4394C7.57723 15.807 8.2286 15.7657 8.71738 15.3472C9.20616 14.9288 9.34726 14.2915 9.03257 13.924ZM8.52423 15.1216C8.30607 15.3084 8.03716 15.4092 7.80488 15.3912C7.71077 15.3839 7.57941 15.3528 7.48814 15.2463C7.36669 15.1044 7.3863 14.9127 7.40879 14.8111C7.45382 14.6077 7.5858 14.4002 7.77089 14.2418C7.98904 14.055 8.25795 13.9542 8.49024 13.9722C8.58435 13.9795 8.71571 14.0105 8.80697 14.1171C9.01116 14.3556 8.88164 14.8156 8.52423 15.1216Z" fill="#FF9079"/>
<path d="M8.08784 15.3599C7.99143 15.387 7.89535 15.3982 7.80488 15.3912C7.71077 15.3839 7.57941 15.3528 7.48814 15.2463C7.36669 15.1044 7.3863 14.9127 7.40879 14.8111C7.45382 14.6077 7.5858 14.4002 7.77089 14.2418C7.98904 14.055 8.25795 13.9542 8.49024 13.9722C8.54994 13.9768 8.62461 13.9911 8.69451 14.028C8.70387 13.9427 8.70885 13.8562 8.70885 13.7684V13.7137C8.37359 13.6074 7.93281 13.7121 7.57774 14.0162C7.08896 14.4347 6.94786 15.0718 7.26255 15.4394C7.37894 15.5754 7.54145 15.6552 7.72469 15.6809C7.8566 15.5865 7.97826 15.4788 8.08784 15.3599Z" fill="#E36B49"/>
<path d="M5.94239 16.1184C4.64447 16.1184 3.59229 15.0663 3.59229 13.7683V13.6388C3.59229 13.5622 3.65441 13.5 3.73109 13.5H8.15374C8.23038 13.5 8.29255 13.5621 8.29255 13.6388V13.7683C8.2925 15.0663 7.24032 16.1184 5.94239 16.1184Z" fill="#E36B49"/>
<path d="M6.63641 15.9797H6.63632C5.33844 15.9797 4.28626 14.9275 4.28626 13.6296V13.5H3.73109C3.65445 13.5 3.59229 13.5622 3.59229 13.6388V13.7684C3.59229 15.0663 4.64442 16.1185 5.94235 16.1185H5.94244C6.22514 16.1185 6.49618 16.0685 6.74724 15.977C6.71053 15.9787 6.67357 15.9797 6.63641 15.9797Z" fill="#FF9079"/>
<path d="M6.92775 15.4877C6.86424 15.4877 6.80349 15.4513 6.77544 15.3898C6.73718 15.3057 6.77431 15.2066 6.8583 15.1683C7.46326 14.8927 7.57564 14.0187 7.57673 14.0099C7.58781 13.9183 7.67118 13.8529 7.76257 13.8638C7.85413 13.8747 7.91964 13.9576 7.90885 14.0493C7.90375 14.0927 7.77461 15.1184 6.99694 15.4726C6.97453 15.4829 6.95095 15.4877 6.92775 15.4877Z" fill="white"/>
<path d="M7.61029 16.8332H4.24061C3.96468 16.8332 3.74097 16.6095 3.74097 16.3335H8.1099C8.10994 16.6095 7.88623 16.8332 7.61029 16.8332Z" fill="#E36B49"/>
<path d="M4.57713 16.6262H8.01462C8.07428 16.5439 8.1099 16.443 8.1099 16.3336H3.74097C3.74097 16.6095 3.96464 16.8332 4.24061 16.8332H4.62245C4.59364 16.77 4.57713 16.7001 4.57713 16.6262Z" fill="#FF9079"/>
<path d="M8.26109 16.514H3.53382C3.45238 16.514 3.37608 16.4743 3.32934 16.4077L3.16018 16.1665C3.13439 16.1297 3.16069 16.0791 3.20563 16.0791H8.63051C8.67808 16.0791 8.70363 16.1351 8.67244 16.171L8.4499 16.4278C8.4024 16.4825 8.33354 16.514 8.26109 16.514Z" fill="#E36B49"/>
</g>
<g opacity="0.65">
<path d="M19.8 20.025C19.8 20.3977 19.5717 20.7 19.2901 20.7L10.8599 20.7C10.5782 20.7 10.35 20.3977 10.35 20.025C10.35 19.6523 10.5782 19.35 10.8599 19.35L19.2901 19.35C19.5717 19.35 19.8 19.6523 19.8 20.025Z" fill="#E36B49"/>
<path d="M24.3 19.8C24.3 20.7 23.7739 20.7 23.6801 20.7L21.77 20.7C21.6761 20.7 21.15 20.7 21.15 19.8C21.15 18.9 21.6761 18.9 21.77 18.9L23.6801 18.9C23.7739 18.9 24.3 18.9 24.3 19.8Z" fill="#FF9079"/>
<path d="M9.03257 18.424C8.71788 18.0564 8.06651 18.0977 7.57774 18.5162C7.08896 18.9347 6.94786 19.5719 7.26255 19.9394C7.57723 20.307 8.2286 20.2657 8.71738 19.8472C9.20616 19.4288 9.34726 18.7915 9.03257 18.424ZM8.52423 19.6216C8.30607 19.8084 8.03716 19.9092 7.80488 19.8912C7.71077 19.8839 7.57941 19.8528 7.48814 19.7463C7.36669 19.6044 7.3863 19.4127 7.40879 19.3111C7.45382 19.1077 7.5858 18.9002 7.77089 18.7418C7.98904 18.555 8.25795 18.4542 8.49024 18.4722C8.58435 18.4795 8.71571 18.5105 8.80697 18.6171C9.01116 18.8556 8.88164 19.3156 8.52423 19.6216Z" fill="#FF9079"/>
<path d="M8.08784 19.8599C7.99143 19.887 7.89535 19.8982 7.80488 19.8912C7.71077 19.8839 7.57941 19.8528 7.48814 19.7463C7.36669 19.6044 7.3863 19.4127 7.40879 19.3111C7.45382 19.1077 7.5858 18.9002 7.77089 18.7418C7.98904 18.555 8.25795 18.4542 8.49024 18.4722C8.54994 18.4768 8.62461 18.4911 8.69451 18.528C8.70387 18.4427 8.70885 18.3562 8.70885 18.2684V18.2137C8.37359 18.1074 7.93281 18.2121 7.57774 18.5162C7.08896 18.9347 6.94786 19.5718 7.26255 19.9394C7.37894 20.0754 7.54145 20.1552 7.72469 20.1809C7.8566 20.0865 7.97826 19.9788 8.08784 19.8599Z" fill="#E36B49"/>
<path d="M5.94239 20.6184C4.64447 20.6184 3.59229 19.5663 3.59229 18.2683V18.1388C3.59229 18.0622 3.65441 18 3.73109 18H8.15374C8.23038 18 8.29255 18.0621 8.29255 18.1388V18.2683C8.2925 19.5663 7.24032 20.6184 5.94239 20.6184Z" fill="#E36B49"/>
<path d="M6.63641 20.4797H6.63632C5.33844 20.4797 4.28626 19.4275 4.28626 18.1296V18H3.73109C3.65445 18 3.59229 18.0622 3.59229 18.1388V18.2684C3.59229 19.5663 4.64442 20.6185 5.94235 20.6185H5.94244C6.22514 20.6185 6.49618 20.5685 6.74724 20.477C6.71053 20.4787 6.67357 20.4797 6.63641 20.4797Z" fill="#FF9079"/>
<path d="M6.92775 19.9877C6.86424 19.9877 6.80349 19.9513 6.77544 19.8898C6.73718 19.8057 6.77431 19.7066 6.8583 19.6683C7.46326 19.3927 7.57564 18.5187 7.57673 18.5099C7.58781 18.4183 7.67118 18.3529 7.76257 18.3638C7.85413 18.3747 7.91964 18.4576 7.90885 18.5493C7.90375 18.5927 7.77461 19.6184 6.99694 19.9726C6.97453 19.9829 6.95095 19.9877 6.92775 19.9877Z" fill="white"/>
<path d="M7.61029 21.3332H4.24061C3.96468 21.3332 3.74097 21.1095 3.74097 20.8335H8.1099C8.10994 21.1095 7.88623 21.3332 7.61029 21.3332Z" fill="#E36B49"/>
<path d="M4.57713 21.1262H8.01462C8.07428 21.0439 8.1099 20.943 8.1099 20.8336H3.74097C3.74097 21.1095 3.96464 21.3332 4.24061 21.3332H4.62245C4.59364 21.27 4.57713 21.2001 4.57713 21.1262Z" fill="#FF9079"/>
<path d="M8.26109 21.014H3.53382C3.45238 21.014 3.37608 20.9743 3.32934 20.9077L3.16018 20.6665C3.13439 20.6297 3.16069 20.5791 3.20563 20.5791H8.63051C8.67808 20.5791 8.70363 20.6351 8.67244 20.671L8.4499 20.9278C8.4024 20.9825 8.33354 21.014 8.26109 21.014Z" fill="#E36B49"/>
</g>
<g opacity="0.65">
<path d="M19.8 24.525C19.8 24.8977 19.5717 25.2 19.2901 25.2L10.8599 25.2C10.5782 25.2 10.35 24.8977 10.35 24.525C10.35 24.1523 10.5782 23.85 10.8599 23.85L19.2901 23.85C19.5717 23.85 19.8 24.1523 19.8 24.525Z" fill="#E36B49"/>
<path d="M24.3 24.3C24.3 25.2 23.7739 25.2 23.6801 25.2L21.77 25.2C21.6761 25.2 21.15 25.2 21.15 24.3C21.15 23.4 21.6761 23.4 21.77 23.4L23.6801 23.4C23.7739 23.4 24.3 23.4 24.3 24.3Z" fill="#FF9079"/>
<path d="M9.03257 22.924C8.71788 22.5564 8.06651 22.5977 7.57774 23.0162C7.08896 23.4347 6.94786 24.0719 7.26255 24.4394C7.57723 24.807 8.2286 24.7657 8.71738 24.3472C9.20616 23.9288 9.34726 23.2915 9.03257 22.924ZM8.52423 24.1216C8.30607 24.3084 8.03716 24.4092 7.80488 24.3912C7.71077 24.3839 7.57941 24.3528 7.48814 24.2463C7.36669 24.1044 7.3863 23.9127 7.40879 23.8111C7.45382 23.6077 7.5858 23.4002 7.77089 23.2418C7.98904 23.055 8.25795 22.9542 8.49024 22.9722C8.58435 22.9795 8.71571 23.0105 8.80697 23.1171C9.01116 23.3556 8.88164 23.8156 8.52423 24.1216Z" fill="#FF9079"/>
<path d="M8.08784 24.3599C7.99143 24.387 7.89535 24.3982 7.80488 24.3912C7.71077 24.3839 7.57941 24.3528 7.48814 24.2463C7.36669 24.1044 7.3863 23.9127 7.40879 23.8111C7.45382 23.6077 7.5858 23.4002 7.77089 23.2418C7.98904 23.055 8.25795 22.9542 8.49024 22.9722C8.54994 22.9768 8.62461 22.9911 8.69451 23.028C8.70387 22.9427 8.70885 22.8562 8.70885 22.7684V22.7137C8.37359 22.6074 7.93281 22.7121 7.57774 23.0162C7.08896 23.4347 6.94786 24.0718 7.26255 24.4394C7.37894 24.5754 7.54145 24.6552 7.72469 24.6809C7.8566 24.5865 7.97826 24.4788 8.08784 24.3599Z" fill="#E36B49"/>
<path d="M5.94239 25.1184C4.64447 25.1184 3.59229 24.0663 3.59229 22.7683V22.6388C3.59229 22.5622 3.65441 22.5 3.73109 22.5H8.15374C8.23038 22.5 8.29255 22.5621 8.29255 22.6388V22.7683C8.2925 24.0663 7.24032 25.1184 5.94239 25.1184Z" fill="#E36B49"/>
<path d="M6.63641 24.9797H6.63632C5.33844 24.9797 4.28626 23.9275 4.28626 22.6296V22.5H3.73109C3.65445 22.5 3.59229 22.5622 3.59229 22.6388V22.7684C3.59229 24.0663 4.64442 25.1185 5.94235 25.1185H5.94244C6.22514 25.1185 6.49618 25.0685 6.74724 24.977C6.71053 24.9787 6.67357 24.9797 6.63641 24.9797Z" fill="#FF9079"/>
<path d="M6.92775 24.4877C6.86424 24.4877 6.80349 24.4513 6.77544 24.3898C6.73718 24.3057 6.77431 24.2066 6.8583 24.1683C7.46326 23.8927 7.57564 23.0187 7.57673 23.0099C7.58781 22.9183 7.67118 22.8529 7.76257 22.8638C7.85413 22.8747 7.91964 22.9576 7.90885 23.0493C7.90375 23.0927 7.77461 24.1184 6.99694 24.4726C6.97453 24.4829 6.95095 24.4877 6.92775 24.4877Z" fill="white"/>
<path d="M7.61029 25.8332H4.24061C3.96468 25.8332 3.74097 25.6095 3.74097 25.3335H8.1099C8.10994 25.6095 7.88623 25.8332 7.61029 25.8332Z" fill="#E36B49"/>
<path d="M4.57713 25.6262H8.01462C8.07428 25.5439 8.1099 25.443 8.1099 25.3336H3.74097C3.74097 25.6095 3.96464 25.8332 4.24061 25.8332H4.62245C4.59364 25.77 4.57713 25.7001 4.57713 25.6262Z" fill="#FF9079"/>
<path d="M8.26109 25.514H3.53382C3.45238 25.514 3.37608 25.4743 3.32934 25.4077L3.16018 25.1665C3.13439 25.1297 3.16069 25.0791 3.20563 25.0791H8.63051C8.67808 25.0791 8.70363 25.1351 8.67244 25.171L8.4499 25.4278C8.4024 25.4825 8.33354 25.514 8.26109 25.514Z" fill="#E36B49"/>
</g>
<g opacity="0.65">
<path d="M19.8 29.025C19.8 29.3977 19.5717 29.7 19.2901 29.7L10.8599 29.7C10.5782 29.7 10.35 29.3977 10.35 29.025C10.35 28.6523 10.5782 28.35 10.8599 28.35L19.2901 28.35C19.5717 28.35 19.8 28.6523 19.8 29.025Z" fill="#E36B49"/>
<path d="M24.3 28.8C24.3 29.7 23.7739 29.7 23.6801 29.7L21.77 29.7C21.6761 29.7 21.15 29.7 21.15 28.8C21.15 27.9 21.6761 27.9 21.77 27.9L23.6801 27.9C23.7739 27.9 24.3 27.9 24.3 28.8Z" fill="#FF9079"/>
<path d="M9.03257 27.424C8.71788 27.0564 8.06651 27.0977 7.57774 27.5162C7.08896 27.9347 6.94786 28.5719 7.26255 28.9394C7.57723 29.307 8.2286 29.2657 8.71738 28.8472C9.20616 28.4288 9.34726 27.7915 9.03257 27.424ZM8.52423 28.6216C8.30607 28.8084 8.03716 28.9092 7.80488 28.8912C7.71077 28.8839 7.57941 28.8528 7.48814 28.7463C7.36669 28.6044 7.3863 28.4127 7.40879 28.3111C7.45382 28.1077 7.5858 27.9002 7.77089 27.7418C7.98904 27.555 8.25795 27.4542 8.49024 27.4722C8.58435 27.4795 8.71571 27.5105 8.80697 27.6171C9.01116 27.8556 8.88164 28.3156 8.52423 28.6216Z" fill="#FF9079"/>
<path d="M8.08784 28.8599C7.99143 28.887 7.89535 28.8982 7.80488 28.8912C7.71077 28.8839 7.57941 28.8528 7.48814 28.7463C7.36669 28.6044 7.3863 28.4127 7.40879 28.3111C7.45382 28.1077 7.5858 27.9002 7.77089 27.7418C7.98904 27.555 8.25795 27.4542 8.49024 27.4722C8.54994 27.4768 8.62461 27.4911 8.69451 27.528C8.70387 27.4427 8.70885 27.3562 8.70885 27.2684V27.2137C8.37359 27.1074 7.93281 27.2121 7.57774 27.5162C7.08896 27.9347 6.94786 28.5718 7.26255 28.9394C7.37894 29.0754 7.54145 29.1552 7.72469 29.1809C7.8566 29.0865 7.97826 28.9788 8.08784 28.8599Z" fill="#E36B49"/>
<path d="M5.94239 29.6184C4.64447 29.6184 3.59229 28.5663 3.59229 27.2683V27.1388C3.59229 27.0622 3.65441 27 3.73109 27H8.15374C8.23038 27 8.29255 27.0621 8.29255 27.1388V27.2683C8.2925 28.5663 7.24032 29.6184 5.94239 29.6184Z" fill="#E36B49"/>
<path d="M6.63641 29.4797H6.63632C5.33844 29.4797 4.28626 28.4275 4.28626 27.1296V27H3.73109C3.65445 27 3.59229 27.0622 3.59229 27.1388V27.2684C3.59229 28.5663 4.64442 29.6185 5.94235 29.6185H5.94244C6.22514 29.6185 6.49618 29.5685 6.74724 29.477C6.71053 29.4787 6.67357 29.4797 6.63641 29.4797Z" fill="#FF9079"/>
<path d="M6.92775 28.9877C6.86424 28.9877 6.80349 28.9513 6.77544 28.8898C6.73718 28.8057 6.77431 28.7066 6.8583 28.6683C7.46326 28.3927 7.57564 27.5187 7.57673 27.5099C7.58781 27.4183 7.67118 27.3529 7.76257 27.3638C7.85413 27.3747 7.91964 27.4576 7.90885 27.5493C7.90375 27.5927 7.77461 28.6184 6.99694 28.9726C6.97453 28.9829 6.95095 28.9877 6.92775 28.9877Z" fill="white"/>
<path d="M7.61029 30.3332H4.24061C3.96468 30.3332 3.74097 30.1095 3.74097 29.8335H8.1099C8.10994 30.1095 7.88623 30.3332 7.61029 30.3332Z" fill="#E36B49"/>
<path d="M4.57713 30.1262H8.01462C8.07428 30.0439 8.1099 29.943 8.1099 29.8336H3.74097C3.74097 30.1095 3.96464 30.3332 4.24061 30.3332H4.62245C4.59364 30.27 4.57713 30.2001 4.57713 30.1262Z" fill="#FF9079"/>
<path d="M8.26109 30.014H3.53382C3.45238 30.014 3.37608 29.9743 3.32934 29.9077L3.16018 29.6665C3.13439 29.6297 3.16069 29.5791 3.20563 29.5791H8.63051C8.67808 29.5791 8.70363 29.6351 8.67244 29.671L8.4499 29.9278C8.4024 29.9825 8.33354 30.014 8.26109 30.014Z" fill="#E36B49"/>
</g>
<g opacity="0.65">
<path d="M19.8 33.525C19.8 33.8977 19.5717 34.2 19.2901 34.2L10.8599 34.2C10.5782 34.2 10.35 33.8977 10.35 33.525C10.35 33.1523 10.5782 32.85 10.8599 32.85L19.2901 32.85C19.5717 32.85 19.8 33.1523 19.8 33.525Z" fill="#E36B49"/>
<path d="M24.3 33.3C24.3 34.2 23.7739 34.2 23.6801 34.2L21.77 34.2C21.6761 34.2 21.15 34.2 21.15 33.3C21.15 32.4 21.6761 32.4 21.77 32.4L23.6801 32.4C23.7739 32.4 24.3 32.4 24.3 33.3Z" fill="#FF9079"/>
<path d="M9.03257 31.924C8.71788 31.5564 8.06651 31.5977 7.57774 32.0162C7.08896 32.4347 6.94786 33.0719 7.26255 33.4394C7.57723 33.807 8.2286 33.7657 8.71738 33.3472C9.20616 32.9288 9.34726 32.2915 9.03257 31.924ZM8.52423 33.1216C8.30607 33.3084 8.03716 33.4092 7.80488 33.3912C7.71077 33.3839 7.57941 33.3528 7.48814 33.2463C7.36669 33.1044 7.3863 32.9127 7.40879 32.8111C7.45382 32.6077 7.5858 32.4002 7.77089 32.2418C7.98904 32.055 8.25795 31.9542 8.49024 31.9722C8.58435 31.9795 8.71571 32.0105 8.80697 32.1171C9.01116 32.3556 8.88164 32.8156 8.52423 33.1216Z" fill="#FF9079"/>
<path d="M8.08784 33.3599C7.99143 33.387 7.89535 33.3982 7.80488 33.3912C7.71077 33.3839 7.57941 33.3528 7.48814 33.2463C7.36669 33.1044 7.3863 32.9127 7.40879 32.8111C7.45382 32.6077 7.5858 32.4002 7.77089 32.2418C7.98904 32.055 8.25795 31.9542 8.49024 31.9722C8.54994 31.9768 8.62461 31.9911 8.69451 32.028C8.70387 31.9427 8.70885 31.8562 8.70885 31.7684V31.7137C8.37359 31.6074 7.93281 31.7121 7.57774 32.0162C7.08896 32.4347 6.94786 33.0718 7.26255 33.4394C7.37894 33.5754 7.54145 33.6552 7.72469 33.6809C7.8566 33.5865 7.97826 33.4788 8.08784 33.3599Z" fill="#E36B49"/>
<path d="M5.94239 34.1184C4.64447 34.1184 3.59229 33.0663 3.59229 31.7683V31.6388C3.59229 31.5622 3.65441 31.5 3.73109 31.5H8.15374C8.23038 31.5 8.29255 31.5621 8.29255 31.6388V31.7683C8.2925 33.0663 7.24032 34.1184 5.94239 34.1184Z" fill="#E36B49"/>
<path d="M6.63641 33.9797H6.63632C5.33844 33.9797 4.28626 32.9275 4.28626 31.6296V31.5H3.73109C3.65445 31.5 3.59229 31.5622 3.59229 31.6388V31.7684C3.59229 33.0663 4.64442 34.1185 5.94235 34.1185H5.94244C6.22514 34.1185 6.49618 34.0685 6.74724 33.977C6.71053 33.9787 6.67357 33.9797 6.63641 33.9797Z" fill="#FF9079"/>
<path d="M6.92775 33.4877C6.86424 33.4877 6.80349 33.4513 6.77544 33.3898C6.73718 33.3057 6.77431 33.2066 6.8583 33.1683C7.46326 32.8927 7.57564 32.0187 7.57673 32.0099C7.58781 31.9183 7.67118 31.8529 7.76257 31.8638C7.85413 31.8747 7.91964 31.9576 7.90885 32.0493C7.90375 32.0927 7.77461 33.1184 6.99694 33.4726C6.97453 33.4829 6.95095 33.4877 6.92775 33.4877Z" fill="white"/>
<path d="M7.61029 34.8332H4.24061C3.96468 34.8332 3.74097 34.6095 3.74097 34.3335H8.1099C8.10994 34.6095 7.88623 34.8332 7.61029 34.8332Z" fill="#E36B49"/>
<path d="M4.57713 34.6262H8.01462C8.07428 34.5439 8.1099 34.443 8.1099 34.3336H3.74097C3.74097 34.6095 3.96464 34.8332 4.24061 34.8332H4.62245C4.59364 34.77 4.57713 34.7001 4.57713 34.6262Z" fill="#FF9079"/>
<path d="M8.26109 34.514H3.53382C3.45238 34.514 3.37608 34.4743 3.32934 34.4077L3.16018 34.1665C3.13439 34.1297 3.16069 34.0791 3.20563 34.0791H8.63051C8.67808 34.0791 8.70363 34.1351 8.67244 34.171L8.4499 34.4278C8.4024 34.4825 8.33354 34.514 8.26109 34.514Z" fill="#E36B49"/>
</g>
<path d="M7.51601 4.49467C8.31175 4.49467 8.95683 3.8496 8.95683 3.05385C8.95683 2.25811 8.31175 1.61304 7.51601 1.61304C6.72027 1.61304 6.0752 2.25811 6.0752 3.05385C6.0752 3.8496 6.72027 4.49467 7.51601 4.49467Z" fill="#3F4044"/>
<path d="M23.9408 37.0816C24.7366 37.0816 25.3816 36.4366 25.3816 35.6408C25.3816 34.8451 24.7366 34.2 23.9408 34.2C23.1451 34.2 22.5 34.8451 22.5 35.6408C22.5 36.4366 23.1451 37.0816 23.9408 37.0816Z" fill="#EAF6FA"/>
</svg>
