<svg width="40" height="45" viewBox="0 0 40 45" fill="none" xmlns="http://www.w3.org/2000/svg">
<path d="M19.9108 42.3351C22.1196 42.3351 24.041 41.1044 25.0268 39.2914C26.0126 41.1044 27.934 42.3351 30.1428 42.3351C33.3568 42.3351 35.9623 39.7296 35.9623 36.5156C35.9623 34.3068 34.7316 32.3854 32.9186 31.3996C34.7316 30.4138 35.9623 28.4924 35.9623 26.2836C35.9623 24.0747 34.7316 22.1533 32.9186 21.1675C34.7316 20.1817 35.9623 18.2604 35.9623 16.0515C35.9623 13.8426 34.7316 11.9213 32.9186 10.9355C34.7316 9.94967 35.9623 8.02831 35.9623 5.81944C35.9623 2.6055 33.3568 -1.1389e-07 30.1428 -2.54376e-07C27.934 -3.50928e-07 26.0126 1.23068 25.0268 3.04368C24.041 1.23097 22.1196 0.000288652 19.9108 0.000288555C17.7019 0.000288459 15.7805 1.23097 14.7948 3.04397C13.809 1.23097 11.8876 0.000288205 9.67872 0.000288108C6.46468 0.000287968 3.85928 2.60579 3.85928 5.81973C3.85928 8.02859 5.08987 9.94996 6.90296 10.9358C5.08987 11.9216 3.85928 13.8429 3.85928 16.0518C3.85928 18.2607 5.08987 20.182 6.90296 21.1678C5.08987 22.1536 3.85928 24.075 3.85928 26.2838C3.85928 28.4927 5.08987 30.4141 6.90296 31.3999C5.08987 32.3857 3.85928 34.307 3.85928 36.5159C3.85928 39.7299 6.46468 42.3353 9.67872 42.3353C11.8876 42.3353 13.809 41.1047 14.7947 39.2917C15.7805 41.1044 17.7019 42.3351 19.9108 42.3351ZM12.3433 9.78462C12.3433 8.74859 13.1832 7.90876 14.2192 7.90876C15.2552 7.90876 16.095 8.74859 16.095 9.78462C16.095 10.8206 15.2552 11.6605 14.2192 11.6605C13.1832 11.6605 12.3433 10.8205 12.3433 9.78462ZM23.2575 9.89115C23.2575 8.85512 24.0973 8.01529 25.1333 8.01529C26.1694 8.01529 27.0092 8.85512 27.0092 9.89115C27.0092 10.9272 26.1693 11.767 25.1333 11.767C24.0973 11.767 23.2575 10.9272 23.2575 9.89115ZM12.3433 21.2956C12.3433 20.2595 13.1832 19.4197 14.2192 19.4197C15.2552 19.4197 16.095 20.2595 16.095 21.2956C16.095 22.3316 15.2552 23.1714 14.2192 23.1714C13.1832 23.1714 12.3433 22.3316 12.3433 21.2956ZM23.2575 21.4022C23.2575 20.3662 24.0973 19.5263 25.1333 19.5263C26.1694 19.5263 27.0092 20.3663 27.0092 21.4022C27.0092 22.4382 26.1693 23.2781 25.1333 23.2781C24.0973 23.2781 23.2575 22.4381 23.2575 21.4022ZM12.3433 32.8065C12.3433 31.7705 13.1832 30.9306 14.2192 30.9306C15.2552 30.9306 16.095 31.7705 16.095 32.8065C16.095 33.8425 15.2552 34.6824 14.2192 34.6824C13.1832 34.6824 12.3433 33.8425 12.3433 32.8065ZM23.2575 32.9131C23.2575 31.8771 24.0973 31.0373 25.1333 31.0373C26.1694 31.0373 27.0092 31.8772 27.0092 32.9131C27.0092 33.9491 26.1693 34.789 25.1333 34.789C24.0973 34.789 23.2575 33.9492 23.2575 32.9131Z" fill="#BF6C0D"/>
<path d="M19.9108 44.2535C22.1196 44.2535 24.041 43.0229 25.0268 41.2099C26.0126 43.0229 27.934 44.2535 30.1428 44.2535C33.3568 44.2535 35.9623 41.648 35.9623 38.4341C35.9623 36.2252 34.7316 34.3039 32.9186 33.3181C34.7316 32.3323 35.9623 30.4109 35.9623 28.202C35.9623 25.9932 34.7316 24.0718 32.9186 23.086C34.7316 22.1002 35.9623 20.1788 35.9623 17.97C35.9623 15.7611 34.7316 13.8397 32.9186 12.854C34.7316 11.8682 35.9623 9.94678 35.9623 7.73792C35.9623 4.52398 33.3568 1.91848 30.1428 1.91848C27.934 1.91848 26.0126 3.14916 25.0268 4.96216C24.041 3.14945 22.1196 1.91877 19.9108 1.91877C17.7019 1.91877 15.7805 3.14945 14.7948 4.96245C13.809 3.14945 11.8876 1.91877 9.67872 1.91877C6.46468 1.91877 3.85928 4.52426 3.85928 7.73821C3.85928 9.94707 5.08987 11.8684 6.90296 12.8542C5.08987 13.84 3.85928 15.7614 3.85928 17.9703C3.85928 20.1791 5.08987 22.1005 6.90296 23.0863C5.08987 24.0721 3.85928 25.9935 3.85928 28.2023C3.85928 30.4112 5.08987 32.3326 6.90296 33.3184C5.08987 34.3042 3.85928 36.2255 3.85928 38.4344C3.85928 41.6483 6.46468 44.2538 9.67872 44.2538C11.8876 44.2538 13.809 43.0232 14.7947 41.2101C15.7805 43.0229 17.7019 44.2535 19.9108 44.2535ZM12.3433 11.7031C12.3433 10.6671 13.1832 9.82724 14.2192 9.82724C15.2552 9.82724 16.095 10.6671 16.095 11.7031C16.095 12.7391 15.2552 13.579 14.2192 13.579C13.1832 13.579 12.3433 12.7391 12.3433 11.7031ZM23.2575 11.8096C23.2575 10.7736 24.0973 9.93377 25.1333 9.93377C26.1694 9.93377 27.0092 10.7736 27.0092 11.8096C27.0092 12.8457 26.1693 13.6855 25.1333 13.6855C24.0973 13.6855 23.2575 12.8457 23.2575 11.8096ZM12.3433 23.214C12.3433 22.178 13.1832 21.3382 14.2192 21.3382C15.2552 21.3382 16.095 22.178 16.095 23.214C16.095 24.2501 15.2552 25.0899 14.2192 25.0899C13.1832 25.0899 12.3433 24.2501 12.3433 23.214ZM23.2575 23.3207C23.2575 22.2846 24.0973 21.4448 25.1333 21.4448C26.1694 21.4448 27.0092 22.2847 27.0092 23.3207C27.0092 24.3567 26.1693 25.1965 25.1333 25.1965C24.0973 25.1965 23.2575 24.3567 23.2575 23.3207ZM12.3433 34.725C12.3433 33.689 13.1832 32.8491 14.2192 32.8491C15.2552 32.8491 16.095 33.689 16.095 34.725C16.095 35.761 15.2552 36.6009 14.2192 36.6009C13.1832 36.6009 12.3433 35.761 12.3433 34.725ZM23.2575 34.8316C23.2575 33.7956 24.0973 32.9558 25.1333 32.9558C26.1694 32.9558 27.0092 33.7957 27.0092 34.8316C27.0092 35.8676 26.1693 36.7075 25.1333 36.7075C24.0973 36.7075 23.2575 35.8676 23.2575 34.8316Z" fill="#F9BB32"/>
<path d="M10.9578 5.75571C13.1667 5.75571 15.0881 6.98639 16.0739 8.79939C17.0597 6.98639 18.981 5.75571 21.1899 5.75571C23.3987 5.75571 25.3201 6.98639 26.3059 8.79939C27.2917 6.98639 29.2131 5.75571 31.4219 5.75571C33.2549 5.75571 34.8891 6.60403 35.9557 7.92852C35.9578 7.86508 35.9624 7.80222 35.9624 7.7382C35.9624 4.52426 33.3569 1.91876 30.143 1.91876C27.9341 1.91876 26.0127 3.14944 25.0269 4.96244C24.041 3.14944 22.1197 1.91876 19.9108 1.91876C17.7019 1.91876 15.7806 3.14944 14.7948 4.96244C13.809 3.14944 11.8876 1.91876 9.67874 1.91876C6.4647 1.91876 3.8593 4.52426 3.8593 7.7382C3.8593 9.11871 4.34001 10.3869 5.14311 11.3845C5.24395 8.25901 7.8077 5.75571 10.9578 5.75571Z" fill="#DB9C2E"/>
<path d="M28.1786 42.0798C28.1786 42.0377 28.1833 41.995 28.1928 41.9523C28.263 41.6406 28.5725 41.4448 28.8842 41.5149C30.1614 41.8023 31.153 41.6582 31.8313 41.0864C33.0938 40.0225 32.994 37.7841 32.9936 37.7612C32.977 37.4426 33.2221 37.1703 33.5406 37.1535C33.8593 37.1366 34.1313 37.3803 34.1489 37.6989C34.1554 37.8137 34.2836 40.5273 32.582 41.9669C31.6118 42.7876 30.2822 43.0153 28.6302 42.6436C28.3612 42.5831 28.1786 42.3443 28.1786 42.0798Z" fill="#FFC34C"/>
<path d="M18.4324 9.78462C18.4324 10.6011 19.0943 11.263 19.9108 11.263C20.7273 11.263 21.3892 10.6011 21.3892 9.78462C21.3892 8.96814 20.7273 8.30626 19.9108 8.30626C19.0943 8.30626 18.4324 8.96814 18.4324 9.78462Z" fill="#DB9C2E"/>
<path d="M8.48163 17.263C8.48163 18.0795 9.14352 18.7414 9.95999 18.7414C10.7765 18.7414 11.4384 18.0795 11.4384 17.263C11.4384 16.4465 10.7765 15.7846 9.95999 15.7846C9.14352 15.7846 8.48163 16.4465 8.48163 17.263Z" fill="#DB9C2E"/>
<path d="M18.3868 22.7481C25.453 11.0113 34.3922 16.6149 37.0358 18.674C37.4822 19.0218 37.3759 19.7671 36.8025 20.3183C33.3378 23.6485 21.8782 33.653 18.1651 24.1945C18.0027 23.7809 18.0847 23.2501 18.3868 22.7481Z" fill="#CCC033"/>
<path fill-rule="evenodd" clip-rule="evenodd" d="M26.1776 29.6817C26.1776 31.1918 27.4472 32.4648 29.0746 32.4648C30.7021 32.4648 31.9717 31.1918 31.9717 29.6817C31.9717 28.1716 30.7021 26.8986 29.0746 26.8986C27.4472 26.8986 26.1776 28.1716 26.1776 29.6817ZM29.0746 33.4289C26.9422 33.4289 25.2135 31.7512 25.2135 29.6817C25.2135 27.6121 26.9422 25.9345 29.0746 25.9345C31.2071 25.9345 32.9358 27.6121 32.9358 29.6817C32.9358 31.7512 31.2071 33.4289 29.0746 33.4289Z" fill="#FFD59A"/>
<path fill-rule="evenodd" clip-rule="evenodd" d="M27.7296 29.6945C27.7296 30.3484 28.2948 30.9478 29.0793 30.9478C29.8639 30.9478 30.4291 30.3484 30.4291 29.6945C30.4291 29.0405 29.8639 28.4411 29.0793 28.4411C28.2948 28.4411 27.7296 29.0405 27.7296 29.6945ZM29.0793 31.9119C27.8014 31.9119 26.7655 30.9191 26.7655 29.6945C26.7655 28.4698 27.8014 27.477 29.0793 27.477C30.3572 27.477 31.3932 28.4698 31.3932 29.6945C31.3932 30.9191 30.3572 31.9119 29.0793 31.9119Z" fill="#FFF4C1"/>
<path d="M19.2127 37.3607C30.679 44.8579 36.2927 35.925 37.7781 32.9213C38.0289 32.4141 37.6091 31.7891 36.8531 31.542C32.2851 30.0495 17.6155 26.0225 18.3841 36.1547C18.4177 36.5977 18.7223 37.0401 19.2127 37.3607Z" fill="#CCC033"/>
<path d="M15.7063 23.9636C3.2165 18.3343 7.72409 8.79536 9.4563 5.92691C9.74884 5.44255 10.5015 5.45994 11.1166 5.96422C14.8331 9.01097 26.1221 19.2076 17.1688 24.0128C16.7773 24.2229 16.2405 24.2043 15.7063 23.9636Z" fill="#CCC033"/>
<path d="M10.0048 11.2435C10.0048 13.3531 11.715 15.0633 13.8246 15.0633C15.9342 15.0633 17.6444 13.3531 17.6444 11.2435C17.6444 9.13392 15.9342 7.42374 13.8246 7.42374C11.715 7.42374 10.0048 9.13392 10.0048 11.2435Z" fill="#FF624B"/>
<path d="M13.8246 10.0193C15.4785 10.0193 16.8866 11.0706 17.4179 12.5412C17.5643 12.1361 17.6444 11.6992 17.6444 11.2434C17.6444 9.13381 15.9342 7.42361 13.8246 7.42361C11.715 7.42361 10.0048 9.13381 10.0048 11.2434C10.0048 11.6992 10.085 12.1361 10.2314 12.5412C10.7626 11.0706 12.1707 10.0193 13.8246 10.0193Z" fill="#FF4B34"/>
<path d="M11.8459 13.0623C11.8459 12.9749 11.8686 12.8865 11.9165 12.806C12.0584 12.5675 12.3667 12.4891 12.6051 12.631C13.2906 13.0386 13.8788 13.1779 14.3531 13.0448C14.8536 12.9043 15.0741 12.4972 15.0832 12.4799C15.2072 12.2317 15.5076 12.1334 15.7558 12.2574C16.004 12.3813 16.1035 12.6855 15.9796 12.9338C15.9388 13.0155 15.5554 13.739 14.6503 14.0048C13.8948 14.2267 13.0338 14.0551 12.0915 13.4946C11.9336 13.4006 11.8459 13.2336 11.8459 13.0623Z" fill="#FF9079"/>
<path d="M21.3814 12.8825C21.3814 15.3116 23.3505 17.2807 25.7796 17.2807C28.2087 17.2807 30.1779 15.3116 30.1779 12.8825C30.1779 10.4534 28.2087 8.48423 25.7796 8.48423C23.3505 8.48423 21.3814 10.4534 21.3814 12.8825Z" fill="#FF624B"/>
<path d="M25.7796 11.4729C27.684 11.4729 29.3053 12.6834 29.9171 14.3767C30.0856 13.9102 30.1779 13.4071 30.1779 12.8824C30.1779 10.4533 28.2087 8.48413 25.7796 8.48413C23.3505 8.48413 21.3814 10.4533 21.3814 12.8824C21.3814 13.4071 21.4736 13.9102 21.6422 14.3767C22.2539 12.6834 23.8752 11.4729 25.7796 11.4729Z" fill="#FF4B34"/>
<path d="M23.5012 14.9766C23.5012 14.8761 23.5275 14.7743 23.5826 14.6815C23.7459 14.4069 24.1009 14.3167 24.3755 14.48C25.1648 14.9494 25.842 15.1098 26.3882 14.9565C26.9645 14.7947 27.2183 14.326 27.2289 14.3061C27.3715 14.0202 27.7175 13.9072 28.0032 14.0498C28.2891 14.1925 28.4036 14.5428 28.2609 14.8287C28.214 14.9227 27.7725 15.7558 26.7303 16.0619C25.8604 16.3174 24.8691 16.1198 23.784 15.4745C23.6023 15.3662 23.5012 15.1739 23.5012 14.9766Z" fill="#FF9079"/>
<path fill-rule="evenodd" clip-rule="evenodd" d="M9.62169 18.1124C9.62169 19.6225 10.8913 20.8955 12.5187 20.8955C14.1461 20.8955 15.4158 19.6225 15.4158 18.1124C15.4158 16.6023 14.1461 15.3293 12.5187 15.3293C10.8913 15.3293 9.62169 16.6023 9.62169 18.1124ZM12.5187 21.8596C10.3863 21.8596 8.65758 20.182 8.65758 18.1124C8.65758 16.0429 10.3863 14.3652 12.5187 14.3652C14.6512 14.3652 16.3799 16.0429 16.3799 18.1124C16.3799 20.182 14.6512 21.8596 12.5187 21.8596Z" fill="#FFD59A"/>
<path fill-rule="evenodd" clip-rule="evenodd" d="M11.1737 18.1251C11.1737 18.7791 11.7389 19.3785 12.5234 19.3785C13.308 19.3785 13.8732 18.7791 13.8732 18.1251C13.8732 17.4712 13.308 16.8718 12.5234 16.8718C11.7389 16.8718 11.1737 17.4712 11.1737 18.1251ZM12.5234 20.3426C11.2455 20.3426 10.2096 19.3498 10.2096 18.1251C10.2096 16.9005 11.2455 15.9077 12.5234 15.9077C13.8013 15.9077 14.8373 16.9005 14.8373 18.1251C14.8373 19.3498 13.8013 20.3426 12.5234 20.3426Z" fill="#FFF4C1"/>
<path fill-rule="evenodd" clip-rule="evenodd" d="M18.2135 10.0744C18.2135 11.5845 19.4831 12.8576 21.1105 12.8576C22.7379 12.8576 24.0076 11.5845 24.0076 10.0744C24.0076 8.56438 22.7379 7.29132 21.1105 7.29132C19.4831 7.29132 18.2135 8.56438 18.2135 10.0744ZM21.1105 13.8217C18.9781 13.8217 17.2494 12.144 17.2494 10.0744C17.2494 8.0049 18.9781 6.32721 21.1105 6.32721C23.243 6.32721 24.9717 8.0049 24.9717 10.0744C24.9717 12.144 23.243 13.8217 21.1105 13.8217Z" fill="#FFD59A"/>
<path fill-rule="evenodd" clip-rule="evenodd" d="M19.7655 10.0873C19.7655 10.7412 20.3307 11.3406 21.1152 11.3406C21.8997 11.3406 22.465 10.7412 22.465 10.0873C22.465 9.43334 21.8997 8.83394 21.1152 8.83394C20.3307 8.83394 19.7655 9.43334 19.7655 10.0873ZM21.1152 12.3047C19.8373 12.3047 18.8014 11.3119 18.8014 10.0873C18.8014 8.86262 19.8373 7.86983 21.1152 7.86983C22.3931 7.86983 23.4291 8.86262 23.4291 10.0873C23.4291 11.3119 22.3931 12.3047 21.1152 12.3047Z" fill="#FFF4C1"/>
<path fill-rule="evenodd" clip-rule="evenodd" d="M25.2627 18.3299C25.2627 19.8399 26.5323 21.113 28.1597 21.113C29.7871 21.113 31.0568 19.8399 31.0568 18.3299C31.0568 16.8198 29.7871 15.5467 28.1597 15.5467C26.5323 15.5467 25.2627 16.8198 25.2627 18.3299ZM28.1597 22.0771C26.0273 22.0771 24.2986 20.3994 24.2986 18.3299C24.2986 16.2603 26.0273 14.5826 28.1597 14.5826C30.2922 14.5826 32.0209 16.2603 32.0209 18.3299C32.0209 20.3994 30.2922 22.0771 28.1597 22.0771Z" fill="#FFD59A"/>
<path fill-rule="evenodd" clip-rule="evenodd" d="M26.8147 18.3426C26.8147 18.9966 27.3799 19.596 28.1644 19.596C28.9489 19.596 29.5142 18.9966 29.5142 18.3426C29.5142 17.6887 28.9489 17.0893 28.1644 17.0893C27.3799 17.0893 26.8147 17.6887 26.8147 18.3426ZM28.1644 20.5601C26.8865 20.5601 25.8506 19.5673 25.8506 18.3426C25.8506 17.118 26.8865 16.1252 28.1644 16.1252C29.4423 16.1252 30.4783 17.118 30.4783 18.3426C30.4783 19.5673 29.4423 20.5601 28.1644 20.5601Z" fill="#FFF4C1"/>
<path d="M10.0049 23.7769C10.0049 26.206 11.9741 28.1751 14.4031 28.1751C16.8322 28.1751 18.8014 26.206 18.8014 23.7769C18.8014 21.3478 16.8322 19.3786 14.4031 19.3786C11.9741 19.3786 10.0049 21.3478 10.0049 23.7769Z" fill="#FF624B"/>
<path d="M14.4031 22.3673C16.3075 22.3673 17.9289 23.5778 18.5406 25.2711C18.7091 24.8046 18.8014 24.3015 18.8014 23.7768C18.8014 21.3477 16.8322 19.3785 14.4031 19.3785C11.9741 19.3785 10.0049 21.3477 10.0049 23.7768C10.0049 24.3015 10.0972 24.8046 10.2658 25.2711C10.8774 23.5778 12.4987 22.3673 14.4031 22.3673Z" fill="#FF4B34"/>
<path d="M12.1248 25.871C12.1248 25.7705 12.151 25.6687 12.2061 25.5759C12.3695 25.3013 12.7244 25.2111 12.999 25.3744C13.7883 25.8438 14.4655 26.0042 15.0117 25.8509C15.588 25.6891 15.8419 25.2203 15.8524 25.2005C15.9951 24.9146 16.341 24.8015 16.6268 24.9442C16.9126 25.0869 17.0272 25.4372 16.8845 25.7231C16.8375 25.8171 16.396 26.6502 15.3538 26.9563C14.4839 27.2118 13.4926 27.0142 12.4075 26.3689C12.2258 26.2606 12.1248 26.0683 12.1248 25.871Z" fill="#FF9079"/>
<path d="M21.3812 24.3071C21.3812 26.2304 22.9403 27.7895 24.8636 27.7895C26.7868 27.7895 28.3459 26.2304 28.3459 24.3071C28.3459 22.3839 26.7868 20.8248 24.8636 20.8248C22.9403 20.8248 21.3812 22.3839 21.3812 24.3071Z" fill="#FF624B"/>
<path d="M24.8636 23.191C26.3714 23.191 27.6551 24.1495 28.1395 25.4902C28.2729 25.1208 28.3459 24.7225 28.3459 24.307C28.3459 22.3838 26.7868 20.8247 24.8636 20.8247C22.9404 20.8247 21.3812 22.3838 21.3812 24.307C21.3812 24.7225 21.4543 25.1208 21.5878 25.4902C22.0721 24.1495 23.3558 23.191 24.8636 23.191Z" fill="#FF4B34"/>
<path d="M23.0596 25.9652C23.0596 25.8856 23.0804 25.805 23.124 25.7315C23.2533 25.5141 23.5344 25.4427 23.7518 25.572C24.3768 25.9437 24.9129 26.0706 25.3454 25.9492C25.8017 25.8211 26.0027 25.45 26.011 25.4343C26.124 25.208 26.3978 25.1184 26.6241 25.2314C26.8504 25.3444 26.9411 25.6217 26.8281 25.8481C26.791 25.9225 26.4414 26.5821 25.6163 26.8245C24.9275 27.0268 24.1426 26.8703 23.2835 26.3594C23.1396 26.2737 23.0596 26.1214 23.0596 25.9652Z" fill="#FF9079"/>
<path d="M21.3814 35.1533C21.3814 37.5824 23.3505 39.5516 25.7796 39.5516C28.2087 39.5516 30.1779 37.5824 30.1779 35.1533C30.1779 32.7242 28.2087 30.7551 25.7796 30.7551C23.3505 30.7551 21.3814 32.7242 21.3814 35.1533Z" fill="#FF624B"/>
<path d="M25.7796 33.7437C27.684 33.7437 29.3053 34.9543 29.9171 36.6476C30.0856 36.1811 30.1779 35.678 30.1779 35.1532C30.1779 32.7242 28.2087 30.755 25.7796 30.755C23.3505 30.755 21.3814 32.7242 21.3814 35.1532C21.3814 35.678 21.4736 36.1811 21.6422 36.6476C22.2539 34.9542 23.8752 33.7437 25.7796 33.7437Z" fill="#FF4B34"/>
<path d="M23.5012 37.2475C23.5012 37.1469 23.5275 37.0451 23.5826 36.9524C23.7459 36.6778 24.1009 36.5875 24.3755 36.7509C25.1648 37.2203 25.842 37.3806 26.3882 37.2273C26.9645 37.0655 27.2183 36.5968 27.2289 36.5769C27.3715 36.2911 27.7175 36.178 28.0032 36.3207C28.2891 36.4634 28.4036 36.8136 28.2609 37.0996C28.214 37.1936 27.7725 38.0267 26.7303 38.3328C25.8604 38.5883 24.8691 38.3906 23.784 37.7453C23.6023 37.6371 23.5012 37.4447 23.5012 37.2475Z" fill="#FF9079"/>
<path d="M14.2306 38.5279C0.725487 36.2266 2.68468 25.8597 3.6384 22.6474C3.7995 22.105 4.53229 21.9322 5.25459 22.2653C9.61869 24.2775 23.1123 31.3013 15.6583 38.2071C15.3323 38.509 14.8082 38.6263 14.2306 38.5279Z" fill="#CCC033"/>
<path d="M9.32996 35.6354C9.32996 38.0645 11.2991 40.0336 13.7282 40.0336C16.1573 40.0336 18.1265 38.0645 18.1265 35.6354C18.1265 33.2063 16.1573 31.2371 13.7282 31.2371C11.2991 31.2371 9.32996 33.2063 9.32996 35.6354Z" fill="#FF624B"/>
<path d="M13.7282 34.2258C15.6326 34.2258 17.2539 35.4363 17.8657 37.1297C18.0342 36.6631 18.1265 36.1601 18.1265 35.6353C18.1265 33.2062 16.1573 31.237 13.7282 31.237C11.2991 31.237 9.32996 33.2062 9.32996 35.6353C9.32996 36.1601 9.42222 36.6631 9.59085 37.1297C10.2025 35.4363 11.8238 34.2258 13.7282 34.2258Z" fill="#FF4B34"/>
<path d="M11.4498 37.7295C11.4498 37.629 11.4761 37.5272 11.5312 37.4344C11.6945 37.1598 12.0495 37.0696 12.3241 37.2329C13.1134 37.7023 13.7906 37.8627 14.3368 37.7094C14.9131 37.5476 15.167 37.0788 15.1775 37.059C15.3201 36.7731 15.6661 36.66 15.9518 36.8027C16.2377 36.9454 16.3522 37.2957 16.2095 37.5816C16.1626 37.6756 15.7211 38.5087 14.6789 38.8148C13.809 39.0703 12.8177 38.8727 11.7326 38.2274C11.5509 38.1191 11.4498 37.9268 11.4498 37.7295Z" fill="#FF9079"/>
<path fill-rule="evenodd" clip-rule="evenodd" d="M10.2114 31.8386C10.2114 33.3487 11.481 34.6217 13.1085 34.6217C14.7359 34.6217 16.0055 33.3487 16.0055 31.8386C16.0055 30.3286 14.7359 29.0555 13.1085 29.0555C11.481 29.0555 10.2114 30.3286 10.2114 31.8386ZM13.1085 35.5859C10.976 35.5859 9.2473 33.9082 9.2473 31.8386C9.2473 29.7691 10.976 28.0914 13.1085 28.0914C15.2409 28.0914 16.9696 29.7691 16.9696 31.8386C16.9696 33.9082 15.2409 35.5859 13.1085 35.5859Z" fill="#FFD59A"/>
<path fill-rule="evenodd" clip-rule="evenodd" d="M11.7634 31.8514C11.7634 32.5053 12.3286 33.1047 13.1131 33.1047C13.8977 33.1047 14.4629 32.5053 14.4629 31.8514C14.4629 31.1974 13.8977 30.598 13.1131 30.598C12.3286 30.598 11.7634 31.1974 11.7634 31.8514ZM13.1131 34.0688C11.8352 34.0688 10.7993 33.076 10.7993 31.8514C10.7993 30.6267 11.8352 29.6339 13.1131 29.6339C14.3911 29.6339 15.427 30.6267 15.427 31.8514C15.427 33.076 14.3911 34.0688 13.1131 34.0688Z" fill="#FFF4C1"/>
</svg>
