<svg width="58" height="45" viewBox="0 0 58 45" fill="none" xmlns="http://www.w3.org/2000/svg">
<path d="M29.1644 23.5279C31.9431 14.7304 28.8104 5.89754 22.1673 3.79927C15.5242 1.70099 7.88619 7.13183 5.10743 15.9294C2.32868 24.7269 5.46138 33.5598 12.1045 35.658C18.7477 37.7563 26.3856 32.3255 29.1644 23.5279Z" fill="#A56021"/>
<path d="M9.77167 17.4039C12.2166 9.66369 18.4231 4.53085 24.4039 4.83819C23.7113 4.40341 22.9644 4.05314 22.1664 3.80108C15.5235 1.70276 7.88567 7.13316 5.10687 15.9304C2.32807 24.7276 5.46045 33.5601 12.1032 35.6584C12.9014 35.9104 13.7138 36.0528 14.5305 36.0947C9.45846 32.9108 7.32676 25.144 9.77167 17.4039Z" fill="#8C4C17"/>
<path d="M12.5062 35.6088C12.0559 35.6088 11.6228 35.3592 11.4094 34.9286C8.95437 29.9744 9.996 26.1445 11.3024 23.8039C12.7059 21.2892 14.6972 19.9513 14.7813 19.8955C14.7854 19.8927 14.7897 19.8899 14.794 19.8872C18.8159 17.2932 21.1306 14.4657 21.6739 11.4834C22.2377 8.38883 20.6697 6.22728 20.6537 6.20575C20.2517 5.66298 20.3658 4.89714 20.9085 4.49501C21.4512 4.09301 22.2172 4.20699 22.6193 4.74976C22.7099 4.87219 24.832 7.79603 24.0802 11.9217C23.4113 15.5934 20.736 18.963 16.1288 21.9367C15.8272 22.1411 9.86893 26.312 13.6008 33.8425C13.9007 34.4477 13.6533 35.1814 13.048 35.4813C12.8739 35.5679 12.6887 35.6088 12.5062 35.6088Z" fill="#8C4C17"/>
<path d="M17.0814 32.9075C18.0946 32.9075 18.9159 32.0861 18.9159 31.0729C18.9159 30.0598 18.0946 29.2384 17.0814 29.2384C16.0682 29.2384 15.2469 30.0598 15.2469 31.0729C15.2469 32.0861 16.0682 32.9075 17.0814 32.9075Z" fill="#8C4C17"/>
<path d="M51.562 34.1534C55.1176 28.1631 51.569 19.4897 43.6359 14.7809C35.7027 10.0722 26.3893 11.1111 22.8336 17.1015C19.278 23.0919 22.8266 31.7653 30.7597 36.474C38.6929 41.1828 48.0063 40.1438 51.562 34.1534Z" fill="#E58D23"/>
<path d="M33.2579 32.2656C26.2775 28.1227 22.6925 20.9107 24.3534 15.157C23.7723 15.7324 23.2612 16.3799 22.834 17.0996C19.2785 23.0903 22.8276 31.7638 30.761 36.4725C38.6944 41.1812 48.0082 40.1419 51.5637 34.1513C51.9909 33.4315 52.3144 32.6728 52.5413 31.8871C48.2862 36.101 40.2382 36.4086 33.2579 32.2656Z" fill="#BF6C0D"/>
<path d="M47.3185 35.0716C43.8049 35.0717 41.3704 33.6276 39.8384 32.2322C37.7093 30.2932 36.8598 28.0494 36.8246 27.9549C36.8228 27.9501 36.8211 27.9454 36.8194 27.9406C35.2176 23.4576 33.0057 20.5663 30.2452 19.3467C27.3832 18.0825 24.9277 19.0798 24.8245 19.1227C24.2046 19.3905 23.488 19.1037 23.2201 18.4837C22.9523 17.8636 23.241 17.1424 23.861 16.8744C24.0011 16.814 27.331 15.4133 31.1773 17.0847C34.6002 18.572 37.2722 21.944 39.1191 27.1072C39.2495 27.4475 41.9549 34.1987 50.1366 32.2793C50.7949 32.125 51.4524 32.5331 51.6066 33.1907C51.761 33.8482 51.353 34.5064 50.6954 34.6608C49.4741 34.9471 48.3495 35.0716 47.3185 35.0716Z" fill="#A56021"/>
<path d="M45.3414 23.8755C46.3546 23.8755 47.1759 23.0542 47.1759 22.041C47.1759 21.0279 46.3546 20.2065 45.3414 20.2065C44.3282 20.2065 43.5069 21.0279 43.5069 22.041C43.5069 23.0542 44.3282 23.8755 45.3414 23.8755Z" fill="#BF6C0D"/>
<path d="M48.5814 29.3317C49.5946 29.3317 50.4159 28.5104 50.4159 27.4972C50.4159 26.4841 49.5946 25.6627 48.5814 25.6627C47.5682 25.6627 46.7469 26.4841 46.7469 27.4972C46.7469 28.5104 47.5682 29.3317 48.5814 29.3317Z" fill="#BF6C0D"/>
</svg>
