<svg width="24" height="25" viewBox="0 0 24 25" fill="none" xmlns="http://www.w3.org/2000/svg">
<circle cx="12" cy="12.6064" r="12" fill="#E36B49"/>
<path fill-rule="evenodd" clip-rule="evenodd" d="M11.6101 12.9949C11.0686 12.4529 10.621 11.8671 10.3836 11.3926C10.3056 11.2368 10.2571 11.1061 10.2358 11.0127L10.7161 10.5321C10.8215 10.4266 10.8721 10.3753 10.9376 10.3064C11.0763 10.1607 11.1919 10.0275 11.2937 9.89038C11.7514 9.27364 11.9214 8.60225 11.3797 7.99768C10.3539 6.56283 9.66385 5.67536 9.22143 5.23835C8.30856 4.33663 6.82132 4.45743 6.02965 5.23746C5.64738 5.6141 5.51744 5.74397 5.12492 6.14264C2.83257 8.43611 4.19973 13.1775 7.81206 16.7932C11.4238 20.4083 16.1655 21.7763 18.464 19.4767C18.8248 19.129 19.1331 18.8205 19.3771 18.5627C20.1494 17.7464 20.266 16.3232 19.3712 15.3935C18.9457 14.9514 18.0995 14.2947 16.6028 13.2239C16.0553 12.7386 15.415 12.8439 14.8461 13.2171C14.5898 13.3852 14.4096 13.5496 14.0701 13.8894L13.5902 14.3695C13.4969 14.3482 13.3664 14.2997 13.2108 14.2218C12.7365 13.9843 12.1513 13.5366 11.6101 12.9949ZM14.888 15.8989L15.484 15.3026C15.5858 15.2007 15.6663 15.1221 15.7329 15.0604C16.9396 15.9303 17.6458 16.4836 17.931 16.7799C18.028 16.8807 18.0101 17.0987 17.9251 17.1885C17.7045 17.4217 17.4169 17.7095 17.0633 18.0505C15.7585 19.3557 12.161 18.3178 9.22611 15.3801C6.29008 12.4414 5.25247 8.84285 6.54396 7.5507C6.93445 7.15413 7.05726 7.03139 7.43253 6.66165C7.49211 6.60294 7.738 6.58297 7.81674 6.66076C8.12478 6.96503 8.70156 7.70016 9.54461 8.86937C9.52731 8.88822 9.50896 8.90783 9.48955 8.92822C9.43885 8.9815 9.39613 9.02481 9.30206 9.11897L8.70644 9.71489C7.55963 10.8616 8.46968 12.68 10.1961 14.408C11.9214 16.135 13.7412 17.0463 14.888 15.8989Z" fill="white"/>
</svg>
