<svg width="24" height="25" viewBox="0 0 24 25" fill="none" xmlns="http://www.w3.org/2000/svg">
<circle cx="12" cy="12.3208" r="12" fill="#89CAC6"/>
<path fill-rule="evenodd" clip-rule="evenodd" d="M11.6101 12.7093C11.0686 12.1672 10.621 11.5815 10.3836 11.107C10.3056 10.9512 10.2571 10.8205 10.2358 10.727L10.7161 10.2464C10.8215 10.141 10.8721 10.0896 10.9376 10.0208C11.0763 9.87503 11.1919 9.74182 11.2937 9.60473C11.7514 8.98799 11.9214 8.3166 11.3797 7.71203C10.3539 6.27718 9.66385 5.38972 9.22143 4.9527C8.30856 4.05098 6.82132 4.17178 6.02965 4.95181C5.64738 5.32846 5.51744 5.45833 5.12492 5.857C2.83257 8.15046 4.19973 12.8919 7.81206 16.5076C11.4238 20.1227 16.1655 21.4907 18.464 19.1911C18.8248 18.8433 19.1331 18.5348 19.3771 18.277C20.1494 17.4607 20.266 16.0376 19.3712 15.1078C18.9457 14.6657 18.0995 14.0091 16.6028 12.9383C16.0553 12.4529 15.415 12.5582 14.8461 12.9314C14.5898 13.0995 14.4096 13.2639 14.0701 13.6037L13.5902 14.0838C13.4969 14.0625 13.3664 14.0141 13.2108 13.9362C12.7365 13.6986 12.1513 13.2509 11.6101 12.7093ZM14.888 15.6133L15.484 15.017C15.5858 14.9151 15.6663 14.8365 15.7329 14.7748C16.9396 15.6447 17.6458 16.1979 17.931 16.4943C18.028 16.595 18.0101 16.8131 17.9251 16.9029C17.7045 17.136 17.4169 17.4238 17.0633 17.7649C15.7585 19.07 12.161 18.0322 9.22611 15.0945C6.29008 12.1557 5.25247 8.5572 6.54396 7.26506C6.93445 6.86849 7.05726 6.74575 7.43253 6.376C7.49211 6.3173 7.738 6.29732 7.81674 6.37511C8.12478 6.67939 8.70156 7.41451 9.54461 8.58373C9.52731 8.60257 9.50896 8.62218 9.48955 8.64258C9.43885 8.69586 9.39613 8.73916 9.30206 8.83332L8.70644 9.42925C7.55963 10.5759 8.46968 12.3944 10.1961 14.1224C11.9214 15.8494 13.7412 16.7607 14.888 15.6133Z" fill="black"/>
</svg>
