<svg width="24" height="35" viewBox="0 0 24 35" fill="none" xmlns="http://www.w3.org/2000/svg">
<path d="M24 11.3559C24 17.2927 12 34.3207 12 34.3207C12 34.3207 0 17.2927 0 11.3559C0 5.41915 5.37258 0.606445 12 0.606445C18.6274 0.606445 24 5.41915 24 11.3559Z" fill="#89CAC6"/>
<path d="M16.8837 10.3155C16.687 10.6825 15.9545 11.8701 14.2692 12.9652C12.7968 13.9194 10.9714 14.5573 8.84282 14.8567C7.92496 14.2769 7.20968 13.4265 6.79568 12.4228C6.38168 11.4192 6.28937 10.3118 6.53149 9.25344C7.09699 9.59729 7.72104 9.83392 8.37234 9.95147C10.2462 10.3185 11.2775 12.08 11.32 12.1534L11.7208 12.883L12.1355 12.1615C12.1458 12.1432 13.1734 10.3698 14.7045 9.89055L14.8711 9.83844L14.9606 9.81055C15.5911 9.61531 16.1908 9.42961 16.7222 9.12427C16.8222 9.51373 16.8764 9.91352 16.8837 10.3155Z" fill="black"/>
<path d="M17.2999 7.38977C17.2911 7.40299 17.2838 7.41619 17.2749 7.42867C17.2179 7.52165 17.1557 7.61135 17.0885 7.69731C16.8609 7.95002 16.596 8.16659 16.3031 8.33955C15.8928 8.57957 15.4011 8.73224 14.8352 8.9084L14.7317 8.9407L14.4674 9.02217C13.1881 9.42366 12.2236 10.4975 11.7311 11.1507C11.2026 10.4718 10.1259 9.37375 8.50597 9.05593C7.94597 8.95017 7.40918 8.74589 6.92055 8.45259C6.65402 8.29164 6.42081 8.0811 6.23353 7.83236C6.21298 7.80594 6.19463 7.78098 6.17702 7.75896L6.15206 7.72153L6.14766 7.71493C6.1334 7.69481 6.12018 7.67399 6.10802 7.65254L6.10068 7.64079L6.0882 7.61951C6.05737 7.57034 6.02948 7.51895 6.00086 7.4617C5.99205 7.44482 5.98397 7.42867 5.97663 7.41105C5.96929 7.39344 5.95315 7.35894 5.9436 7.33326L6.48823 7.16737C6.56178 7.32779 6.65902 7.47625 6.77669 7.60777L6.79063 7.62391C6.85249 7.69449 6.91842 7.76139 6.98808 7.82429L7.0556 7.88594L7.10111 7.80668C7.12239 7.77071 7.14368 7.73328 7.1657 7.69805C7.62947 6.93401 8.28101 6.30133 9.05835 5.86021C9.83568 5.41909 10.713 5.18419 11.6067 5.17787C12.5005 5.17154 13.381 5.39399 14.1645 5.82407C14.948 6.25414 15.6084 6.87753 16.0829 7.63492C16.1028 7.66502 16.1219 7.69585 16.1402 7.72667L16.1842 7.80007L16.2496 7.74649C16.3213 7.6883 16.3897 7.62606 16.4544 7.56006L16.4632 7.55051C16.5956 7.41341 16.7128 7.2623 16.8125 7.09984L17.2999 7.38977Z" fill="black"/>
<path d="M7.48864 14.999C7.22514 15.0174 6.95723 15.0306 6.69152 15.0394C6.61372 14.6364 6.54839 14.2379 6.49481 13.8489C6.77742 14.2718 7.11123 14.6581 7.48864 14.999Z" fill="black"/>
<path d="M16.8756 13.9951C16.6239 16.3225 15.8037 18.5523 14.4872 20.488C13.7164 21.6177 12.7756 22.6214 11.698 23.4636L8.36278 19.9992H8.32975C8.09928 20.0109 7.85926 20.0175 7.61705 20.0175H2.85712V19.376H7.76238L4.45942 15.9424C4.96734 15.9703 5.45667 15.9842 5.9274 15.9842C10.3791 15.9842 13.2012 14.7842 14.8329 13.7089C15.5537 13.2403 16.2101 12.6794 16.7853 12.0405C16.8477 11.9671 16.9086 11.8988 16.9718 11.824C16.9886 12.549 16.9565 13.2744 16.8756 13.9951Z" fill="black"/>
<path d="M20.4479 19.3784V20.0199H15.9016L16.2547 19.3784H20.4479Z" fill="black"/>
</svg>
