<svg width="24" height="25" viewBox="0 0 24 25" fill="none" xmlns="http://www.w3.org/2000/svg">
<circle cx="12" cy="12.6064" r="12" fill="#E36B49"/>
<path fill-rule="evenodd" clip-rule="evenodd" d="M12 20.6064C7.58172 20.6064 4 17.0247 4 12.6064C4 8.18817 7.58172 4.60645 12 4.60645C16.4183 4.60645 20 8.18817 20 12.6064C20 17.0247 16.4183 20.6064 12 20.6064ZM12 18.6064C15.3137 18.6064 18 15.9202 18 12.6064C18 9.29274 15.3137 6.60645 12 6.60645C8.68629 6.60645 6 9.29274 6 12.6064C6 15.9202 8.68629 18.6064 12 18.6064ZM11.003 13.6048H15.003V11.6048H13.0036V8.60479H11.003V13.6048Z" fill="white"/>
</svg>
