<svg width="24" height="25" viewBox="0 0 24 25" fill="none" xmlns="http://www.w3.org/2000/svg">
<circle cx="12" cy="12.3208" r="12" fill="#89CAC6"/>
<path fill-rule="evenodd" clip-rule="evenodd" d="M12 20.3208C7.58172 20.3208 4 16.7391 4 12.3208C4 7.90252 7.58172 4.3208 12 4.3208C16.4183 4.3208 20 7.90252 20 12.3208C20 16.7391 16.4183 20.3208 12 20.3208ZM12 18.3208C15.3137 18.3208 18 15.6345 18 12.3208C18 9.00709 15.3137 6.3208 12 6.3208C8.68629 6.3208 6 9.00709 6 12.3208C6 15.6345 8.68629 18.3208 12 18.3208ZM11.003 13.3191H15.003V11.3191H13.0036V8.31915H11.003V13.3191Z" fill="black"/>
</svg>
