<svg width="32" height="33" viewBox="0 0 32 33" fill="none" xmlns="http://www.w3.org/2000/svg">
<g id="Telegram" clip-path="url(#clip0_234_896)">
<g id="Telegram_2">
<rect id="Rectangle" y="0.560547" width="32" height="32" rx="16" fill="#419FD9"/>
<path id="Exclude" fill-rule="evenodd" clip-rule="evenodd" d="M19.557 24.4834C20.6753 24.9727 21.0947 23.9475 21.0947 23.9475L24.0536 9.08295C24.0303 8.0811 22.679 8.68687 22.679 8.68687L6.11359 15.1872C6.11359 15.1872 5.32143 15.4668 5.39133 15.9561C5.46123 16.4454 6.09029 16.6783 6.09029 16.6783L10.2608 18.0763C10.2608 18.0763 11.5189 22.2001 11.7752 22.9923C12.0082 23.7612 12.2179 23.7845 12.2179 23.7845C12.4509 23.8777 12.6605 23.7146 12.6605 23.7146L15.3632 21.2682L19.557 24.4834ZM20.2793 11.7155C20.2793 11.7155 20.8617 11.3661 20.8384 11.7155C20.8384 11.7155 20.9316 11.7621 20.6287 12.0883C20.3491 12.3679 13.7556 18.2858 12.8702 19.078C12.8004 19.1245 12.7538 19.1944 12.7538 19.2876L12.4975 21.4777C12.4509 21.7107 12.148 21.734 12.0781 21.5243L10.9831 17.9363C10.9365 17.7965 10.9831 17.6334 11.1228 17.5402L20.2793 11.7155Z" fill="white"/>
</g>
</g>
<defs>
<clipPath id="clip0_234_896">
<rect width="32" height="32" fill="white" transform="translate(0 0.560547)"/>
</clipPath>
</defs>
</svg>
