<svg width="32" height="33" viewBox="0 0 32 33" fill="none" xmlns="http://www.w3.org/2000/svg">
<rect y="0.560547" width="32" height="32" rx="16" fill="#5181B8"/>
<path fill-rule="evenodd" clip-rule="evenodd" d="M26.1772 11.5839C26.3256 11.0895 26.1772 10.7261 25.4714 10.7261H23.1375C22.5441 10.7261 22.2707 11.04 22.1223 11.3862C22.1223 11.3862 20.9354 14.2791 19.254 16.1582C18.71 16.7021 18.4628 16.875 18.166 16.875C18.0177 16.875 17.803 16.7021 17.803 16.2077V11.5839C17.803 10.9905 17.6307 10.7261 17.1361 10.7261H13.4686C13.0979 10.7261 12.8748 11.0015 12.8748 11.2625C12.8748 11.8252 13.7153 11.9549 13.802 13.5372V16.9742C13.802 17.7277 13.666 17.8644 13.3693 17.8644C12.5781 17.8644 10.6536 14.9584 9.51202 11.6335C9.2883 10.9871 9.06391 10.7261 8.46744 10.7261H6.13356C5.46674 10.7261 5.33337 11.04 5.33337 11.3862C5.33337 12.0044 6.12473 15.0704 9.01757 19.1254C10.9464 21.8943 13.6633 23.3957 16.1359 23.3957C17.6196 23.3957 17.803 23.0623 17.803 22.488V20.395C17.803 19.7282 17.9435 19.5951 18.4131 19.5951C18.7595 19.5951 19.3528 19.7682 20.7376 21.1033C22.32 22.6855 22.5807 23.3957 23.4709 23.3957H25.8048C26.4716 23.3957 26.8051 23.0623 26.6127 22.4043C26.4023 21.7485 25.6468 20.7973 24.6442 19.6693C24.1003 19.0263 23.2842 18.334 23.0372 17.9879C22.6909 17.5428 22.7898 17.3451 23.0372 16.9497C23.0372 16.9497 25.8805 12.9441 26.1772 11.5841V11.5839Z" fill="white"/>
</svg>
