<svg width="32" height="33" viewBox="0 0 32 33" fill="none" xmlns="http://www.w3.org/2000/svg">
<g id="Instagram" clip-path="url(#clip0_234_892)">
<g id="Instagram_2">
<rect id="Rectangle" y="0.560547" width="32" height="32" rx="16" fill="url(#paint0_linear_234_892)"/>
<path id="Vector" d="M12.6676 16.5605C12.6676 14.7197 14.1595 13.2269 16.0004 13.2269C17.8412 13.2269 19.334 14.7197 19.334 16.5605C19.334 18.4014 17.8412 19.8941 16.0004 19.8941C14.1595 19.8941 12.6676 18.4014 12.6676 16.5605ZM10.8655 16.5605C10.8655 19.3965 13.1644 21.6954 16.0004 21.6954C18.8364 21.6954 21.1352 19.3965 21.1352 16.5605C21.1352 13.7245 18.8364 11.4257 16.0004 11.4257C13.1644 11.4257 10.8655 13.7245 10.8655 16.5605ZM20.1385 11.2221C20.1384 11.4594 20.2087 11.6914 20.3405 11.8888C20.4723 12.0862 20.6596 12.2401 20.8789 12.331C21.0981 12.4219 21.3394 12.4458 21.5722 12.3996C21.805 12.3534 22.0188 12.2392 22.1867 12.0714C22.3546 11.9037 22.469 11.6899 22.5154 11.4571C22.5618 11.2244 22.5381 10.9831 22.4474 10.7638C22.3566 10.5445 22.2029 10.357 22.0056 10.2251C21.8083 10.0931 21.5763 10.0226 21.339 10.0225H21.3385C21.0204 10.0227 20.7153 10.1491 20.4903 10.374C20.2653 10.5989 20.1388 10.9039 20.1385 11.2221ZM11.9604 24.7003C10.9854 24.6559 10.4555 24.4935 10.1033 24.3563C9.63645 24.1745 9.30333 23.9581 8.95309 23.6083C8.60285 23.2585 8.38605 22.9257 8.20509 22.4589C8.06781 22.1069 7.90541 21.5768 7.86109 20.6018C7.81261 19.5477 7.80293 19.2311 7.80293 16.5606C7.80293 13.8901 7.81341 13.5744 7.86109 12.5194C7.90549 11.5445 8.06909 11.0154 8.20509 10.6624C8.38685 10.1955 8.60333 9.86239 8.95309 9.51215C9.30285 9.16191 9.63565 8.94511 10.1033 8.76415C10.4553 8.62687 10.9854 8.46447 11.9604 8.42015C13.0144 8.37167 13.3311 8.36199 16.0004 8.36199C18.6696 8.36199 18.9866 8.37247 20.0416 8.42015C21.0165 8.46455 21.5456 8.62815 21.8986 8.76415C22.3655 8.94511 22.6986 9.16239 23.0488 9.51215C23.3991 9.86191 23.6151 10.1955 23.7968 10.6624C23.9341 11.0144 24.0965 11.5445 24.1408 12.5194C24.1893 13.5744 24.199 13.8901 24.199 16.5606C24.199 19.2311 24.1893 19.5469 24.1408 20.6018C24.0964 21.5768 23.9332 22.1067 23.7968 22.4589C23.6151 22.9257 23.3986 23.2589 23.0488 23.6083C22.6991 23.9577 22.3655 24.1745 21.8986 24.3563C21.5466 24.4936 21.0165 24.656 20.0416 24.7003C18.9875 24.7488 18.6708 24.7585 16.0004 24.7585C13.3299 24.7585 13.0141 24.7488 11.9604 24.7003ZM11.8776 6.62111C10.813 6.66959 10.0856 6.83839 9.45029 7.08559C8.79237 7.34087 8.23541 7.68335 7.67885 8.23903C7.12229 8.79471 6.78069 9.35255 6.52541 10.0105C6.27821 10.6461 6.10941 11.3732 6.06093 12.4377C6.01165 13.504 6.00037 13.8449 6.00037 16.5605C6.00037 19.2762 6.01165 19.6171 6.06093 20.6833C6.10941 21.748 6.27821 22.4749 6.52541 23.1106C6.78069 23.7681 7.12237 24.3266 7.67885 24.8821C8.23533 25.4375 8.79237 25.7795 9.45029 26.0355C10.0868 26.2827 10.813 26.4515 11.8776 26.5C12.9444 26.5485 13.2847 26.5605 16.0004 26.5605C18.716 26.5605 19.0569 26.5493 20.1232 26.5C21.1878 26.4515 21.9148 26.2827 22.5504 26.0355C23.208 25.7795 23.7653 25.4377 24.3219 24.8821C24.8784 24.3264 25.2193 23.7681 25.4753 23.1106C25.7225 22.4749 25.8921 21.7479 25.9398 20.6833C25.9883 19.6163 25.9996 19.2762 25.9996 16.5605C25.9996 13.8449 25.9883 13.504 25.9398 12.4377C25.8913 11.3731 25.7225 10.6457 25.4753 10.0105C25.2193 9.35295 24.8776 8.79559 24.3219 8.23903C23.7662 7.68247 23.208 7.34087 22.5512 7.08559C21.9148 6.83839 21.1877 6.66879 20.124 6.62111C19.0577 6.57263 18.7168 6.56055 16.0012 6.56055C13.2855 6.56055 12.9444 6.57183 11.8776 6.62111Z" fill="white"/>
</g>
</g>
<defs>
<linearGradient id="paint0_linear_234_892" x1="23.25" y1="1.81055" x2="2" y2="44.8105" gradientUnits="userSpaceOnUse">
<stop stop-color="#5B00C4"/>
<stop offset="1" stop-color="#D00049"/>
</linearGradient>
<clipPath id="clip0_234_892">
<rect width="32" height="32" fill="white" transform="translate(0 0.560547)"/>
</clipPath>
</defs>
</svg>
