<svg width="32" height="33" viewBox="0 0 32 33" fill="none" xmlns="http://www.w3.org/2000/svg">
<rect y="0.560547" width="32" height="32" rx="16" fill="white"/>
<path fill-rule="evenodd" clip-rule="evenodd" d="M16.4958 13.5523C16.4834 20.4832 16.4769 21.0635 16.4095 21.305C16.3195 21.6267 16.0939 22.1075 15.9127 22.3634C15.5042 22.9403 14.8169 23.4028 14.0677 23.605C13.7386 23.6938 13.1352 23.7206 12.7738 23.6624C11.9339 23.5271 11.151 23.0581 10.6738 22.4042C10.2904 21.8791 10.1092 21.3824 10.0718 20.7547C10.0323 20.0912 10.1965 19.471 10.5563 18.9245C10.8786 18.435 11.4465 17.9609 11.989 17.7287C12.5439 17.4913 13.3309 17.4156 13.9404 17.541C14.1037 17.5746 14.2421 17.6021 14.2479 17.6021C14.2538 17.6021 14.2585 16.8242 14.2585 15.8734V14.1447L14.057 14.113C13.7507 14.0648 12.6682 14.0785 12.286 14.1354C10.6505 14.3789 9.24829 15.118 8.13348 16.3243C7.34132 17.1814 6.78323 18.3205 6.57579 19.5035C6.49923 19.9401 6.48951 20.1233 6.50813 20.776C6.53057 21.5607 6.58835 21.9231 6.79405 22.5691C6.93238 23.0034 7.31043 23.7487 7.62889 24.2149C8.02501 24.7947 8.82663 25.57 9.4374 25.9639C10.2051 26.4592 10.9616 26.7715 11.872 26.969C12.2284 27.0463 12.4188 27.0591 13.2405 27.0605C14.0002 27.0618 14.2661 27.0472 14.5439 26.9889C15.5227 26.7836 16.2839 26.4794 17.0477 25.9882C17.4175 25.7503 17.6835 25.5337 18.0782 25.1489C18.4186 24.817 18.7066 24.4897 18.8776 24.2402C19.3729 23.5181 19.704 22.775 19.9097 21.924C20.002 21.5422 20.0031 21.4987 20.0166 17.2414C20.0242 14.878 20.0401 12.9443 20.0521 12.9443C20.064 12.9443 20.1732 13.0149 20.2947 13.1012C21.1518 13.7103 22.3475 14.2376 23.4467 14.4914C23.9803 14.6145 24.768 14.7167 25.184 14.7167H25.5V13.0061V11.2955H25.2045C25.0421 11.2955 24.7209 11.26 24.4908 11.2167C23.3509 11.0019 22.3558 10.4747 21.5559 9.66164C20.6915 8.78312 20.1951 7.74145 20.0606 6.52427L20.0093 6.06055H18.2593H16.5093L16.4958 13.5523Z" fill="black"/>
</svg>
