<svg width="32" height="33" viewBox="0 0 32 33" fill="none" xmlns="http://www.w3.org/2000/svg">
<g id="YouTube" clip-path="url(#clip0_234_886)">
<g id="YouTube_2">
<rect id="Rectangle" y="0.560547" width="32" height="32" rx="16" fill="#FF0000"/>
<path id="Exclude" fill-rule="evenodd" clip-rule="evenodd" d="M23.8253 9.98742C24.682 10.2181 25.3574 10.8935 25.5881 11.7502C26.0164 13.3152 25.9999 16.5772 25.9999 16.5772C25.9999 16.5772 25.9999 19.8226 25.5881 21.3877C25.3574 22.2444 24.682 22.9198 23.8253 23.1505C22.2602 23.5623 16 23.5623 16 23.5623C16 23.5623 9.75616 23.5623 8.17462 23.134C7.31795 22.9033 6.6425 22.2279 6.41186 21.3712C6 19.8226 6 16.5607 6 16.5607C6 16.5607 6 13.3152 6.41186 11.7502C6.6425 10.8935 7.33443 10.2016 8.17462 9.97094C9.73969 9.55908 16 9.55908 16 9.55908C16 9.55908 22.2602 9.55908 23.8253 9.98742ZM19.2125 16.5605L14.0066 19.5589V13.5622L19.2125 16.5605Z" fill="white"/>
</g>
</g>
<defs>
<clipPath id="clip0_234_886">
<rect width="32" height="32" fill="white" transform="translate(0 0.560547)"/>
</clipPath>
</defs>
</svg>
