<svg width="93" height="96" viewBox="0 0 93 96" fill="none" xmlns="http://www.w3.org/2000/svg">
<path d="M73.4268 27.0338C72.3971 28.955 68.5624 35.1719 59.7404 40.9046C52.0327 45.8996 42.4769 49.2386 31.3341 50.8063C26.5292 47.7708 22.7849 43.3191 20.6177 38.0651C18.4504 32.8112 17.9672 27.0142 19.2346 21.474C22.1949 23.2739 25.4617 24.5127 28.8712 25.128C38.6806 27.0492 44.0791 36.2708 44.302 36.655L46.3999 40.4743L48.5708 36.6972C48.6246 36.6012 54.0038 27.3182 62.0189 24.8091L62.8911 24.5363L63.3599 24.3903C66.6604 23.3683 69.7996 22.3962 72.5815 20.7978C73.1047 22.8365 73.3884 24.9293 73.4268 27.0338Z" fill="#EAF6FA"/>
<path d="M75.6054 11.7183C75.5593 11.7875 75.5209 11.8566 75.4748 11.9219C75.1762 12.4087 74.8504 12.8782 74.4988 13.3282C73.307 14.6511 71.9207 15.7848 70.3875 16.6903C68.2397 17.9467 65.6653 18.7459 62.7029 19.6681L62.1611 19.8372L60.7779 20.2637C54.0807 22.3654 49.0319 27.9867 46.4537 31.4064C43.6872 27.8522 38.0505 22.1041 29.5705 20.4404C26.639 19.8867 23.829 18.8174 21.2711 17.282C19.8759 16.4394 18.6551 15.3373 17.6747 14.0352C17.5671 13.8969 17.471 13.7662 17.3788 13.651L17.2482 13.455L17.2251 13.4204C17.1505 13.3151 17.0813 13.2061 17.0177 13.0939L16.9792 13.0324L16.9139 12.921C16.7525 12.6635 16.6065 12.3946 16.4567 12.0949C16.4106 12.0065 16.3683 11.9219 16.3299 11.8297C16.2914 11.7375 16.2069 11.5569 16.157 11.4225L19.008 10.5541C19.393 11.3939 19.902 12.171 20.518 12.8595L20.591 12.944C20.9148 13.3135 21.26 13.6637 21.6246 13.993L21.9781 14.3157L22.2163 13.9007C22.3277 13.7125 22.4392 13.5165 22.5544 13.3321C24.9822 9.33245 28.3929 6.02051 32.4621 3.71131C36.5314 1.40211 41.1238 0.172455 45.8024 0.139336C50.4811 0.106217 55.0904 1.27074 59.1919 3.5221C63.2934 5.77346 66.7507 9.03679 69.2348 13.0016C69.3386 13.1592 69.4385 13.3206 69.5345 13.4819L69.7651 13.8662L70.107 13.5857C70.4827 13.2811 70.8406 12.9552 71.1791 12.6097L71.2252 12.5598C71.9186 11.8421 72.5319 11.051 73.0541 10.2006L75.6054 11.7183Z" fill="#EAF6FA"/>
<path d="M24.2451 51.5517C22.8657 51.6478 21.4632 51.7169 20.0723 51.763C19.665 49.6535 19.323 47.5672 19.0425 45.5308C20.5219 47.7445 22.2694 49.7668 24.2451 51.5517Z" fill="#EAF6FA"/>
<path d="M73.3846 46.2954C72.0668 58.4789 67.7731 70.1514 60.8816 80.2846C56.8466 86.1983 51.9215 91.4526 46.2808 95.8614L28.8213 77.7256H28.6484C27.4419 77.7871 26.1855 77.8217 24.9175 77.8217H0V74.4635H25.6783L8.3878 56.4891C11.0467 56.6351 13.6082 56.7081 16.0724 56.7081C39.3761 56.7081 54.1499 50.4259 62.6914 44.7969C66.4645 42.3439 69.9006 39.4078 72.912 36.0633C73.2386 35.6791 73.5574 35.3217 73.8879 34.9298C73.9763 38.7253 73.8081 42.5225 73.3846 46.2954Z" fill="#EAF6FA"/>
<path d="M92.0852 74.475V77.8332H68.2858L70.134 74.475H92.0852Z" fill="#EAF6FA"/>
</svg>
