<svg width="331" height="96" viewBox="0 0 331 96" fill="none" xmlns="http://www.w3.org/2000/svg">
<path d="M73.4268 27.0338C72.3971 28.955 68.5624 35.1719 59.7404 40.9046C52.0327 45.8996 42.4769 49.2386 31.3341 50.8063C26.5292 47.7708 22.7849 43.3191 20.6177 38.0651C18.4504 32.8112 17.9672 27.0142 19.2346 21.474C22.1949 23.2739 25.4617 24.5127 28.8712 25.128C38.6806 27.0492 44.0791 36.2708 44.302 36.655L46.3999 40.4743L48.5708 36.6972C48.6246 36.6012 54.0038 27.3182 62.0189 24.8091L62.8911 24.5363L63.3599 24.3903C66.6604 23.3683 69.7996 22.3962 72.5815 20.7978C73.1047 22.8365 73.3884 24.9293 73.4268 27.0338V27.0338Z" fill="#EAF6FA"/>
<path d="M75.6054 11.7183C75.5593 11.7875 75.5209 11.8566 75.4748 11.9219C75.1762 12.4087 74.8504 12.8782 74.4988 13.3282C73.307 14.6511 71.9207 15.7848 70.3875 16.6903C68.2397 17.9467 65.6653 18.7459 62.7029 19.6681L62.1611 19.8372L60.7779 20.2637C54.0807 22.3654 49.0319 27.9867 46.4537 31.4064C43.6872 27.8522 38.0505 22.1041 29.5705 20.4404C26.639 19.8867 23.829 18.8174 21.2711 17.282C19.8759 16.4394 18.6551 15.3373 17.6747 14.0352C17.5671 13.8969 17.471 13.7662 17.3788 13.651L17.2482 13.455L17.2251 13.4204C17.1505 13.3151 17.0813 13.2061 17.0177 13.0939L16.9792 13.0324L16.9139 12.921C16.7525 12.6635 16.6065 12.3946 16.4567 12.0949C16.4106 12.0065 16.3683 11.9219 16.3299 11.8297C16.2914 11.7375 16.2069 11.5569 16.157 11.4225L19.008 10.5541C19.393 11.3939 19.902 12.171 20.518 12.8595L20.591 12.944C20.9148 13.3135 21.26 13.6637 21.6246 13.993L21.9781 14.3157L22.2163 13.9007C22.3277 13.7125 22.4392 13.5165 22.5544 13.3321C24.9822 9.33245 28.3929 6.02051 32.4621 3.71131C36.5314 1.40211 41.1238 0.172455 45.8024 0.139336C50.4811 0.106217 55.0904 1.27074 59.1919 3.5221C63.2934 5.77346 66.7507 9.03679 69.2348 13.0016C69.3386 13.1592 69.4385 13.3206 69.5345 13.4819L69.7651 13.8662L70.107 13.5857C70.4827 13.2811 70.8406 12.9552 71.1791 12.6097L71.2252 12.5598C71.9186 11.8421 72.5319 11.051 73.0541 10.2006L75.6054 11.7183Z" fill="#EAF6FA"/>
<path d="M24.2451 51.5517C22.8657 51.6478 21.4632 51.7169 20.0723 51.763C19.665 49.6535 19.323 47.5672 19.0425 45.5308C20.5219 47.7445 22.2694 49.7668 24.2451 51.5517Z" fill="#EAF6FA"/>
<path d="M73.3846 46.2954C72.0668 58.4789 67.7731 70.1514 60.8816 80.2846C56.8466 86.1983 51.9215 91.4526 46.2808 95.8614L28.8213 77.7256H28.6484C27.4419 77.7871 26.1855 77.8217 24.9175 77.8217H0V74.4635H25.6783L8.3878 56.4891C11.0467 56.6351 13.6082 56.7081 16.0724 56.7081C39.3761 56.7081 54.1499 50.4259 62.6914 44.7969C66.4645 42.3439 69.9006 39.4078 72.912 36.0633C73.2386 35.6791 73.5575 35.3217 73.8879 34.9298C73.9763 38.7253 73.8081 42.5225 73.3846 46.2954Z" fill="#EAF6FA"/>
<path d="M92.0852 74.475V77.8332H68.2858L70.134 74.475H92.0852Z" fill="#EAF6FA"/>
<path d="M137.735 40.8878L132.847 40.0617C130.093 39.5507 129.228 38.5248 129.228 37.2568C129.228 35.9889 130.296 34.7555 133.001 34.7555C136.014 34.7555 137.493 36.1849 139.483 38.3789H144.786V30.9324H139.483V32.5116C138.004 31.0823 135.86 30.2677 132.897 30.2677C127.288 30.2677 123.053 32.8151 123.053 37.6641C123.053 42.1558 126.727 44.3498 131.933 45.2643L136.317 45.9789C138.461 46.39 139.433 47.4083 139.433 48.7339C139.433 50.0595 138.561 51.339 135.453 51.339C131.726 51.339 129.635 49.4178 127.441 46.8511H122.085V55.1659H127.441V49.1911L130.177 54.6933C132.031 55.5657 134.065 55.9895 136.113 55.9306C141.981 55.9306 145.4 52.9181 145.4 48.3803C145.42 43.589 141.577 41.5487 137.735 40.8878Z" fill="#EAF6FA"/>
<path d="M168.504 31.04V36.4461H171.463L165.342 48.4879L159.579 36.4461H162.691V31.04H149.423V36.4461H152.943L162.022 54.9661L159.333 60.3262H152.993V65.7323H168.558V60.3262H162.284L167.052 57.7095L178.049 36.4461H181.772V31.04H168.504Z" fill="#EAF6FA"/>
<path d="M213.202 49.7637V41.8523C213.202 34.8631 208.975 30.2754 202.639 30.2754C199.906 30.2678 197.26 31.2458 195.189 33.0303V31.04H185.445V36.4462H193.356L189.276 39.0513V49.7637H185.434V55.1737H199.02V49.7637H195.178V39.0974C197.018 36.8534 199.312 35.6393 201.402 35.6393C205.079 35.6393 207.323 37.9907 207.323 42.225V49.7752H203.458V55.1852H217.079V49.7752L213.202 49.7637Z" fill="#EAF6FA"/>
<path d="M237.167 46.1403C236.506 48.7416 234.258 50.4283 231.299 50.4283C229.363 50.4283 227.506 49.6592 226.137 48.2901C224.768 46.921 223.999 45.0641 223.999 43.1279C223.999 41.1917 224.768 39.3348 226.137 37.9657C227.506 36.5966 229.363 35.8275 231.299 35.8275C234.308 35.8275 236.656 37.5104 237.37 40.054H243.034V31.0246H237.574V36.9341L234.976 31.2974C233.652 30.807 232.25 30.5585 230.838 30.5635C223.442 30.5635 217.982 35.8736 217.982 43.1164C217.982 50.3591 223.595 55.7154 231.299 55.7154C237.881 55.7154 242.369 51.8423 243.184 46.1095L237.167 46.1403Z" fill="#EAF6FA"/>
<path d="M259.368 30.479C251.967 30.479 246.254 35.8352 246.254 43.1317C246.254 50.4283 251.967 55.9382 259.368 55.9382C266.668 55.9382 272.378 50.4783 272.378 43.1317C272.378 35.7852 266.66 30.479 259.368 30.479ZM259.368 50.582C255.183 50.582 252.171 47.2622 252.171 43.1317C252.171 39.0012 255.183 35.8313 259.368 35.8313C263.448 35.8313 266.457 39.0435 266.457 43.1317C266.457 47.22 263.448 50.582 259.368 50.582Z" fill="#EAF6FA"/>
<path d="M291.109 30.479C288.481 30.4166 285.904 31.2035 283.759 32.7228V31.0399H274.015V36.4461H282.022L277.845 39.2894V60.3261H274.003V65.7323H289.257V60.3261L283.747 60.2915V53.4868C285.892 55.0061 288.47 55.7931 291.097 55.7307C297.833 55.7307 303.235 50.1209 303.235 43.1317C303.235 36.1425 297.845 30.479 291.109 30.479ZM290.241 50.6319C287.935 50.6319 285.799 49.8635 283.759 47.8232V38.3864C285.799 36.3423 287.943 35.5777 290.241 35.5777C294.425 35.5777 297.384 39.0973 297.384 43.1317C297.384 47.1662 294.425 50.6319 290.241 50.6319V50.6319Z" fill="#EAF6FA"/>
<path d="M330.9 42.7244C330.9 35.4778 325.905 30.479 318.862 30.479C311.562 30.479 306.259 35.9389 306.259 43.1317C306.259 50.3246 311.412 55.9382 319.116 55.9382C324.676 55.9382 329.106 52.9258 330.497 48.4879H324.218C323.354 49.9672 321.617 50.7319 319.323 50.7319C315.189 50.7319 312.941 48.4265 312.176 45.4256H330.8C330.882 44.5277 330.916 43.626 330.9 42.7244ZM312.176 40.8033C312.945 37.691 315.25 35.1397 319.016 35.1397C322.635 35.1397 324.779 37.5373 325.29 40.8033H312.176Z" fill="#EAF6FA"/>
</svg>
