<svg width="209" height="36" viewBox="0 0 209 36" fill="none" xmlns="http://www.w3.org/2000/svg">
<path d="M15.7349 10.8878L10.8475 10.0617C8.09255 9.55071 7.22801 8.5248 7.22801 7.25683C7.22801 5.98886 8.29618 4.75547 11.0012 4.75547C14.0136 4.75547 15.4929 6.18488 17.4832 8.37885H22.7856V0.932377H17.4832V2.51161C16.0039 1.08227 13.8599 0.267662 10.8974 0.267662C5.28763 0.267662 1.05339 2.81512 1.05339 7.66414C1.05339 12.1558 4.72667 14.3498 9.93302 15.2643L14.3171 15.9789C16.4611 16.39 17.4332 17.4083 17.4332 18.7339C17.4332 20.0595 16.561 21.339 13.4526 21.339C9.72553 21.339 7.63531 19.4178 5.44135 16.8511H0.085144V25.1659H5.44135V19.1911L8.17708 24.6933C10.0314 25.5657 12.065 25.9895 14.1135 25.9306C19.9807 25.9306 23.4004 22.9181 23.4004 18.3803C23.4196 13.589 19.5772 11.5487 15.7349 10.8878Z" fill="#EAF6FA"/>
<path d="M46.5043 1.03997V6.44615H49.4629L43.342 18.4879L37.5785 6.44615H40.6908V1.03997H27.4233V6.44615H30.9429L40.0223 24.9661L37.3326 30.3262H30.9928V35.7323H46.5581V30.3262H40.2836L45.0519 27.7095L56.0486 6.44615H59.7718V1.03997H46.5043Z" fill="#EAF6FA"/>
<path d="M91.202 19.7637V11.8523C91.202 4.86309 86.9754 0.275397 80.6394 0.275397C77.9055 0.267757 75.2604 1.24582 73.1892 3.03031V1.04002H63.445V6.44619H71.3564L67.2759 9.0513V19.7637H63.4335V25.1737H77.02V19.7637H73.1777V9.09736C75.0181 6.85344 77.312 5.63927 79.4022 5.63927C83.0793 5.63927 85.3232 7.99073 85.3232 12.225V19.7752H81.4579V25.1852H95.0789V19.7752L91.202 19.7637Z" fill="#EAF6FA"/>
<path d="M115.167 16.1403C114.506 18.7416 112.258 20.4283 109.299 20.4283C107.363 20.4283 105.506 19.6592 104.137 18.2901C102.768 16.921 101.999 15.0641 101.999 13.1279C101.999 11.1917 102.768 9.3348 104.137 7.96571C105.506 6.59662 107.363 5.82748 109.299 5.82748C112.308 5.82748 114.656 7.51042 115.37 10.054H121.034V1.02457H115.574V6.93412L112.976 1.29736C111.652 0.806996 110.25 0.558458 108.838 0.563514C101.442 0.563514 95.9818 5.87358 95.9818 13.1164C95.9818 20.3591 101.595 25.7154 109.299 25.7154C115.881 25.7154 120.369 21.8423 121.184 16.1095L115.167 16.1403Z" fill="#EAF6FA"/>
<path d="M137.368 0.478996C129.967 0.478996 124.254 5.83517 124.254 13.1317C124.254 20.4283 129.967 25.9382 137.368 25.9382C144.668 25.9382 150.378 20.4783 150.378 13.1317C150.378 5.78522 144.66 0.478996 137.368 0.478996ZM137.368 20.582C133.183 20.582 130.171 17.2622 130.171 13.1317C130.171 9.00125 133.183 5.83133 137.368 5.83133C141.448 5.83133 144.457 9.04351 144.457 13.1317C144.457 17.22 141.448 20.582 137.368 20.582Z" fill="#EAF6FA"/>
<path d="M169.109 0.478974C166.481 0.416605 163.904 1.20348 161.759 2.72283V1.03994H152.015V6.44611H160.022L155.845 9.2894V30.3261H152.003V35.7323H167.257V30.3261L161.747 30.2915V23.4868C163.892 25.0061 166.47 25.7931 169.097 25.7307C175.833 25.7307 181.235 20.1209 181.235 13.1317C181.235 6.14253 175.845 0.478974 169.109 0.478974ZM168.241 20.6319C165.935 20.6319 163.799 19.8635 161.759 17.8232V8.38641C163.799 6.3423 165.943 5.57775 168.241 5.57775C172.425 5.57775 175.384 9.09728 175.384 13.1317C175.384 17.1662 172.425 20.6319 168.241 20.6319Z" fill="#EAF6FA"/>
<path d="M208.9 12.7244C208.9 5.47781 203.905 0.478996 196.862 0.478996C189.562 0.478996 184.259 5.93891 184.259 13.1317C184.259 20.3246 189.412 25.9382 197.116 25.9382C202.676 25.9382 207.106 22.9258 208.497 18.4879H202.218C201.354 19.9672 199.617 20.7319 197.323 20.7319C193.189 20.7319 190.941 18.4265 190.176 15.4256H208.8C208.882 14.5277 208.916 13.626 208.9 12.7244ZM190.176 10.8033C190.945 7.69099 193.25 5.13969 197.016 5.13969C200.635 5.13969 202.779 7.5373 203.29 10.8033H190.176Z" fill="#EAF6FA"/>
</svg>
