<svg width="544" height="420" viewBox="0 0 544 420" fill="none" xmlns="http://www.w3.org/2000/svg">
<path d="M343 70.3105C340.33 75.3105 330.35 91.4905 307.38 106.411C287.32 119.411 262.45 128.101 233.45 132.181C220.945 124.281 211.2 112.694 205.559 99.0206C199.919 85.3468 198.661 70.2595 201.96 55.8406C209.664 60.5252 218.167 63.749 227.04 65.3505C252.57 70.3505 266.62 94.3505 267.2 95.3505L272.66 105.291L278.31 95.4606C278.45 95.2106 292.45 71.0506 313.31 64.5206L315.58 63.8105L316.8 63.4305C325.4 60.7705 333.56 58.2406 340.8 54.0806C342.162 59.3866 342.9 64.8334 343 70.3105Z" fill="#EAF6FA"/>
<path d="M348.67 30.4506L348.34 30.9806C347.556 32.2454 346.705 33.4671 345.79 34.6406C342.69 38.0814 339.086 41.0317 335.1 43.3906C329.5 46.6606 322.81 48.7406 315.1 51.1406L313.68 51.5806L310.08 52.6906C292.65 58.1606 279.51 72.7906 272.8 81.6906C265.6 72.4406 250.93 57.4806 228.86 53.1506C221.23 51.7097 213.917 48.9266 207.26 44.9306C203.629 42.7378 200.451 39.8694 197.9 36.4806C197.62 36.1206 197.37 35.7806 197.13 35.4306L196.79 34.9206L196.73 34.8306C196.536 34.5565 196.356 34.2729 196.19 33.9806L196.09 33.8206L195.92 33.5306C195.5 32.8606 195.12 32.1606 194.73 31.3806C194.61 31.1506 194.5 30.9306 194.4 30.6906C194.3 30.4506 194.08 29.9806 193.95 29.6306L201.37 27.3706C202.368 29.5738 203.693 31.6135 205.3 33.4206L205.49 33.6406C206.333 34.6022 207.231 35.5137 208.18 36.3706L209.1 37.2106L209.72 36.1306C210.01 35.6406 210.3 35.1306 210.6 34.6506C216.92 24.2413 225.797 15.6219 236.389 9.61223C246.98 3.60254 258.933 0.402434 271.11 0.316242C283.287 0.230049 295.284 3.26064 305.959 9.1198C316.635 14.979 325.634 23.4719 332.1 33.7906C332.37 34.2006 332.63 34.6206 332.88 35.0406L333.47 36.0406L334.37 35.3106C335.342 34.5152 336.27 33.6673 337.15 32.7706L337.27 32.6406C339.078 30.7753 340.674 28.7162 342.03 26.5006L348.67 30.4506Z" fill="#EAF6FA"/>
<path d="M215 134.121C211.41 134.371 207.76 134.551 204.14 134.671C203.08 129.181 202.19 123.751 201.46 118.451C205.31 124.212 209.858 129.475 215 134.121Z" fill="#EAF6FA"/>
<path d="M342.89 120.441C339.463 152.148 328.292 182.527 310.36 208.901C299.855 224.289 287.038 237.964 272.36 249.441L226.92 202.241H226.47C223.33 202.401 220.06 202.491 216.76 202.491H151.9V193.751H218.73L173.73 146.971C180.65 147.351 187.317 147.541 193.73 147.541C254.38 147.541 292.83 131.191 315.06 116.541C324.88 110.156 333.823 102.515 341.66 93.8105C342.51 92.8105 343.35 91.8805 344.2 90.8105C344.432 100.705 343.995 110.605 342.89 120.441Z" fill="#EAF6FA"/>
<path d="M391.56 193.781V202.521H329.62L334.43 193.781H391.56Z" fill="#EAF6FA"/>
<path d="M40.73 354.671L28.01 352.561C20.84 351.241 18.59 348.561 18.59 345.261C18.59 341.961 21.37 338.761 28.41 338.761C36.25 338.761 40.1 342.481 45.28 348.191H59.08V328.771H45.28V332.881C41.43 329.161 35.85 327.041 28.14 327.041C13.54 327.041 2.51996 333.681 2.51996 346.301C2.51996 357.981 12.08 363.701 25.63 366.081L37.04 367.941C42.62 369.011 45.15 371.661 45.15 375.111C45.15 378.561 42.88 381.891 34.79 381.891C25.09 381.891 19.65 376.841 13.94 370.201H0V391.841H13.94V376.301L21.06 390.621C25.8889 392.882 31.1801 393.981 36.51 393.831C51.78 393.831 60.68 386.001 60.68 374.181C60.73 361.701 50.73 356.391 40.73 354.671Z" fill="#EAF6FA"/>
<path d="M120.81 329.031V343.111H128.51L112.58 374.451L97.58 343.111H105.68V329.031H71.15V343.111H80.3101L103.94 391.311L96.9401 405.311H80.4401V419.371H120.95V405.261H104.62L117.03 398.451L145.65 343.111H155.34V329.031H120.81Z" fill="#EAF6FA"/>
<path d="M237.14 377.761V357.181C237.14 338.991 226.14 327.041 209.65 327.041C202.536 327.026 195.654 329.571 190.26 334.211V329.031H164.9V343.111H185.49L174.87 349.881V377.761H164.87V391.841H200.23V377.761H190.23V350.011C195.02 344.171 200.99 341.011 206.43 341.011C216 341.011 221.84 347.121 221.84 358.141V377.761H211.78V391.841H247.23V377.761H237.14Z" fill="#EAF6FA"/>
<path d="M299.51 368.341C297.79 375.111 291.94 379.49 284.24 379.49C279.201 379.49 274.368 377.489 270.805 373.926C267.242 370.362 265.24 365.53 265.24 360.49C265.24 355.451 267.242 350.619 270.805 347.055C274.368 343.492 279.201 341.49 284.24 341.49C292.07 341.49 298.18 345.88 300.04 352.49H314.78V328.99H300.57V344.381L293.81 329.711C290.363 328.434 286.715 327.787 283.04 327.8C263.79 327.8 249.58 341.61 249.58 360.47C249.58 379.33 264.19 393.261 284.24 393.261C301.37 393.261 313.05 383.171 315.17 368.261L299.51 368.341Z" fill="#EAF6FA"/>
<path d="M357.29 327.561C338.03 327.561 323.16 341.491 323.16 360.491C323.16 379.491 338.03 393.811 357.29 393.811C376.29 393.811 391.15 379.601 391.15 360.491C391.15 341.381 376.27 327.561 357.29 327.561ZM357.29 379.881C346.4 379.881 338.56 371.241 338.56 360.491C338.56 349.741 346.4 341.491 357.29 341.491C367.91 341.491 375.74 349.861 375.74 360.491C375.74 371.121 367.91 379.901 357.29 379.901V379.881Z" fill="#EAF6FA"/>
<path d="M439.9 327.561C433.061 327.398 426.352 329.446 420.77 333.401V329.011H395.41V343.091H416.25L405.38 350.481V405.261H395.38V419.321H435.08V405.261L420.74 405.171V387.461C426.322 391.415 433.031 393.463 439.87 393.301C457.4 393.301 471.46 378.701 471.46 360.511C471.46 342.321 457.43 327.561 439.9 327.561ZM437.64 380.011C431.64 380.011 426.08 378.011 420.77 372.701V348.161C426.08 342.841 431.66 340.851 437.64 340.851C448.53 340.851 456.23 350.011 456.23 360.511C456.23 371.011 448.53 380.031 437.64 380.031V380.011Z" fill="#EAF6FA"/>
<path d="M543.46 359.441C543.46 340.591 530.46 327.581 512.13 327.581C493.13 327.581 479.33 341.781 479.33 360.511C479.33 379.091 492.74 393.831 512.79 393.831C527.26 393.831 538.79 386.001 542.41 374.451H526.07C523.82 378.301 519.3 380.291 513.33 380.291C502.57 380.291 496.72 374.291 494.73 366.481H543.2C543.414 364.14 543.501 361.79 543.46 359.441ZM494.73 354.441C496.73 346.351 502.73 339.701 512.53 339.701C521.95 339.701 527.53 345.951 528.86 354.441H494.73Z" fill="#EAF6FA"/>
</svg>
