<svg width="300" height="68" viewBox="0 0 300 68" fill="none" xmlns="http://www.w3.org/2000/svg">
<circle cx="287.5" cy="30.5" r="12.5" fill="white"/>
<path d="M287.5 40.3333C286.027 40.3333 284.833 41.5272 284.833 43C284.833 44.4728 286.027 45.6667 287.5 45.6667C288.973 45.6667 290.167 44.4728 290.167 43C290.167 41.5272 288.973 40.3333 287.5 40.3333ZM287 43L287 45.5128L288 45.5128L288 43L287 43ZM287 50.5385L287 55.5641L288 55.5641L288 50.5385L287 50.5385ZM287 60.5897L287 65.6154L288 65.6154L288 60.5897L287 60.5897ZM287 70.641L287 75.6667L288 75.6667L288 70.641L287 70.641ZM287 80.6923L287 85.7179L288 85.7179L288 80.6923L287 80.6923ZM287 90.7436L287 95.7692L288 95.7692L288 90.7436L287 90.7436ZM287 100.795L287 105.821L288 105.821L288 100.795L287 100.795ZM287 110.846L287 115.872L288 115.872L288 110.846L287 110.846ZM287 120.897L287 125.923L288 125.923L288 120.897L287 120.897ZM287 130.949L287 135.974L288 135.974L288 130.949L287 130.949ZM287 141L287 146.026L288 146.026L288 141L287 141ZM287 151.051L287 156.077L288 156.077L288 151.051L287 151.051ZM287 161.103L287 166.128L288 166.128L288 161.103L287 161.103ZM287 171.154L287 176.18L288 176.18L288 171.154L287 171.154ZM287 181.205L287 186.231L288 186.231L288 181.205L287 181.205ZM287 191.256L287 196.282L288 196.282L288 191.256L287 191.256ZM287 201.308L287 206.333L288 206.333L288 201.308L287 201.308ZM287 211.359L287 216.385L288 216.385L288 211.359L287 211.359ZM287 221.41L287 226.436L288 226.436L288 221.41L287 221.41ZM287 231.461L287 236.487L288 236.487L288 231.461L287 231.461ZM287 241.513L287 246.538L288 246.538L288 241.513L287 241.513ZM287 251.564L287 256.59L288 256.59L288 251.564L287 251.564ZM287 261.615L287 266.641L288 266.641L288 261.615L287 261.615ZM287 271.667L287 276.692L288 276.692L288 271.667L287 271.667ZM287 281.718L287 286.743L288 286.743L288 281.718L287 281.718ZM287 291.769L287 296.795L288 296.795L288 291.769L287 291.769ZM287 301.82L287 306.846L288 306.846L288 301.82L287 301.82ZM287 311.872L287 316.897L288 316.897L288 311.872L287 311.872ZM287 321.923L287 326.949L288 326.949L288 321.923L287 321.923ZM287 331.974L287 337L288 337L288 331.974L287 331.974ZM287 342.025L287 347.051L288 347.051L288 342.025L287 342.025ZM287 352.077L287 357.102L288 357.102L288 352.077L287 352.077ZM287 362.128L287 367.154L288 367.154L288 362.128L287 362.128ZM287 372.179L287 377.205L288 377.205L288 372.179L287 372.179ZM287 382.231L287 387.256L288 387.256L288 382.231L287 382.231ZM287 392.282L287 397.307L288 397.307L288 392.282L287 392.282ZM287 402.333L287 407.359L288 407.359L288 402.333L287 402.333ZM287 412.384L287 417.41L288 417.41L288 412.384L287 412.384ZM287 422.436L287 427.461L288 427.461L288 422.436L287 422.436ZM287 432.487L287 435L288 435L288 432.487L287 432.487Z" fill="white"/>
<circle cx="232.5" cy="30.5" r="12.5" fill="white"/>
<path d="M232.5 40.3333C231.027 40.3333 229.833 41.5272 229.833 43C229.833 44.4728 231.027 45.6667 232.5 45.6667C233.973 45.6667 235.167 44.4728 235.167 43C235.167 41.5272 233.973 40.3333 232.5 40.3333ZM232 43L232 45.5128L233 45.5128L233 43L232 43ZM232 50.5385L232 55.5641L233 55.5641L233 50.5385L232 50.5385ZM232 60.5897L232 65.6154L233 65.6154L233 60.5897L232 60.5897ZM232 70.641L232 75.6667L233 75.6667L233 70.641L232 70.641ZM232 80.6923L232 85.7179L233 85.7179L233 80.6923L232 80.6923ZM232 90.7436L232 95.7692L233 95.7692L233 90.7436L232 90.7436ZM232 100.795L232 105.821L233 105.821L233 100.795L232 100.795ZM232 110.846L232 115.872L233 115.872L233 110.846L232 110.846ZM232 120.897L232 125.923L233 125.923L233 120.897L232 120.897ZM232 130.949L232 135.974L233 135.974L233 130.949L232 130.949ZM232 141L232 146.026L233 146.026L233 141L232 141ZM232 151.051L232 156.077L233 156.077L233 151.051L232 151.051ZM232 161.103L232 166.128L233 166.128L233 161.103L232 161.103ZM232 171.154L232 176.18L233 176.18L233 171.154L232 171.154ZM232 181.205L232 186.231L233 186.231L233 181.205L232 181.205ZM232 191.256L232 196.282L233 196.282L233 191.256L232 191.256ZM232 201.308L232 206.333L233 206.333L233 201.308L232 201.308ZM232 211.359L232 216.385L233 216.385L233 211.359L232 211.359ZM232 221.41L232 226.436L233 226.436L233 221.41L232 221.41ZM232 231.461L232 236.487L233 236.487L233 231.461L232 231.461ZM232 241.513L232 246.538L233 246.538L233 241.513L232 241.513ZM232 251.564L232 256.59L233 256.59L233 251.564L232 251.564ZM232 261.615L232 266.641L233 266.641L233 261.615L232 261.615ZM232 271.667L232 276.692L233 276.692L233 271.667L232 271.667ZM232 281.718L232 286.743L233 286.743L233 281.718L232 281.718ZM232 291.769L232 296.795L233 296.795L233 291.769L232 291.769ZM232 301.82L232 306.846L233 306.846L233 301.82L232 301.82ZM232 311.872L232 316.897L233 316.897L233 311.872L232 311.872ZM232 321.923L232 326.949L233 326.949L233 321.923L232 321.923ZM232 331.974L232 337L233 337L233 331.974L232 331.974ZM232 342.025L232 347.051L233 347.051L233 342.025L232 342.025ZM232 352.077L232 357.102L233 357.102L233 352.077L232 352.077ZM232 362.128L232 367.154L233 367.154L233 362.128L232 362.128ZM232 372.179L232 377.205L233 377.205L233 372.179L232 372.179ZM232 382.231L232 387.256L233 387.256L233 382.231L232 382.231ZM232 392.282L232 397.307L233 397.307L233 392.282L232 392.282ZM232 402.333L232 407.359L233 407.359L233 402.333L232 402.333ZM232 412.384L232 417.41L233 417.41L233 412.384L232 412.384ZM232 422.436L232 427.461L233 427.461L233 422.436L232 422.436ZM232 432.487L232 435L233 435L233 432.487L232 432.487Z" fill="white"/>
<circle cx="177.5" cy="30.5" r="12.5" fill="white"/>
<path d="M177.5 40.3333C176.027 40.3333 174.833 41.5272 174.833 43C174.833 44.4728 176.027 45.6667 177.5 45.6667C178.973 45.6667 180.167 44.4728 180.167 43C180.167 41.5272 178.973 40.3333 177.5 40.3333ZM177 43L177 45.5128L178 45.5128L178 43L177 43ZM177 50.5385L177 55.5641L178 55.5641L178 50.5385L177 50.5385ZM177 60.5897L177 65.6154L178 65.6154L178 60.5897L177 60.5897ZM177 70.641L177 75.6667L178 75.6667L178 70.641L177 70.641ZM177 80.6923L177 85.7179L178 85.7179L178 80.6923L177 80.6923ZM177 90.7436L177 95.7692L178 95.7692L178 90.7436L177 90.7436ZM177 100.795L177 105.821L178 105.821L178 100.795L177 100.795ZM177 110.846L177 115.872L178 115.872L178 110.846L177 110.846ZM177 120.897L177 125.923L178 125.923L178 120.897L177 120.897ZM177 130.949L177 135.974L178 135.974L178 130.949L177 130.949ZM177 141L177 146.026L178 146.026L178 141L177 141ZM177 151.051L177 156.077L178 156.077L178 151.051L177 151.051ZM177 161.103L177 166.128L178 166.128L178 161.103L177 161.103ZM177 171.154L177 176.18L178 176.18L178 171.154L177 171.154ZM177 181.205L177 186.231L178 186.231L178 181.205L177 181.205ZM177 191.256L177 196.282L178 196.282L178 191.256L177 191.256ZM177 201.308L177 206.333L178 206.333L178 201.308L177 201.308ZM177 211.359L177 216.385L178 216.385L178 211.359L177 211.359ZM177 221.41L177 226.436L178 226.436L178 221.41L177 221.41ZM177 231.461L177 236.487L178 236.487L178 231.461L177 231.461ZM177 241.513L177 246.538L178 246.538L178 241.513L177 241.513ZM177 251.564L177 256.59L178 256.59L178 251.564L177 251.564ZM177 261.615L177 266.641L178 266.641L178 261.615L177 261.615ZM177 271.667L177 276.692L178 276.692L178 271.667L177 271.667ZM177 281.718L177 286.743L178 286.743L178 281.718L177 281.718ZM177 291.769L177 296.795L178 296.795L178 291.769L177 291.769ZM177 301.82L177 306.846L178 306.846L178 301.82L177 301.82ZM177 311.872L177 316.897L178 316.897L178 311.872L177 311.872ZM177 321.923L177 326.949L178 326.949L178 321.923L177 321.923ZM177 331.974L177 337L178 337L178 331.974L177 331.974ZM177 342.025L177 347.051L178 347.051L178 342.025L177 342.025ZM177 352.077L177 357.102L178 357.102L178 352.077L177 352.077ZM177 362.128L177 367.154L178 367.154L178 362.128L177 362.128ZM177 372.179L177 377.205L178 377.205L178 372.179L177 372.179ZM177 382.231L177 387.256L178 387.256L178 382.231L177 382.231ZM177 392.282L177 397.307L178 397.307L178 392.282L177 392.282ZM177 402.333L177 407.359L178 407.359L178 402.333L177 402.333ZM177 412.384L177 417.41L178 417.41L178 412.384L177 412.384ZM177 422.436L177 427.461L178 427.461L178 422.436L177 422.436ZM177 432.487L177 435L178 435L178 432.487L177 432.487Z" fill="white"/>
<circle cx="122.5" cy="30.5" r="12.5" fill="white"/>
<path d="M122.5 40.3333C121.027 40.3333 119.833 41.5272 119.833 43C119.833 44.4728 121.027 45.6667 122.5 45.6667C123.973 45.6667 125.167 44.4728 125.167 43C125.167 41.5272 123.973 40.3333 122.5 40.3333ZM122 43L122 45.5128L123 45.5128L123 43L122 43ZM122 50.5385L122 55.5641L123 55.5641L123 50.5385L122 50.5385ZM122 60.5897L122 65.6154L123 65.6154L123 60.5897L122 60.5897ZM122 70.641L122 75.6667L123 75.6667L123 70.641L122 70.641ZM122 80.6923L122 85.7179L123 85.7179L123 80.6923L122 80.6923ZM122 90.7436L122 95.7692L123 95.7692L123 90.7436L122 90.7436ZM122 100.795L122 105.821L123 105.821L123 100.795L122 100.795ZM122 110.846L122 115.872L123 115.872L123 110.846L122 110.846ZM122 120.897L122 125.923L123 125.923L123 120.897L122 120.897ZM122 130.949L122 135.974L123 135.974L123 130.949L122 130.949ZM122 141L122 146.026L123 146.026L123 141L122 141ZM122 151.051L122 156.077L123 156.077L123 151.051L122 151.051ZM122 161.103L122 166.128L123 166.128L123 161.103L122 161.103ZM122 171.154L122 176.18L123 176.18L123 171.154L122 171.154ZM122 181.205L122 186.231L123 186.231L123 181.205L122 181.205ZM122 191.256L122 196.282L123 196.282L123 191.256L122 191.256ZM122 201.308L122 206.333L123 206.333L123 201.308L122 201.308ZM122 211.359L122 216.385L123 216.385L123 211.359L122 211.359ZM122 221.41L122 226.436L123 226.436L123 221.41L122 221.41ZM122 231.461L122 236.487L123 236.487L123 231.461L122 231.461ZM122 241.513L122 246.538L123 246.538L123 241.513L122 241.513ZM122 251.564L122 256.59L123 256.59L123 251.564L122 251.564ZM122 261.615L122 266.641L123 266.641L123 261.615L122 261.615ZM122 271.667L122 276.692L123 276.692L123 271.667L122 271.667ZM122 281.718L122 286.743L123 286.743L123 281.718L122 281.718ZM122 291.769L122 296.795L123 296.795L123 291.769L122 291.769ZM122 301.82L122 306.846L123 306.846L123 301.82L122 301.82ZM122 311.872L122 316.897L123 316.897L123 311.872L122 311.872ZM122 321.923L122 326.949L123 326.949L123 321.923L122 321.923ZM122 331.974L122 337L123 337L123 331.974L122 331.974ZM122 342.025L122 347.051L123 347.051L123 342.025L122 342.025ZM122 352.077L122 357.102L123 357.102L123 352.077L122 352.077ZM122 362.128L122 367.154L123 367.154L123 362.128L122 362.128ZM122 372.179L122 377.205L123 377.205L123 372.179L122 372.179ZM122 382.231L122 387.256L123 387.256L123 382.231L122 382.231ZM122 392.282L122 397.307L123 397.307L123 392.282L122 392.282ZM122 402.333L122 407.359L123 407.359L123 402.333L122 402.333ZM122 412.384L122 417.41L123 417.41L123 412.384L122 412.384ZM122 422.436L122 427.461L123 427.461L123 422.436L122 422.436ZM122 432.487L122 435L123 435L123 432.487L122 432.487Z" fill="white"/>
<circle cx="67.5" cy="12.5" r="12" fill="#89CAC6" stroke="#89CAC6"/>
<path d="M67.5 22.3333C66.0272 22.3333 64.8333 23.5272 64.8333 25C64.8333 26.4728 66.0272 27.6667 67.5 27.6667C68.9728 27.6667 70.1667 26.4728 70.1667 25C70.1667 23.5272 68.9728 22.3333 67.5 22.3333ZM67 25L67 27.5128L68 27.5128L68 25L67 25ZM67 32.5385L67 37.5641L68 37.5641L68 32.5385L67 32.5385ZM67 42.5897L67 47.6154L68 47.6154L68 42.5897L67 42.5897ZM67 52.641L67 57.6667L68 57.6667L68 52.641L67 52.641ZM67 62.6923L67 67.7179L68 67.7179L68 62.6923L67 62.6923ZM67 72.7436L67 77.7692L68 77.7692L68 72.7436L67 72.7436ZM67 82.7949L67 87.8205L68 87.8205L68 82.7949L67 82.7949ZM67 92.8462L67 97.8718L68 97.8718L68 92.8462L67 92.8462ZM67 102.897L67 107.923L68 107.923L68 102.897L67 102.897ZM67 112.949L67 117.974L68 117.974L68 112.949L67 112.949ZM67 123L67 128.026L68 128.026L68 123L67 123ZM67 133.051L67 138.077L68 138.077L68 133.051L67 133.051ZM67 143.103L67 148.128L68 148.128L68 143.103L67 143.103ZM67 153.154L67 158.18L68 158.18L68 153.154L67 153.154ZM67 163.205L67 168.231L68 168.231L68 163.205L67 163.205ZM67 173.256L67 178.282L68 178.282L68 173.256L67 173.256ZM67 183.308L67 188.333L68 188.333L68 183.308L67 183.308ZM67 193.359L67 198.385L68 198.385L68 193.359L67 193.359ZM67 203.41L67 208.436L68 208.436L68 203.41L67 203.41ZM67 213.461L67 218.487L68 218.487L68 213.461L67 213.461ZM67 223.513L67 228.538L68 228.538L68 223.513L67 223.513ZM67 233.564L67 238.59L68 238.59L68 233.564L67 233.564ZM67 243.615L67 248.641L68 248.641L68 243.615L67 243.615ZM67 253.667L67 258.692L68 258.692L68 253.667L67 253.667ZM67 263.718L67 268.743L68 268.743L68 263.718L67 263.718ZM67 273.769L67 278.795L68 278.795L68 273.769L67 273.769ZM67 283.82L67 288.846L68 288.846L68 283.82L67 283.82ZM67 293.872L67 298.897L68 298.897L68 293.872L67 293.872ZM67 303.923L67 308.949L68 308.949L68 303.923L67 303.923ZM67 313.974L67 319L68 319L68 313.974L67 313.974ZM67 324.025L67 329.051L68 329.051L68 324.025L67 324.025ZM67 334.077L67 339.102L68 339.102L68 334.077L67 334.077ZM67 344.128L67 349.154L68 349.154L68 344.128L67 344.128ZM67 354.179L67 359.205L68 359.205L68 354.179L67 354.179ZM67 364.231L67 369.256L68 369.256L68 364.231L67 364.231ZM67 374.282L67 379.307L68 379.307L68 374.282L67 374.282ZM67 384.333L67 389.359L68 389.359L68 384.333L67 384.333ZM67 394.384L67 399.41L68 399.41L68 394.384L67 394.384ZM67 404.436L67 409.461L68 409.461L68 404.436L67 404.436ZM67 414.487L67 417L68 417L68 414.487L67 414.487Z" fill="#89CAC6"/>
<circle cx="12.5" cy="30.5" r="12.5" fill="white"/>
<path d="M12.5 40.3333C11.0272 40.3333 9.83333 41.5272 9.83333 43C9.83333 44.4728 11.0272 45.6667 12.5 45.6667C13.9728 45.6667 15.1667 44.4728 15.1667 43C15.1667 41.5272 13.9728 40.3333 12.5 40.3333ZM12 43L12 45.5128L13 45.5128L13 43L12 43ZM12 50.5385L12 55.5641L13 55.5641L13 50.5385L12 50.5385ZM12 60.5897L12 65.6154L13 65.6154L13 60.5897L12 60.5897ZM12 70.641L12 75.6667L13 75.6667L13 70.641L12 70.641ZM12 80.6923L12 85.7179L13 85.7179L13 80.6923L12 80.6923ZM12 90.7436L12 95.7692L13 95.7692L13 90.7436L12 90.7436ZM12 100.795L12 105.821L13 105.821L13 100.795L12 100.795ZM12 110.846L12 115.872L13 115.872L13 110.846L12 110.846ZM12 120.897L12 125.923L13 125.923L13 120.897L12 120.897ZM12 130.949L12 135.974L13 135.974L13 130.949L12 130.949ZM12 141L12 146.026L13 146.026L13 141L12 141ZM12 151.051L12 156.077L13 156.077L13 151.051L12 151.051ZM12 161.103L12 166.128L13 166.128L13 161.103L12 161.103ZM12 171.154L12 176.18L13 176.18L13 171.154L12 171.154ZM12 181.205L12 186.231L13 186.231L13 181.205L12 181.205ZM12 191.256L12 196.282L13 196.282L13 191.256L12 191.256ZM12 201.308L12 206.333L13 206.333L13 201.308L12 201.308ZM12 211.359L12 216.385L13 216.385L13 211.359L12 211.359ZM12 221.41L12 226.436L13 226.436L13 221.41L12 221.41ZM12 231.461L12 236.487L13 236.487L13 231.461L12 231.461ZM12 241.513L12 246.538L13 246.538L13 241.513L12 241.513ZM12 251.564L12 256.59L13 256.59L13 251.564L12 251.564ZM12 261.615L12 266.641L13 266.641L13 261.615L12 261.615ZM12 271.667L12 276.692L13 276.692L13 271.667L12 271.667ZM12 281.718L12 286.743L13 286.743L13 281.718L12 281.718ZM12 291.769L12 296.795L13 296.795L13 291.769L12 291.769ZM12 301.82L12 306.846L13 306.846L13 301.82L12 301.82ZM12 311.872L12 316.897L13 316.897L13 311.872L12 311.872ZM12 321.923L12 326.949L13 326.949L13 321.923L12 321.923ZM12 331.974L12 337L13 337L13 331.974L12 331.974ZM12 342.025L12 347.051L13 347.051L13 342.025L12 342.025ZM12 352.077L12 357.102L13 357.102L13 352.077L12 352.077ZM12 362.128L12 367.154L13 367.154L13 362.128L12 362.128ZM12 372.179L12 377.205L13 377.205L13 372.179L12 372.179ZM12 382.231L12 387.256L13 387.256L13 382.231L12 382.231ZM12 392.282L12 397.307L13 397.307L13 392.282L12 392.282ZM12 402.333L12 407.359L13 407.359L13 402.333L12 402.333ZM12 412.384L12 417.41L13 417.41L13 412.384L12 412.384ZM12 422.436L12 427.461L13 427.461L13 422.436L12 422.436ZM12 432.487L12 435L13 435L13 432.487L12 432.487Z" fill="white"/>
</svg>
